<svg id="Layer_1" data-name="Layer 1" xmlns="http://www.w3.org/2000/svg" viewBox="0 0 104.56 104.51"><defs><style>.cls-1{fill:#fff;}.cls-2{fill:none;stroke:#fff;stroke-miterlimit:10;stroke-width:2.5px;}.cls-3{isolation:isolate;}</style></defs><path class="cls-1" d="M46.58,19.4A23,23,0,0,1,51.35,19c2.61,0,4.29.45,5.52,1.47A4.26,4.26,0,0,1,58.58,24a4.78,4.78,0,0,1-3.42,4.44v.09a5.15,5.15,0,0,1,4.17,5,5.32,5.32,0,0,1-1.74,4c-1.38,1.29-3.66,1.89-7,1.89a30.51,30.51,0,0,1-4.05-.24Zm2.61,8.28h2.37c2.73,0,4.35-1.47,4.35-3.42,0-2.34-1.77-3.3-4.41-3.3a11.2,11.2,0,0,0-2.31.18Zm0,9.66a14.19,14.19,0,0,0,2.19.12c2.7,0,5.19-1,5.19-3.93,0-2.73-2.37-3.9-5.22-3.9H49.19Z"/><path class="cls-2" d="M72.26,31.81a20.07,20.07,0,0,1-40.07-2,20.52,20.52,0,0,1,12.57-19"/><polygon class="cls-1" points="63.43 36.64 64.57 38.13 71.9 32.49 76.98 40.22 78.55 39.18 72.36 29.78 63.43 36.64"/><g id="Community-2" class="cls-3"><g class="cls-3"><path class="cls-1" d="M18,60.69a15.31,15.31,0,0,1,3.18-.3,5.48,5.48,0,0,1,3.68,1A2.84,2.84,0,0,1,26,63.75a3.19,3.19,0,0,1-2.28,3v.06a3.43,3.43,0,0,1,2.78,3.36,3.54,3.54,0,0,1-1.16,2.7c-.92.86-2.44,1.26-4.64,1.26a20.34,20.34,0,0,1-2.7-.16Zm1.74,5.52h1.58c1.82,0,2.9-1,2.9-2.28,0-1.56-1.18-2.2-2.94-2.2a7.46,7.46,0,0,0-1.54.12Zm0,6.44a9.46,9.46,0,0,0,1.46.08c1.8,0,3.46-.66,3.46-2.62s-1.58-2.6-3.48-2.6H19.75Z"/><path class="cls-1" d="M35.23,71.65A16.24,16.24,0,0,0,35.37,74H33.79l-.14-1.22h-.06a3.61,3.61,0,0,1-3,1.44,2.76,2.76,0,0,1-3-2.78c0-2.34,2.08-3.62,5.82-3.6v-.2a2,2,0,0,0-2.2-2.22,4.66,4.66,0,0,0-2.54.72l-.4-1.18a6.27,6.27,0,0,1,3.2-.84c3,0,3.68,2,3.68,3.94ZM33.53,69c-1.92,0-4.1.3-4.1,2.18a1.54,1.54,0,0,0,1.64,1.68,2.44,2.44,0,0,0,2.38-1.62,2,2,0,0,0,.08-.56Z"/><path class="cls-1" d="M37.71,59.77h1.76V74H37.71Z"/><path class="cls-1" d="M48.87,71.65A16.24,16.24,0,0,0,49,74H47.43l-.14-1.22h-.06a3.61,3.61,0,0,1-3,1.44,2.76,2.76,0,0,1-3-2.78c0-2.34,2.08-3.62,5.82-3.6v-.2a2,2,0,0,0-2.2-2.22,4.66,4.66,0,0,0-2.54.72L42,64.93a6.27,6.27,0,0,1,3.2-.84c3,0,3.68,2,3.68,3.94ZM47.17,69c-1.92,0-4.1.3-4.1,2.18a1.54,1.54,0,0,0,1.64,1.68,2.44,2.44,0,0,0,2.38-1.62,2,2,0,0,0,.08-.56Z"/><path class="cls-1" d="M51.35,66.91c0-1,0-1.82-.08-2.62h1.56l.1,1.6h0a3.58,3.58,0,0,1,3.2-1.8c1.34,0,3.42.8,3.42,4.12V74H57.83V68.39c0-1.56-.58-2.86-2.24-2.86a2.58,2.58,0,0,0-2.48,2.62V74H51.35Z"/><path class="cls-1" d="M69,73.63a6.8,6.8,0,0,1-2.78.56,4.6,4.6,0,0,1-4.82-4.94,4.93,4.93,0,0,1,5.2-5.16,5.54,5.54,0,0,1,2.44.52L68.63,66a4.31,4.31,0,0,0-2-.46,3.36,3.36,0,0,0-3.42,3.66,3.32,3.32,0,0,0,3.36,3.62,5,5,0,0,0,2.16-.46Z"/><path class="cls-1" d="M72.65,61.57a1.05,1.05,0,0,1-1.12,1.08,1,1,0,0,1-1.06-1.08,1.07,1.07,0,0,1,1.1-1.1A1.06,1.06,0,0,1,72.65,61.57Zm-2,12.4V64.29h1.76V74Z"/><path class="cls-1" d="M75,66.91c0-1,0-1.82-.08-2.62h1.56l.1,1.6h0a3.58,3.58,0,0,1,3.2-1.8c1.34,0,3.42.8,3.42,4.12V74H81.49V68.39c0-1.56-.58-2.86-2.24-2.86a2.58,2.58,0,0,0-2.48,2.62V74H75Z"/><path class="cls-1" d="M94,72.55c0,2.24-.46,3.58-1.38,4.44a5.32,5.32,0,0,1-3.54,1.16,6.25,6.25,0,0,1-3.22-.8L86.33,76a5.27,5.27,0,0,0,2.84.78c1.8,0,3.12-.94,3.12-3.4V72.31h0a3.43,3.43,0,0,1-3.08,1.62c-2.4,0-4.12-2-4.12-4.72,0-3.28,2.14-5.12,4.38-5.12a3.23,3.23,0,0,1,3,1.66h0l.06-1.46h1.56c-.06.68-.08,1.48-.08,2.64Zm-1.76-4.44a2.31,2.31,0,0,0-.1-.78,2.51,2.51,0,0,0-2.46-1.88c-1.68,0-2.88,1.42-2.88,3.66,0,1.9,1,3.48,2.86,3.48a2.54,2.54,0,0,0,2.44-1.8,3.06,3.06,0,0,0,.14-.94Z"/><path class="cls-1" d="M36.77,78h1.76V90h5.76v1.46H36.77Z"/><path class="cls-1" d="M54.29,86.55a4.74,4.74,0,0,1-4.82,5.14c-2.6,0-4.64-1.92-4.64-5,0-3.22,2.14-5.12,4.8-5.12S54.29,83.61,54.29,86.55Zm-7.66.1c0,2.12,1.2,3.72,2.92,3.72s2.94-1.58,2.94-3.76c0-1.64-.82-3.7-2.9-3.7S46.63,84.83,46.63,86.65Z"/><path class="cls-1" d="M64.91,86.55a4.74,4.74,0,0,1-4.82,5.14c-2.6,0-4.64-1.92-4.64-5,0-3.22,2.14-5.12,4.8-5.12S64.91,83.61,64.91,86.55Zm-7.66.1c0,2.12,1.2,3.72,2.92,3.72s2.94-1.58,2.94-3.76c0-1.64-.82-3.7-2.9-3.7S57.25,84.83,57.25,86.65Z"/><path class="cls-1" d="M66.77,85c0-1.24,0-2.24-.08-3.16h1.56l.1,1.66h0a3.77,3.77,0,0,1,3.44-1.86c2.36,0,4.12,2,4.12,4.9,0,3.48-2.14,5.2-4.42,5.2a3.39,3.39,0,0,1-3-1.52h0v5.26H66.77Zm1.74,2.58a2.72,2.72,0,0,0,2.72,2.78c1.86,0,2.94-1.52,2.94-3.74,0-1.92-1-3.58-2.88-3.58a2.77,2.77,0,0,0-2.66,2.16,2.85,2.85,0,0,0-.12.7Z"/></g></g></svg>