<svg id="Layer_1" data-name="Layer 1" xmlns="http://www.w3.org/2000/svg" viewBox="0 0 102.85 88.15"><defs><style>.cls-1{fill:none;stroke:#fff;stroke-miterlimit:10;stroke-width:2.5px;}.cls-2{fill:#fff;}</style></defs><path class="cls-1" d="M67.44,41.25A12.82,12.82,0,1,1,54.62,28.44,12.82,12.82,0,0,1,67.44,41.25Z"/><line class="cls-1" x1="63.69" y1="49.69" x2="44.78" y2="32.35"/><line class="cls-1" x1="63.06" y1="32.19" x2="46.03" y2="50.16"/><path class="cls-2" d="M45.23,76.72a8.73,8.73,0,0,1-3.56.64C37.87,77.36,35,75,35,70.51a6.7,6.7,0,0,1,7-7.08,7.3,7.3,0,0,1,3.2.6l-.44,1.42a6.17,6.17,0,0,0-2.7-.56c-3.16,0-5.26,2-5.26,5.56,0,3.32,1.9,5.42,5.16,5.42a7,7,0,0,0,2.86-.56Z"/><path class="cls-2" d="M46.87,62.93h1.76v14.2H46.87Z"/><path class="cls-2" d="M59.85,72.21A4.75,4.75,0,0,1,55,77.36c-2.6,0-4.64-1.93-4.64-5,0-3.22,2.14-5.12,4.8-5.12S59.85,69.27,59.85,72.21Zm-7.66.1c0,2.12,1.2,3.72,2.92,3.72s2.94-1.58,2.94-3.76c0-1.64-.82-3.7-2.9-3.7S52.19,70.49,52.19,72.31Z"/><path class="cls-2" d="M61.33,75.35a5,5,0,0,0,2.34.68c1.26,0,1.86-.62,1.86-1.44s-.5-1.28-1.78-1.76c-1.76-.64-2.58-1.58-2.58-2.74,0-1.56,1.28-2.84,3.34-2.84a4.49,4.49,0,0,1,2.36.6l-.42,1.28a3.75,3.75,0,0,0-2-.58c-1,0-1.6.6-1.6,1.32s.56,1.16,1.82,1.66c1.66.62,2.54,1.46,2.54,2.9,0,1.73-1.34,2.93-3.6,2.93a5.63,5.63,0,0,1-2.72-.68Z"/><path class="cls-2" d="M70,72.61A3.09,3.09,0,0,0,73.29,76a6.3,6.3,0,0,0,2.68-.5l.32,1.27a8.06,8.06,0,0,1-3.24.62c-3,0-4.76-2-4.76-4.91s1.72-5.2,4.54-5.2c3.18,0,4,2.76,4,4.54a4.29,4.29,0,0,1-.06.82Zm5.16-1.26c0-1.1-.46-2.84-2.44-2.84A2.88,2.88,0,0,0,70,71.35Z"/></svg>