<svg id="Layer_1" data-name="Layer 1" xmlns="http://www.w3.org/2000/svg" viewBox="0 0 115.35 108.92"><defs><style>.cls-1,.cls-2{fill:#fff;}.cls-2{fill-rule:evenodd;}.cls-3{isolation:isolate;}</style></defs><path id="Path_18" data-name="Path 18" class="cls-1" d="M82.73,40.38a6.63,6.63,0,0,0-3.47-5.78,6.55,6.55,0,0,0-9.59,6.49,9.73,9.73,0,0,0,3,6.08,5.59,5.59,0,0,0,3.38,1.42,5.2,5.2,0,0,0,3.51-1.42,9.38,9.38,0,0,0,3.16-6.86C82.74,39.06,82.74,41.72,82.73,40.38Z"/><path id="Path_19" data-name="Path 19" class="cls-1" d="M87.69,55.24a6.8,6.8,0,0,0-3.4-5.82A6.54,6.54,0,0,0,81,48.54c-.77,0-1.71-.17-2.22.51l-3.17,4.36-3.15-4.26c-.51-.7-1.22-.57-2-.57a7.17,7.17,0,0,0-3,.6,6.73,6.73,0,0,0-3.93,5.42,18.8,18.8,0,0,0,0,2.6v2.51a1,1,0,0,0,1,1H86.65a1,1,0,0,0,1-1V55.24C87.69,53.91,87.7,56.58,87.69,55.24Z"/><path id="Path_20" data-name="Path 20" class="cls-1" d="M41.19,40.38a6.63,6.63,0,0,0-3.47-5.78,6.54,6.54,0,0,0-9.53,6.49,9.72,9.72,0,0,0,3,6.08,5.5,5.5,0,0,0,3.37,1.42,5.2,5.2,0,0,0,3.51-1.42,9.38,9.38,0,0,0,3.16-6.86C41.2,39.06,41.22,41.72,41.19,40.38Z"/><path id="Path_21" data-name="Path 21" class="cls-1" d="M46.15,55.24a6.78,6.78,0,0,0-3.4-5.82,6.51,6.51,0,0,0-3.31-.88c-.75,0-1.7-.17-2.2.51l-3.17,4.36L30.9,49.15c-.5-.7-1.22-.57-2-.57a7.13,7.13,0,0,0-3,.6A6.74,6.74,0,0,0,22,54.6a18.8,18.8,0,0,0,0,2.6v2.51a1,1,0,0,0,1,1h22.1a1,1,0,0,0,1-1V55.24C46.15,53.91,46.16,56.58,46.15,55.24Z"/><path id="Path_22" data-name="Path 22" class="cls-2" d="M58.23,30.86H52.76a.94.94,0,1,0-.23,1.86h5.7a.94.94,0,0,0,.23-1.86Z"/><path id="Path_23" data-name="Path 23" class="cls-1" d="M58.23,30.86H52.76a.94.94,0,1,0-.23,1.86h5.7a.94.94,0,0,0,.23-1.86Z"/><path id="Path_24" data-name="Path 24" class="cls-2" d="M55.36,35.83a2,2,0,0,0,2-1.87h-4A2,2,0,0,0,55.36,35.83Z"/><path id="Path_25" data-name="Path 25" class="cls-1" d="M55.36,35.83a2,2,0,0,0,2-1.87h-4A2,2,0,0,0,55.36,35.83Z"/><path id="Path_26" data-name="Path 26" class="cls-2" d="M55.41,13.14h0A8,8,0,0,0,47.47,21v.27A8.15,8.15,0,0,0,48,24.11a7.46,7.46,0,0,0,1.43,2.27,15.08,15.08,0,0,1,1.86,3,.6.6,0,0,0,.55.35H59a.65.65,0,0,0,.56-.35,14.63,14.63,0,0,1,1.86-3,7.24,7.24,0,0,0,1.42-2.27,8.24,8.24,0,0,0,.5-2.73V21.1A8,8,0,0,0,55.41,13.14Zm6.11,8.08a6.84,6.84,0,0,1-.42,2.15,6,6,0,0,1-1,1.68,13.12,13.12,0,0,0-1.79,2.75H52.59a14.27,14.27,0,0,0-1.79-2.75,5.72,5.72,0,0,1-1-1.68,6.87,6.87,0,0,1-.44-2.15V21a6.14,6.14,0,0,1,6.11-6h0a6.13,6.13,0,0,1,6.11,6Z"/><path id="Path_27" data-name="Path 27" class="cls-1" d="M55.41,13.14h0A8,8,0,0,0,47.47,21v.27A8.15,8.15,0,0,0,48,24.11a7.46,7.46,0,0,0,1.43,2.27,15.08,15.08,0,0,1,1.86,3,.6.6,0,0,0,.55.35H59a.65.65,0,0,0,.56-.35,14.63,14.63,0,0,1,1.86-3,7.24,7.24,0,0,0,1.42-2.27,8.24,8.24,0,0,0,.5-2.73V21.1A8,8,0,0,0,55.41,13.14Zm6.11,8.08a6.84,6.84,0,0,1-.42,2.15,6,6,0,0,1-1,1.68,13.12,13.12,0,0,0-1.79,2.75H52.59a14.27,14.27,0,0,0-1.79-2.75,5.72,5.72,0,0,1-1-1.68,6.87,6.87,0,0,1-.44-2.15V21a6.14,6.14,0,0,1,6.11-6h0a6.13,6.13,0,0,1,6.11,6Z"/><path id="Path_28" data-name="Path 28" class="cls-2" d="M52.44,23l3.29-6.43v3.71l3.41-.67-3.41,6.28V22.23Z"/><path id="Path_29" data-name="Path 29" class="cls-1" d="M52.44,23l3.29-6.43v3.71l3.41-.67-3.41,6.28V22.23Z"/><path id="Path_30" data-name="Path 30" class="cls-1" d="M62,44.7a6.56,6.56,0,0,0-13.11.22l0,.49a9.73,9.73,0,0,0,3,6.07,5.4,5.4,0,0,0,3.37,1.42,5.22,5.22,0,0,0,3.51-1.42A9.51,9.51,0,0,0,62,44.61C62,43.36,62,46,62,44.7Z"/><path id="Path_31" data-name="Path 31" class="cls-1" d="M66.92,59.56a6.68,6.68,0,0,0-6.67-6.7h0c-.75,0-1.69-.19-2.2.51-1.34,1.84-1.85,2.53-3.18,4.39,0,0-1.79-2.5-3.14-4.35-.51-.68-1.24-.55-2-.55a7.36,7.36,0,0,0-3,.58,6.79,6.79,0,0,0-3.94,5.44,22.38,22.38,0,0,0,0,2.59V64a1,1,0,0,0,1,1H65.89a1,1,0,0,0,1-1V59.55C66.92,58.23,66.94,60.88,66.92,59.56Z"/><g id="Community-2" class="cls-3"><g class="cls-3"><path class="cls-1" d="M16.41,83.77a8.56,8.56,0,0,1-3.56.64c-3.8,0-6.64-2.4-6.64-6.84a6.7,6.7,0,0,1,7-7.08,7.3,7.3,0,0,1,3.2.6L16,72.51a6.17,6.17,0,0,0-2.7-.56c-3.16,0-5.26,2-5.26,5.56,0,3.32,1.9,5.42,5.16,5.42a7,7,0,0,0,2.86-.56Z"/><path class="cls-1" d="M26.73,79.27a4.74,4.74,0,0,1-4.82,5.14c-2.6,0-4.64-1.92-4.64-5,0-3.22,2.14-5.12,4.8-5.12S26.73,76.33,26.73,79.27Zm-7.66.1c0,2.12,1.2,3.72,2.92,3.72s2.94-1.58,2.94-3.76c0-1.64-.82-3.7-2.9-3.7S19.07,77.55,19.07,79.37Z"/><path class="cls-1" d="M28.59,77.13c0-1,0-1.82-.08-2.62h1.54l.08,1.58h.06a3.35,3.35,0,0,1,3.06-1.78A2.85,2.85,0,0,1,36,76.25h0A3.82,3.82,0,0,1,37.11,75a3.25,3.25,0,0,1,2.12-.68c1.3,0,3.2.84,3.2,4.2v5.68H40.71V78.73c0-1.88-.7-3-2.1-3a2.31,2.31,0,0,0-2.1,1.58,3,3,0,0,0-.14.88v6H34.65v-5.8c0-1.54-.68-2.64-2-2.64a2.43,2.43,0,0,0-2.18,1.76,2.35,2.35,0,0,0-.14.86v5.82H28.59Z"/><path class="cls-1" d="M44.91,77.13c0-1,0-1.82-.08-2.62h1.54l.08,1.58h.06a3.35,3.35,0,0,1,3.06-1.78,2.85,2.85,0,0,1,2.72,1.94h0A3.82,3.82,0,0,1,53.43,75a3.25,3.25,0,0,1,2.12-.68c1.3,0,3.2.84,3.2,4.2v5.68H57V78.73c0-1.88-.7-3-2.1-3a2.31,2.31,0,0,0-2.1,1.58,3,3,0,0,0-.14.88v6H51v-5.8c0-1.54-.68-2.64-2-2.64a2.43,2.43,0,0,0-2.18,1.76,2.35,2.35,0,0,0-.14.86v5.82H44.91Z"/><path class="cls-1" d="M69.33,81.53c0,1,0,1.9.08,2.66H67.85l-.1-1.58h0a3.62,3.62,0,0,1-3.2,1.8c-1.52,0-3.34-.86-3.34-4.24V74.51h1.76v5.34c0,1.84.58,3.1,2.16,3.1a2.53,2.53,0,0,0,2.32-1.62,2.41,2.41,0,0,0,.16-.9V74.51h1.76Z"/><path class="cls-1" d="M71.89,77.13c0-1,0-1.82-.08-2.62h1.56l.1,1.6h0a3.58,3.58,0,0,1,3.2-1.8c1.34,0,3.42.8,3.42,4.12v5.76H78.37V78.61c0-1.56-.58-2.86-2.24-2.86a2.58,2.58,0,0,0-2.48,2.62v5.82H71.89Z"/><path class="cls-1" d="M84.59,71.79a1.05,1.05,0,0,1-1.12,1.08,1,1,0,0,1-1.06-1.08,1.07,1.07,0,0,1,1.1-1.1A1.06,1.06,0,0,1,84.59,71.79Zm-2,12.4V74.51h1.76v9.68Z"/><path class="cls-1" d="M89.07,72.19v2.32h2.52v1.34H89.07v5.22c0,1.2.34,1.88,1.32,1.88a3.29,3.29,0,0,0,1-.12l.08,1.34a4.8,4.8,0,0,1-1.56.24,2.51,2.51,0,0,1-1.9-.74,3.78,3.78,0,0,1-.68-2.54V75.85h-1.5V74.51h1.5v-1.8Z"/><path class="cls-1" d="M94,74.51l2.1,5.72c.24.64.48,1.4.64,2h0c.18-.58.38-1.32.62-2l1.92-5.68h1.86l-2.64,6.9c-1.26,3.32-2.12,5-3.32,6.06a5,5,0,0,1-2.16,1.12l-.44-1.46a4.66,4.66,0,0,0,1.54-.86,5.56,5.56,0,0,0,1.48-2,1.26,1.26,0,0,0,.14-.42,1.22,1.22,0,0,0-.14-.46l-3.56-8.92Z"/></g></g></svg>