<svg id="Layer_1" data-name="Layer 1" xmlns="http://www.w3.org/2000/svg" viewBox="0 0 96.39 85.25"><defs><style>.cls-1,.cls-6{fill:#fff;}.cls-2,.cls-3,.cls-4,.cls-5{fill:none;}.cls-2,.cls-3,.cls-4,.cls-5,.cls-6{stroke:#fff;}.cls-2,.cls-3,.cls-5,.cls-6{stroke-miterlimit:10;}.cls-2,.cls-6{stroke-width:1.7px;}.cls-3,.cls-4,.cls-5{stroke-width:0.85px;}.cls-4{stroke-linejoin:round;}.cls-5{stroke-linecap:square;}</style></defs><path class="cls-1" d="M35.23,73.47a8.56,8.56,0,0,1-3.56.64c-3.8,0-6.64-2.4-6.64-6.84a6.7,6.7,0,0,1,7-7.08,7.3,7.3,0,0,1,3.2.6l-.43,1.42a6.26,6.26,0,0,0-2.71-.56c-3.16,0-5.26,2-5.26,5.56,0,3.32,1.9,5.42,5.16,5.42a7,7,0,0,0,2.86-.56Z"/><path class="cls-1" d="M45.91,69a4.74,4.74,0,0,1-4.82,5.14c-2.6,0-4.64-1.92-4.64-5,0-3.22,2.14-5.12,4.8-5.12S45.91,66,45.91,69Zm-7.66.1c0,2.12,1.2,3.72,2.92,3.72s2.94-1.58,2.94-3.76c0-1.64-.82-3.7-2.9-3.7S38.25,67.25,38.25,69.07Z"/><path class="cls-1" d="M48.13,67.37c0-1.24,0-2.24-.08-3.16h1.56l.1,1.66h0A3.77,3.77,0,0,1,53.19,64c2.36,0,4.12,2,4.12,4.9,0,3.48-2.14,5.2-4.42,5.2a3.39,3.39,0,0,1-3-1.52h0v5.27H48.13ZM49.87,70a2.72,2.72,0,0,0,2.72,2.78c1.86,0,2.94-1.52,2.94-3.74,0-1.92-1-3.58-2.88-3.58A2.77,2.77,0,0,0,50,67.57a2.85,2.85,0,0,0-.12.7Z"/><path class="cls-1" d="M60,64.21l2.1,5.72c.24.64.48,1.4.64,2h0c.18-.58.38-1.32.62-2l1.92-5.68h1.86l-2.64,6.9c-1.26,3.32-2.12,5-3.32,6.06a4.88,4.88,0,0,1-2.16,1.12l-.44-1.46A4.66,4.66,0,0,0,60.17,76a5.56,5.56,0,0,0,1.48-2,1.26,1.26,0,0,0,.14-.42,1.22,1.22,0,0,0-.14-.46l-3.56-8.92Z"/><polygon class="cls-2" points="62.39 51.02 34.4 51.02 34.4 12.74 39.3 12.74 62.39 12.74 62.39 51.02"/><polyline class="cls-3" points="58.76 30.31 50.95 45.77 37.92 39.19 47.23 20.76 56.96 25.68"/><polygon class="cls-4" points="58.76 30.31 55.46 28.64 56.96 25.68 58.76 30.31"/><line class="cls-5" x1="46.16" y1="27.53" x2="55.47" y2="32.24"/><line class="cls-5" x1="44.8" y1="30.22" x2="54.11" y2="34.93"/><line class="cls-5" x1="43.44" y1="32.91" x2="52.75" y2="37.62"/><line class="cls-5" x1="42.08" y1="35.6" x2="51.39" y2="40.31"/><path class="cls-6" d="M41.79,18.08V12.66H54v5.77s-.74,4.51-6.11,4.51A5.94,5.94,0,0,1,41.79,18.08Z"/></svg>