<svg id="Layer_1" data-name="Layer 1" xmlns="http://www.w3.org/2000/svg" viewBox="0 0 99.3 89.6"><defs><style>.cls-1{fill:#fff;}.cls-2,.cls-3,.cls-4{fill:none;stroke:#fff;stroke-width:2.5px;}.cls-2,.cls-3{stroke-miterlimit:10;}.cls-3{stroke-linecap:square;}.cls-4{stroke-linejoin:round;}.cls-5{fill:#c6262e;}</style></defs><path class="cls-1" d="M26.37,64.41a22.37,22.37,0,0,1,3.71-.3,7.81,7.81,0,0,1,5.46,1.68,6.15,6.15,0,0,1,1.92,4.84,7.21,7.21,0,0,1-1.94,5.24c-1.28,1.26-3.36,1.94-6,1.94a27.89,27.89,0,0,1-3.17-.16Zm1.74,11.92a14.54,14.54,0,0,0,1.77.08c3.74,0,5.74-2.08,5.74-5.72,0-3.18-1.78-5.2-5.46-5.2a9.92,9.92,0,0,0-2.05.18Z"/><path class="cls-1" d="M40.69,73.17A3.09,3.09,0,0,0,44,76.53,6.35,6.35,0,0,0,46.7,76L47,77.29a7.94,7.94,0,0,1-3.25.62c-3,0-4.76-2-4.76-4.9s1.72-5.2,4.54-5.2c3.19,0,4,2.76,4,4.54a4.29,4.29,0,0,1-.06.82Zm5.17-1.26a2.5,2.5,0,0,0-2.45-2.84,2.88,2.88,0,0,0-2.7,2.84Z"/><path class="cls-1" d="M49.73,63.49h1.76v14.2H49.73Z"/><path class="cls-1" d="M55.43,73.17a3.09,3.09,0,0,0,3.32,3.36,6.38,6.38,0,0,0,2.69-.5l.31,1.26a7.89,7.89,0,0,1-3.24.62c-3,0-4.76-2-4.76-4.9s1.72-5.2,4.54-5.2c3.19,0,4,2.76,4,4.54a5.56,5.56,0,0,1,0,.82Zm5.16-1.26c0-1.1-.46-2.84-2.44-2.84a2.88,2.88,0,0,0-2.7,2.84Z"/><path class="cls-1" d="M66.59,65.69V68h2.52v1.34H66.59v5.22c0,1.2.34,1.88,1.32,1.88a3.29,3.29,0,0,0,1-.12L69,77.67a4.8,4.8,0,0,1-1.56.24,2.51,2.51,0,0,1-1.9-.74,3.78,3.78,0,0,1-.68-2.54V69.35h-1.5V68h1.5v-1.8Z"/><path class="cls-1" d="M72,73.17a3.09,3.09,0,0,0,3.32,3.36A6.38,6.38,0,0,0,78,76l.31,1.26a7.89,7.89,0,0,1-3.24.62c-3,0-4.76-2-4.76-4.9s1.72-5.2,4.54-5.2c3.19,0,4,2.76,4,4.54a4.45,4.45,0,0,1,0,.82Zm5.16-1.26c0-1.1-.46-2.84-2.44-2.84A2.88,2.88,0,0,0,72,71.91Z"/><polyline class="cls-2" points="62.1 21.31 62.1 51.13 36.99 51.13 36.99 15.6 55.75 15.6"/><line class="cls-3" x1="40.59" y1="26.83" x2="58.55" y2="26.83"/><line class="cls-3" x1="40.59" y1="34.61" x2="58.55" y2="34.61"/><line class="cls-3" x1="40.59" y1="42.4" x2="58.55" y2="42.4"/><polygon class="cls-4" points="62.1 21.31 55.75 21.31 55.75 15.6 62.1 21.31"/><path class="cls-5" d="M56.16,47.22c-.12-.42-.27-.91-.47-1.47S55.26,44.61,55,44s-.54-1.24-.84-1.88-.61-1.26-.92-1.85-.62-1.14-.93-1.64-.58-.92-.83-1.26l-1.38,1.1-1.58,1.28-1.69,1.33c-.57.45-1.13.86-1.68,1.24s-.95.67-1.53,1.06L41.76,44.6c-.65.42-1.31.83-2,1.24s-1.32.76-1.94,1.08-1.2.57-1.73.77a3.81,3.81,0,0,1-1.3.29,1.28,1.28,0,0,1-1.15-.51,2,2,0,0,1-.35-1.16,3.17,3.17,0,0,1,.13-1,1.23,1.23,0,0,1,.67-.66,62.46,62.46,0,0,0,8.38-4.86,49.16,49.16,0,0,0,7.22-6c-.11-.31-.26-.71-.43-1.2L48.7,31c-.21-.57-.42-1.17-.65-1.78s-.44-1.21-.66-1.78-.41-1.09-.59-1.57-.33-.85-.44-1.15a8.69,8.69,0,0,0-.94-1.76c-.33-.46-.65-.88-1-1.27a8.64,8.64,0,0,1-.74-1.12,2.67,2.67,0,0,1-.29-1.31,1.87,1.87,0,0,1,.14-.71,2.28,2.28,0,0,1,.43-.69,2.37,2.37,0,0,1,.65-.52,1.87,1.87,0,0,1,.85-.2,2.57,2.57,0,0,1,1,.19,3.43,3.43,0,0,1,.83.49,3.87,3.87,0,0,1,.66.68,5.61,5.61,0,0,1,.51.76,24.59,24.59,0,0,1,1.37,3c.43,1.12.83,2.22,1.19,3.32l1,3a17.24,17.24,0,0,0,.83,2.1c1-1,1.88-2,2.74-3s1.65-1.89,2.39-2.8,1.42-1.81,2-2.7a24.84,24.84,0,0,0,1.65-2.71,8.48,8.48,0,0,0,.59-1.36,5,5,0,0,1,.62-1.24,2.39,2.39,0,0,1,.74-.52,2.64,2.64,0,0,1,1.06-.2,1.49,1.49,0,0,1,.75.18,1.53,1.53,0,0,1,.5.48,2,2,0,0,1,.27.67,3.48,3.48,0,0,1,.09.79,5.63,5.63,0,0,1,0,.58c0,.19-.06.36-.1.52a9.82,9.82,0,0,1-.87,2.09,17.75,17.75,0,0,1-1.27,2q-.72,1-1.56,1.95l-1.76,2q-1.32,1.53-2.4,2.73l-1.89,2.08-1.29,1.41a5.26,5.26,0,0,0-.64.81,1,1,0,0,0,.12.45c.09.17.18.32.28.48Q56.61,38,57.71,40c.74,1.32,1.34,2.44,1.78,3.36a17,17,0,0,1,.93,2.22,4.61,4.61,0,0,1,.27,1.22,3.27,3.27,0,0,1-.1.73,2.17,2.17,0,0,1-.32.73,1.73,1.73,0,0,1-.57.57,1.42,1.42,0,0,1-.83.24A2.64,2.64,0,0,1,56.16,47.22Z"/></svg>