<svg id="Layer_1" data-name="Layer 1" xmlns="http://www.w3.org/2000/svg" viewBox="0 0 102.85 88.15"><defs><style>.cls-1{fill:#fff;}.cls-2,.cls-3{fill:none;stroke:#fff;stroke-miterlimit:10;}.cls-2{stroke-width:3.17px;}.cls-3{stroke-width:6.33px;}</style></defs><path class="cls-1" d="M30.19,65.54H25V70.4h5.85v1.46H23.2V58.38h7.31v1.46H25V64.1h5.23Z"/><path class="cls-1" d="M33.82,62.18l1.38,2.08c.38.54.68,1,1,1.56h0c.33-.56.64-1.06,1-1.58l1.34-2.06h1.92l-3.3,4.68,3.38,5h-2l-1.44-2.18c-.39-.56-.71-1.1-1-1.68h0c-.32.58-.64,1.1-1,1.68l-1.4,2.18H31.7l3.44-4.94-3.28-4.74Z"/><path class="cls-1" d="M42.26,65.34c0-1.24,0-2.24-.08-3.16h1.56l.1,1.66h0A3.77,3.77,0,0,1,47.32,62c2.37,0,4.13,2,4.13,4.9,0,3.48-2.14,5.2-4.42,5.2a3.4,3.4,0,0,1-3-1.52h0v5.26H42.26ZM44,67.92a2.72,2.72,0,0,0,2.72,2.78c1.86,0,3-1.52,3-3.74,0-1.92-1-3.58-2.89-3.58a2.77,2.77,0,0,0-2.66,2.16,2.85,2.85,0,0,0-.12.7Z"/><path class="cls-1" d="M60.44,69.54a16.24,16.24,0,0,0,.14,2.32H59l-.14-1.22H58.8a3.61,3.61,0,0,1-3,1.44,2.76,2.76,0,0,1-3-2.78c0-2.34,2.08-3.62,5.82-3.6v-.2a2,2,0,0,0-2.2-2.22A4.66,4.66,0,0,0,54,64l-.4-1.18a6.27,6.27,0,0,1,3.2-.84c3,0,3.68,2,3.68,3.94Zm-1.7-2.62c-1.92,0-4.1.3-4.1,2.18a1.54,1.54,0,0,0,1.64,1.68,2.44,2.44,0,0,0,2.38-1.62,2,2,0,0,0,.08-.56Z"/><path class="cls-1" d="M63.28,64.8c0-1,0-1.82-.08-2.62h1.56l.1,1.6h0A3.58,3.58,0,0,1,68.1,62c1.34,0,3.43.8,3.43,4.12v5.76H69.76V66.28c0-1.56-.58-2.86-2.24-2.86A2.58,2.58,0,0,0,65,66v5.82H63.28Z"/><path class="cls-1" d="M82.72,57.66v11.7c0,.86,0,1.84.08,2.5H81.24l-.08-1.68H81.1a3.5,3.5,0,0,1-3.26,1.9c-2.34,0-4.16-2-4.16-4.92,0-3.22,2-5.18,4.34-5.18a3.24,3.24,0,0,1,2.92,1.46h0V57.66ZM81,66.12a3.11,3.11,0,0,0-.08-.74,2.59,2.59,0,0,0-2.54-2c-1.82,0-2.9,1.6-2.9,3.72,0,2,1,3.58,2.86,3.58a2.67,2.67,0,0,0,2.58-2.1A3.06,3.06,0,0,0,81,67.8Z"/><rect class="cls-2" x="34.08" y="20.72" width="29.8" height="29.8"/><line class="cls-3" x1="49.47" y1="34.05" x2="74.22" y2="11.57"/><polygon class="cls-1" points="72.1 28.01 72.84 12.83 57.66 12.11 64.41 5.97 79.58 6.71 78.85 21.88 72.1 28.01"/></svg>