<svg id="Layer_1" data-name="Layer 1" xmlns="http://www.w3.org/2000/svg" viewBox="0 0 88.23 84.14"><defs><style>.cls-1,.cls-4{fill:none;}.cls-1,.cls-4,.cls-6{stroke:#fff;}.cls-1,.cls-2,.cls-4{stroke-miterlimit:10;}.cls-1,.cls-2,.cls-6{stroke-width:2.5px;}.cls-2,.cls-5,.cls-6{fill:#fff;}.cls-2{stroke:#f1f2f2;stroke-linecap:round;}.cls-3{fill:#f1f2f2;}.cls-4{stroke-width:5px;}.cls-6{stroke-linejoin:round;}</style></defs><polyline class="cls-1" points="56.4 20.31 56.4 50.12 31.29 50.12 31.29 14.6 50.05 14.6"/><line class="cls-2" x1="34.89" y1="25.83" x2="52.85" y2="25.83"/><line class="cls-2" x1="34.89" y1="33.61" x2="52.85" y2="33.61"/><line class="cls-2" x1="34.89" y1="41.39" x2="52.85" y2="41.39"/><path class="cls-3" d="M26.2,65.75H21v4.86h5.84v1.46h-7.6V58.59h7.3v1.46H21v4.26H26.2Z"/><path class="cls-3" d="M29.84,62.39l1.38,2.08c.38.54.68,1,1,1.56h0c.32-.56.64-1.06,1-1.58l1.34-2.06H36.5l-3.3,4.68,3.38,5h-2l-1.44-2.18c-.38-.56-.7-1.1-1-1.68h0c-.32.58-.64,1.1-1,1.68l-1.4,2.18H27.72l3.44-4.94-3.28-4.74Z"/><path class="cls-3" d="M38.28,65.55c0-1.24,0-2.24-.08-3.16h1.56l.1,1.66h0a3.77,3.77,0,0,1,3.44-1.86c2.36,0,4.12,2,4.12,4.9,0,3.48-2.14,5.2-4.42,5.2a3.39,3.39,0,0,1-3-1.52h0V76H38.28ZM40,68.13a2.72,2.72,0,0,0,2.72,2.78c1.86,0,2.94-1.52,2.94-3.74,0-1.92-1-3.58-2.88-3.58a2.77,2.77,0,0,0-2.66,2.16,2.85,2.85,0,0,0-.12.7Z"/><path class="cls-3" d="M58.42,67.15a4.74,4.74,0,0,1-4.82,5.14c-2.6,0-4.64-1.92-4.64-5,0-3.22,2.14-5.12,4.8-5.12S58.42,64.21,58.42,67.15Zm-7.66.1c0,2.12,1.2,3.72,2.92,3.72s2.94-1.58,2.94-3.76c0-1.64-.82-3.7-2.9-3.7S50.76,65.43,50.76,67.25Z"/><path class="cls-3" d="M60.64,65.41c0-1.14,0-2.12-.08-3H62.1l.08,1.92h.06a2.93,2.93,0,0,1,2.7-2.12,3.58,3.58,0,0,1,.48,0v1.66a2.74,2.74,0,0,0-.6,0,2.45,2.45,0,0,0-2.36,2.24,5.27,5.27,0,0,0-.06.82v5.16H60.64Z"/><path class="cls-3" d="M69.78,60.07v2.32H72.3v1.34H69.78V69c0,1.2.34,1.88,1.32,1.88a3.29,3.29,0,0,0,1-.12l.08,1.34a4.8,4.8,0,0,1-1.56.24,2.51,2.51,0,0,1-1.9-.74A3.78,3.78,0,0,1,68.06,69V63.73h-1.5V62.39h1.5v-1.8Z"/><line class="cls-4" x1="44.01" y1="33.5" x2="63.93" y2="33.36"/><polygon class="cls-5" points="61.87 40.6 74.34 33.29 61.77 26.14 61.87 40.6"/><polygon class="cls-6" points="56.4 20.49 50.05 20.49 50.04 14.6 56.4 20.49"/></svg>