<svg id="Layer_1" data-name="Layer 1" xmlns="http://www.w3.org/2000/svg" viewBox="0 0 106.31 96.61"><defs><style>.cls-1{fill:#fff;}.cls-2{fill:none;stroke:#fff;stroke-miterlimit:10;stroke-width:0.5px;}</style></defs><path class="cls-1" d="M41.13,56.81h5.81V58h-4.4v3.59H46.6v1.15H42.54V67.6H41.13Z"/><path class="cls-1" d="M50,57.68a.84.84,0,0,1-.9.86.82.82,0,0,1-.84-.86.86.86,0,0,1,.88-.88A.84.84,0,0,1,50,57.68ZM48.47,67.6V59.85h1.41V67.6Z"/><path class="cls-1" d="M52.22,56.24h1.4V67.6h-1.4Z"/><path class="cls-1" d="M56.78,64a2.47,2.47,0,0,0,2.65,2.69,5,5,0,0,0,2.15-.4l.25,1a6.17,6.17,0,0,1-2.59.5,3.62,3.62,0,0,1-3.81-3.92c0-2.34,1.38-4.17,3.63-4.17,2.55,0,3.21,2.21,3.21,3.64a3.48,3.48,0,0,1-.05.65Zm4.13-1a2,2,0,0,0-2-2.28A2.31,2.31,0,0,0,56.79,63Z"/><path class="cls-1" d="M19.88,76.86c-.08-1.5-.17-3.33-.17-4.65h0c-.39,1.24-.82,2.61-1.37,4.09l-1.9,5.24H15.35L13.59,76.4c-.51-1.54-.93-2.91-1.23-4.19h0c0,1.34-.11,3.13-.21,4.77l-.29,4.62H10.5l.76-10.79H13L14.87,76c.45,1.33.8,2.51,1.09,3.63h0c.29-1.08.68-2.27,1.16-3.63l1.92-5.22h1.77l.68,10.79H20.14Z"/><path class="cls-1" d="M29.15,79.74a13,13,0,0,0,.11,1.86H28l-.11-1h-.05a2.9,2.9,0,0,1-2.37,1.15,2.22,2.22,0,0,1-2.37-2.23c0-1.87,1.67-2.89,4.66-2.88v-.16A1.58,1.58,0,0,0,26,74.74a3.71,3.71,0,0,0-2,.57l-.32-.94a5,5,0,0,1,2.56-.68c2.37,0,2.95,1.62,2.95,3.16Zm-1.37-2.09c-1.53,0-3.28.24-3.28,1.74a1.24,1.24,0,0,0,1.32,1.35,2,2,0,0,0,1.9-1.3,1.51,1.51,0,0,0,.06-.45Z"/><path class="cls-1" d="M33,71.68a.87.87,0,0,1-1.74,0,.86.86,0,0,1,.88-.88A.84.84,0,0,1,33,71.68ZM31.42,81.6V73.85h1.4V81.6Z"/><path class="cls-1" d="M35.16,76c0-.82,0-1.46-.06-2.1h1.24l.08,1.28h0A2.86,2.86,0,0,1,39,73.69c1.07,0,2.73.64,2.73,3.3V81.6h-1.4V77.14c0-1.25-.47-2.29-1.8-2.29a2,2,0,0,0-1.89,1.44,2.08,2.08,0,0,0-.09.65V81.6H35.16Z"/><path class="cls-1" d="M45.67,72v1.85h2v1.08h-2V79.1c0,1,.27,1.51,1.06,1.51a2.38,2.38,0,0,0,.81-.1l.07,1.08a4,4,0,0,1-1.25.19,2,2,0,0,1-1.52-.59,3.07,3.07,0,0,1-.54-2V74.93H43.09V73.85H44.3V72.41Z"/><path class="cls-1" d="M50,78a2.47,2.47,0,0,0,2.66,2.69,5,5,0,0,0,2.14-.4l.26,1a6.23,6.23,0,0,1-2.6.5,3.62,3.62,0,0,1-3.81-3.92c0-2.34,1.38-4.17,3.64-4.17,2.54,0,3.2,2.21,3.2,3.64a3.48,3.48,0,0,1-.05.65Zm4.13-1a2,2,0,0,0-2-2.28A2.31,2.31,0,0,0,50,77Z"/><path class="cls-1" d="M57.19,76c0-.82,0-1.46-.06-2.1h1.25l.08,1.28h0a2.86,2.86,0,0,1,2.56-1.44c1.07,0,2.74.64,2.74,3.3V81.6H62.38V77.14c0-1.25-.47-2.29-1.8-2.29a2,2,0,0,0-1.88,1.44,1.81,1.81,0,0,0-.1.65V81.6H57.19Z"/><path class="cls-1" d="M71.51,79.74a13,13,0,0,0,.11,1.86H70.36l-.11-1h0a2.9,2.9,0,0,1-2.37,1.15,2.21,2.21,0,0,1-2.37-2.23c0-1.87,1.67-2.89,4.66-2.88v-.16a1.58,1.58,0,0,0-1.76-1.77,3.69,3.69,0,0,0-2,.57L66,74.37a5,5,0,0,1,2.56-.68c2.37,0,2.94,1.62,2.94,3.16Zm-1.36-2.09c-1.53,0-3.28.24-3.28,1.74a1.24,1.24,0,0,0,1.31,1.35,2,2,0,0,0,1.91-1.3,1.51,1.51,0,0,0,.06-.45Z"/><path class="cls-1" d="M73.78,76c0-.82,0-1.46-.06-2.1H75l.08,1.28h0a2.86,2.86,0,0,1,2.56-1.44c1.07,0,2.74.64,2.74,3.3V81.6H79V77.14c0-1.25-.47-2.29-1.79-2.29a2,2,0,0,0-1.89,1.44,1.81,1.81,0,0,0-.1.65V81.6H73.78Z"/><path class="cls-1" d="M88.19,81.33a5.41,5.41,0,0,1-2.23.45,3.69,3.69,0,0,1-3.86-4,4,4,0,0,1,4.16-4.13,4.43,4.43,0,0,1,2,.42l-.32,1.07a3.58,3.58,0,0,0-1.64-.36,2.92,2.92,0,0,0,0,5.82,3.93,3.93,0,0,0,1.72-.37Z"/><path class="cls-1" d="M90.52,78a2.47,2.47,0,0,0,2.66,2.69,5,5,0,0,0,2.14-.4l.26,1a6.23,6.23,0,0,1-2.6.5,3.62,3.62,0,0,1-3.81-3.92c0-2.34,1.38-4.17,3.64-4.17,2.54,0,3.2,2.21,3.2,3.64A3.48,3.48,0,0,1,96,78Zm4.13-1a2,2,0,0,0-2-2.28A2.32,2.32,0,0,0,90.53,77Z"/><path class="cls-2" d="M69.43,32.35c-.08.1-.19.19-.21.3-.68,3.1-1.35,6.21-2,9.31-.35,1.61-.72,3.23-1.09,4.84A1.42,1.42,0,0,1,64.56,48H42.22a1.43,1.43,0,0,1-1.58-1.57V27.32a1.46,1.46,0,0,1,1.58-1.6c.84,0,.79,0,.79-.83s0-1.52,0-2.28.27-.91.93-.91H59.56c.71,0,1,.26,1,1s0,1.67,0,2.51c0,.41.15.54.55.53,1,0,1.58.33,1.76,1.05a4.88,4.88,0,0,1,.07,1.15c0,1.21,0,1,1.05,1,.27,0,.53,0,.8,0a1.37,1.37,0,0,1,1.32,1.13.47.47,0,0,0,.54.45h1.07a1.49,1.49,0,0,1,1.54,1c0,.08.13.14.21.2ZM43.69,46.21l.13,0a3.42,3.42,0,0,0,.13-.34c.44-2,.87-4,1.31-6,.6-2.7,1.19-5.41,1.8-8.12a1.5,1.5,0,0,1,1.65-1.26h9c.37,0,.57-.08.65-.49A1.27,1.27,0,0,1,59.43,29c.37-.06.45-.25.44-.58,0-1.83,0-3.67,0-5.5,0-.55,0-.58-.59-.58H44.42c-.76,0-.76,0-.76.74q0,11.37,0,22.73C43.65,45.94,43.68,46.08,43.69,46.21Zm-1.64-9.34h0v2.6q0,3.28,0,6.57c0,.33.05.53.45.55S43,46.4,43,46V31.62c0-1.33,0-2.65,0-4,0-.39-.17-.49-.51-.49s-.46.23-.46.56C42.05,30.76,42.05,33.82,42.05,36.87ZM61.5,28.09h0a2.67,2.67,0,0,1,0-.4c0-.34-.07-.53-.46-.54s-.55.15-.52.54a4.21,4.21,0,0,1,0,.71c0,.36.08.56.49.56s.53-.19.49-.56C61.49,28.3,61.5,28.2,61.5,28.09Z"/><path class="cls-1" d="M51.28,20.09H47.75a1.12,1.12,0,0,1-1-.46,7.2,7.2,0,0,0-3.72-2.73,7.35,7.35,0,0,0-3.31-.34,7.57,7.57,0,0,0-3.65,1.52,7.4,7.4,0,0,0-2.93,5.72c0,.48,0,1,.06,1.43s-.06.56-.43.67a5,5,0,0,0-3,2.38,5,5,0,0,0,1,5.94,4.8,4.8,0,0,0,3.3,1.28l3.67,0c.92,0,1,.12,1,1.06v.26c0,.74-.18.9-.9.9-1.6,0-3.19,0-4.79-.05a5.64,5.64,0,0,1-2.38-.76,7,7,0,0,1-3.15-3.36A7.23,7.23,0,0,1,27,30.1a6.69,6.69,0,0,1,1.28-3.6,7.37,7.37,0,0,1,2.32-2.06.65.65,0,0,0,.35-.6,9.55,9.55,0,0,1,4.95-8.29,9.8,9.8,0,0,1,12.84,3.09.49.49,0,0,0,.42.16,7.74,7.74,0,0,1,4.09-.39,11.31,11.31,0,0,1,2.41.84.36.36,0,0,1,0,.67,4,4,0,0,1-1,.17c-1.13,0-2.26,0-3.4,0Z"/><path class="cls-1" d="M52.22,27.46c1.5,0,3,0,4.52,0a1.2,1.2,0,0,1,.69.22.68.68,0,0,1-.19,1.16,1.8,1.8,0,0,1-.61.08H47.77a2.67,2.67,0,0,1-.4,0,.73.73,0,0,1-.7-.73.74.74,0,0,1,.72-.72,4.87,4.87,0,0,1,.54,0Z"/><path class="cls-1" d="M52.2,25.9H47.51c-.56,0-.94-.36-.8-.81a1.23,1.23,0,0,1,.53-.58,1.17,1.17,0,0,1,.57-.05h8.62a4.43,4.43,0,0,1,.63,0A.71.71,0,0,1,57,25.89c-.68,0-1.37,0-2,0Z"/></svg>