<svg id="Layer_1" data-name="Layer 1" xmlns="http://www.w3.org/2000/svg" viewBox="0 0 96.39 85.25"><defs><style>.cls-1{fill:#fff;}</style></defs><polygon class="cls-1" points="14.58 58.1 3.65 45.37 6.85 42.62 13.8 50.71 27.78 25.18 31.48 27.21 14.58 58.1"/><path class="cls-1" d="M42.18,37.11v5.64H48.7V37.11h1.76V50.6H48.7V44.28H42.18V50.6H40.42V37.11Z"/><path class="cls-1" d="M65,43.72c0,4.62-2.82,7.1-6.26,7.1S52.68,48,52.68,44c0-4.29,2.64-7.09,6.24-7.09S65,39.69,65,43.72Zm-10.48.2c0,2.9,1.56,5.48,4.32,5.48s4.32-2.54,4.32-5.6c0-2.71-1.4-5.51-4.3-5.51S54.52,41,54.52,43.92Z"/><path class="cls-1" d="M78.62,44.68c-.1-1.89-.22-4.17-.22-5.83h0c-.48,1.56-1,3.26-1.7,5.13l-2.38,6.54H73l-2.2-6.42c-.64-1.93-1.16-3.65-1.54-5.25h0c0,1.68-.14,3.92-.26,6l-.36,5.78H66.9l.94-13.49h2.22l2.3,6.53c.56,1.66,1,3.14,1.36,4.54h0c.36-1.36.84-2.84,1.44-4.54l2.4-6.53h2.22l.84,13.49H78.94Z"/><path class="cls-1" d="M90.3,44.28H85.08v4.86h5.84V50.6h-7.6V37.11h7.3v1.46H85.08v4.26H90.3Z"/></svg>