<svg id="Layer_1" data-name="Layer 1" xmlns="http://www.w3.org/2000/svg" viewBox="0 0 109.25 123.57"><defs><style>.cls-1{fill:none;stroke:#fff;stroke-miterlimit:10;stroke-width:7px;}.cls-2{fill:#fff;}</style></defs><circle class="cls-1" cx="54.08" cy="51.42" r="40.28"/><path class="cls-2" d="M59.75,28.21c0,2.94-2.24,5.32-5.74,5.32a5.2,5.2,0,0,1-5.53-5.32c-.07-3.08,2.17-5.39,5.6-5.39A5.34,5.34,0,0,1,59.75,28.21ZM48.76,72V37.73H59.4V72Z"/><path class="cls-2" d="M9.48,101.19v13.48H7.72V101.19Z"/><path class="cls-2" d="M12.66,107.61c0-1,0-1.82-.08-2.62h1.56l.1,1.6h0a3.58,3.58,0,0,1,3.2-1.8c1.34,0,3.42.8,3.42,4.12v5.76H19.14v-5.58c0-1.56-.58-2.86-2.24-2.86a2.58,2.58,0,0,0-2.48,2.62v5.82H12.66Z"/><path class="cls-2" d="M23.94,114.67v-8.34H22.6V105h1.34v-.46a4.65,4.65,0,0,1,1.12-3.38,3.37,3.37,0,0,1,2.36-.9,4,4,0,0,1,1.5.28l-.24,1.36a2.56,2.56,0,0,0-1.12-.22c-1.5,0-1.88,1.3-1.88,2.8V105H28v1.34H25.68v8.34Z"/><path class="cls-2" d="M38.1,109.75a4.74,4.74,0,0,1-4.82,5.14c-2.6,0-4.64-1.92-4.64-5,0-3.22,2.14-5.12,4.8-5.12S38.1,106.81,38.1,109.75Zm-7.66.1c0,2.12,1.2,3.72,2.92,3.72s2.94-1.58,2.94-3.76c0-1.64-.82-3.7-2.9-3.7S30.44,108,30.44,109.85Z"/><path class="cls-2" d="M40.32,108c0-1.14,0-2.12-.08-3h1.54l.08,1.92h.06a2.93,2.93,0,0,1,2.7-2.12,3.58,3.58,0,0,1,.48,0v1.66a2.74,2.74,0,0,0-.6,0,2.45,2.45,0,0,0-2.36,2.24,5.27,5.27,0,0,0-.06.82v5.16H40.32Z"/><path class="cls-2" d="M46.94,107.61c0-1,0-1.82-.08-2.62H48.4l.08,1.58h.06a3.35,3.35,0,0,1,3.06-1.78,2.85,2.85,0,0,1,2.72,1.94h0a3.82,3.82,0,0,1,1.1-1.26,3.25,3.25,0,0,1,2.12-.68c1.3,0,3.2.84,3.2,4.2v5.68H59.06v-5.46c0-1.88-.7-3-2.1-3a2.31,2.31,0,0,0-2.1,1.58,3,3,0,0,0-.14.88v6H53v-5.8c0-1.54-.68-2.64-2-2.64A2.43,2.43,0,0,0,48.8,108a2.35,2.35,0,0,0-.14.86v5.82H46.94Z"/><path class="cls-2" d="M70.42,112.35a16.24,16.24,0,0,0,.14,2.32H69l-.14-1.22h-.06a3.61,3.61,0,0,1-3,1.44,2.76,2.76,0,0,1-3-2.78c0-2.34,2.08-3.62,5.82-3.6v-.2a2,2,0,0,0-2.2-2.22,4.66,4.66,0,0,0-2.54.72l-.4-1.18a6.27,6.27,0,0,1,3.2-.84c3,0,3.68,2,3.68,3.94Zm-1.7-2.62c-1.92,0-4.1.3-4.1,2.18a1.54,1.54,0,0,0,1.64,1.68A2.44,2.44,0,0,0,68.64,112a2,2,0,0,0,.08-.56Z"/><path class="cls-2" d="M75.3,102.67V105h2.52v1.34H75.3v5.22c0,1.2.34,1.88,1.32,1.88a3.29,3.29,0,0,0,1-.12l.08,1.34a4.8,4.8,0,0,1-1.56.24,2.51,2.51,0,0,1-1.9-.74,3.78,3.78,0,0,1-.68-2.54v-5.28H72.07V105h1.51v-1.8Z"/><path class="cls-2" d="M81.76,102.27a1.05,1.05,0,0,1-1.12,1.08,1,1,0,0,1-1.06-1.08,1.07,1.07,0,0,1,1.1-1.1A1.06,1.06,0,0,1,81.76,102.27Zm-2,12.4V105h1.76v9.68Z"/><path class="cls-2" d="M93.24,109.75a4.74,4.74,0,0,1-4.82,5.14,4.62,4.62,0,0,1-4.65-5c0-3.22,2.15-5.12,4.81-5.12S93.24,106.81,93.24,109.75Zm-7.66.1c0,2.12,1.2,3.72,2.92,3.72s2.94-1.58,2.94-3.76c0-1.64-.82-3.7-2.9-3.7S85.58,108,85.58,109.85Z"/><path class="cls-2" d="M95.46,107.61c0-1,0-1.82-.08-2.62h1.56l.1,1.6h0a3.58,3.58,0,0,1,3.2-1.8c1.34,0,3.42.8,3.42,4.12v5.76h-1.76v-5.58c0-1.56-.58-2.86-2.24-2.86a2.58,2.58,0,0,0-2.48,2.62v5.82H95.46Z"/></svg>