<svg id="Layer_1" data-name="Layer 1" xmlns="http://www.w3.org/2000/svg" viewBox="0 0 148.77 90.84"><defs><style>.cls-1{fill:#fff;}.cls-2{fill:none;stroke:#fff;stroke-miterlimit:10;stroke-width:2.5px;}</style></defs><path class="cls-1" d="M70.84,39.3H72.6v12h5.76v1.46H70.84Z"/><path class="cls-1" d="M91,45.9c0,4.62-2.82,7.1-6.26,7.1s-6.07-2.78-6.07-6.86c0-4.28,2.65-7.08,6.25-7.08S91,41.88,91,45.9Zm-10.48.2c0,2.9,1.56,5.48,4.32,5.48S89.2,49,89.2,46c0-2.7-1.4-5.5-4.3-5.5S80.56,43.16,80.56,46.1Z"/><path class="cls-1" d="M103.58,52.18a12.19,12.19,0,0,1-4.16.74,6.34,6.34,0,0,1-6.93-6.8c0-4,2.79-7,7.31-7a8.45,8.45,0,0,1,3.38.62l-.44,1.42a6.7,6.7,0,0,0-3-.58A5,5,0,0,0,94.34,46c0,3.42,2,5.44,5.2,5.44a5.67,5.67,0,0,0,2.32-.36v-4H99.14V45.7h4.44Z"/><path class="cls-1" d="M117.74,45.9c0,4.62-2.82,7.1-6.26,7.1s-6.07-2.78-6.07-6.86c0-4.28,2.65-7.08,6.25-7.08S117.74,41.88,117.74,45.9Zm-10.49.2c0,2.9,1.57,5.48,4.33,5.48S115.9,49,115.9,46c0-2.7-1.4-5.5-4.3-5.5S107.25,43.16,107.25,46.1Z"/><path class="cls-1" d="M120,39.3h7.27v1.46h-5.51v4.48h5.09v1.44h-5.09v6.1H120Z"/><path class="cls-1" d="M129.71,39.3H137v1.46h-5.5v4.48h5.08v1.44h-5.08v6.1h-1.77Z"/><polyline class="cls-2" points="46.61 55.9 46.61 67.41 13.53 67.41 13.53 25.28 46.61 25.28 46.61 36.41"/><line class="cls-2" x1="32.57" y1="46.35" x2="62.47" y2="46.35"/><polygon class="cls-1" points="54.19 56.57 52.48 54.74 61.51 46.35 52.48 37.96 54.19 36.13 65.18 46.35 54.19 56.57"/></svg>