<svg id="Layer_1" data-name="Layer 1" xmlns="http://www.w3.org/2000/svg" viewBox="0 0 96.39 85.25"><defs><style>.cls-1,.cls-2{fill:none;stroke:#fff;stroke-miterlimit:10;}.cls-1{stroke-width:3.39px;}.cls-2{stroke-width:5px;}.cls-3{fill:#fff;}</style></defs><path class="cls-1" d="M65.65,50H33.76V18.14H65.65Z"/><line class="cls-2" x1="68.35" y1="15.29" x2="49.14" y2="33.38"/><polygon class="cls-3" points="50.58 20.38 50.22 32.36 62.2 32.72 56.96 37.66 44.98 37.29 45.34 25.31 50.58 20.38"/><path class="cls-3" d="M25.23,65c-.1-1.88-.22-4.16-.22-5.82h0c-.48,1.56-1,3.26-1.7,5.12l-2.38,6.54H19.57l-2.2-6.42c-.64-1.92-1.16-3.64-1.54-5.24h0c0,1.68-.14,3.92-.26,6l-.36,5.78H13.51l.94-13.48h2.22L19,64c.56,1.66,1,3.14,1.36,4.54h0c.36-1.36.84-2.84,1.44-4.54l2.4-6.52h2.22l.84,13.48H25.55Z"/><path class="cls-3" d="M32.09,58.53A1.05,1.05,0,0,1,31,59.61a1,1,0,0,1-1.06-1.08,1.07,1.07,0,0,1,1.1-1.1A1.06,1.06,0,0,1,32.09,58.53Zm-2,12.4V61.25h1.76v9.68Z"/><path class="cls-3" d="M34.81,63.87c0-1,0-1.82-.08-2.62h1.56l.1,1.6h0a3.58,3.58,0,0,1,3.2-1.8c1.34,0,3.42.8,3.42,4.12v5.76H41.29V65.35c0-1.56-.58-2.86-2.24-2.86a2.58,2.58,0,0,0-2.48,2.62v5.82H34.81Z"/><path class="cls-3" d="M47.87,58.53a1.05,1.05,0,0,1-1.12,1.08,1,1,0,0,1-1.06-1.08,1.07,1.07,0,0,1,1.1-1.1A1.06,1.06,0,0,1,47.87,58.53Zm-2,12.4V61.25h1.76v9.68Z"/><path class="cls-3" d="M50.59,63.87c0-1,0-1.82-.08-2.62h1.54l.08,1.58h.06a3.35,3.35,0,0,1,3.06-1.78A2.85,2.85,0,0,1,58,63h0a3.82,3.82,0,0,1,1.1-1.26,3.25,3.25,0,0,1,2.12-.68c1.3,0,3.2.84,3.2,4.2v5.68H62.71V65.47c0-1.88-.7-3-2.1-3a2.31,2.31,0,0,0-2.1,1.58,3,3,0,0,0-.14.88v6H56.65v-5.8c0-1.54-.68-2.64-2-2.64a2.43,2.43,0,0,0-2.18,1.76,2.35,2.35,0,0,0-.14.86v5.82H50.59Z"/><path class="cls-3" d="M69.23,58.53a1.05,1.05,0,0,1-1.12,1.08,1,1,0,0,1-1.06-1.08,1.09,1.09,0,1,1,2.18,0Zm-2,12.4V61.25H69v9.68Z"/><path class="cls-3" d="M70.84,69.91l4.37-5.7c.44-.54.84-1,1.28-1.52v0H71.25v-1.4h7.36v1.1L74.29,68c-.42.54-.8,1-1.24,1.52v0h5.64v1.4H70.84Z"/><path class="cls-3" d="M81.35,66.41a3.09,3.09,0,0,0,3.32,3.36,6.3,6.3,0,0,0,2.68-.5l.32,1.26a7.89,7.89,0,0,1-3.24.62c-3,0-4.76-2-4.76-4.9s1.72-5.2,4.54-5.2c3.18,0,4,2.76,4,4.54a4.29,4.29,0,0,1-.06.82Zm5.16-1.26c0-1.1-.46-2.84-2.44-2.84a2.88,2.88,0,0,0-2.7,2.84Z"/></svg>