<svg id="Layer_1" data-name="Layer 1" xmlns="http://www.w3.org/2000/svg" viewBox="0 0 132.01 120.76"><defs><style>.cls-1{fill:#fff;}.cls-2{fill:none;stroke:#fff;stroke-miterlimit:10;stroke-width:2.5px;}</style></defs><path class="cls-1" d="M87.75,55.86c-.1-1.88-.22-4.16-.22-5.82h0c-.48,1.56-1,3.26-1.71,5.12L83.41,61.7H82.08l-2.2-6.42c-.64-1.92-1.16-3.64-1.54-5.24h0c0,1.68-.14,3.92-.26,6l-.36,5.78H76L77,48.3h2.22l2.3,6.52c.56,1.66,1,3.14,1.36,4.54h0c.36-1.36.85-2.84,1.44-4.54l2.41-6.52H89l.84,13.48H88.07Z"/><path class="cls-1" d="M104,54.9c0,4.62-2.82,7.1-6.27,7.1s-6.06-2.78-6.06-6.86c0-4.28,2.64-7.08,6.25-7.08S104,50.88,104,54.9Zm-10.49.2c0,2.9,1.56,5.48,4.32,5.48s4.33-2.54,4.33-5.6c0-2.7-1.41-5.5-4.31-5.5S93.5,52.16,93.5,55.1Z"/><path class="cls-1" d="M106.24,48.48a20.25,20.25,0,0,1,3.34-.28,5.58,5.58,0,0,1,3.9,1.1,3.44,3.44,0,0,1,1.06,2.58A3.54,3.54,0,0,1,112,55.3v.06a3.38,3.38,0,0,1,2,2.72,21.45,21.45,0,0,0,1,3.7h-1.8a16.9,16.9,0,0,1-.88-3.22c-.4-1.86-1.14-2.56-2.72-2.62H108v5.84h-1.74ZM108,54.62h1.78c1.86,0,3-1,3-2.56,0-1.74-1.26-2.5-3.1-2.5a7.63,7.63,0,0,0-1.72.14Z"/><path class="cls-1" d="M124,55.46h-5.22v4.86h5.84v1.46H117V48.3h7.3v1.46h-5.54V54H124Z"/><path class="cls-1" d="M78.12,65.8V79.28H76.36V65.8Z"/><path class="cls-1" d="M81.16,79.28V65.8h1.92l4.3,6.82A38,38,0,0,1,89.79,77l.06,0c-.16-1.8-.2-3.44-.2-5.54V65.8h1.64V79.28H89.53l-4.29-6.84a39.22,39.22,0,0,1-2.5-4.5l-.06,0c.1,1.7.12,3.32.12,5.56v5.76Z"/><path class="cls-1" d="M94.3,65.8h7.26v1.46h-5.5v4.48h5.08v1.44H96.06v6.1H94.3Z"/><path class="cls-1" d="M115.59,72.4c0,4.62-2.82,7.1-6.27,7.1s-6.06-2.78-6.06-6.86c0-4.28,2.64-7.08,6.24-7.08S115.59,68.38,115.59,72.4Zm-10.49.2c0,2.9,1.56,5.48,4.32,5.48s4.32-2.54,4.32-5.6c0-2.7-1.4-5.5-4.3-5.5S105.1,69.66,105.1,72.6Z"/><path class="cls-2" d="M13.81,82.34l-.26-38.13s3.45-1.8,9.71-.5c3.2.67,16.87,5.45,16.87,5.45S53.29,44,57.53,43.57a42.17,42.17,0,0,1,9.31.51V82.34c.12-.2-6.27-1.06-10.94-.63-4.42.4-15.64,5.59-15.64,5.59S31.53,82.72,25.93,82C22.67,81.33,13.81,82.34,13.81,82.34Z"/><line class="cls-2" x1="40.26" y1="49.25" x2="40.26" y2="87.37"/></svg>