<svg id="Layer_1" data-name="Layer 1" xmlns="http://www.w3.org/2000/svg" viewBox="0 0 115.06 90.16"><defs><style>.cls-1{fill:#fff;}.cls-2,.cls-3{fill:none;}.cls-2,.cls-3,.cls-4,.cls-6{stroke:#fff;}.cls-2,.cls-4,.cls-6{stroke-miterlimit:10;}.cls-2{stroke-width:2.5px;}.cls-3{stroke-linejoin:round;}.cls-3,.cls-4{stroke-width:1.88px;}.cls-4,.cls-6{fill:#231f20;}.cls-4{stroke-linecap:round;}.cls-5{fill:#c6262e;}.cls-6{stroke-width:1.67px;}</style></defs><path class="cls-1" d="M54.23,57.23V43.74h1.92l4.3,6.82A37.07,37.07,0,0,1,62.85,55l.06,0c-.16-1.79-.2-3.44-.2-5.54V43.74h1.64V57.23H62.59l-4.28-6.85a39.22,39.22,0,0,1-2.5-4.5l-.06,0c.1,1.7.12,3.32.12,5.56v5.77Z"/><path class="cls-1" d="M74.35,50.9H69.13v4.87H75v1.46h-7.6V43.74h7.3V45.2H69.13v4.26h5.22Z"/><path class="cls-1" d="M79.61,57.23,76.19,43.74H78l1.6,6.82c.4,1.68.76,3.36,1,4.67h0c.22-1.35.64-2.95,1.1-4.69l1.8-6.8h1.82L87,50.58c.38,1.6.74,3.21.94,4.63h0c.28-1.49.66-3,1.08-4.67l1.78-6.8h1.78L88.83,57.23H87l-1.7-7a40.59,40.59,0,0,1-.88-4.4h0a37.57,37.57,0,0,1-1,4.4l-1.92,7Z"/><path class="cls-1" d="M94.11,55.11a5.9,5.9,0,0,0,3.1.88C99,56,100,55,100,53.68s-.72-2-2.54-2.66c-2.2-.8-3.56-2-3.56-3.84,0-2.1,1.74-3.66,4.36-3.66a6,6,0,0,1,3,.66l-.48,1.42A5,5,0,0,0,98.23,45c-1.84,0-2.54,1.1-2.54,2,0,1.26.82,1.88,2.68,2.6,2.28.88,3.42,2,3.42,4s-1.52,3.91-4.7,3.91a7,7,0,0,1-3.44-.88Z"/><rect class="cls-2" x="10.3" y="27.76" width="33.26" height="42.47"/><rect class="cls-3" x="14.9" y="33.97" width="24.04" height="10.79"/><line class="cls-4" x1="28.39" y1="51.35" x2="39.16" y2="51.35"/><line class="cls-4" x1="28.39" y1="56.97" x2="39.16" y2="56.97"/><line class="cls-4" x1="28.39" y1="62.6" x2="39.16" y2="62.6"/><line class="cls-4" x1="14.7" y1="51.35" x2="25.46" y2="51.35"/><line class="cls-4" x1="14.7" y1="56.97" x2="25.46" y2="56.97"/><line class="cls-4" x1="14.7" y1="62.6" x2="25.46" y2="62.6"/><circle class="cls-5" cx="46.88" cy="21.45" r="10.2"/><path class="cls-6" d="M46.61,17.79h0l-1.5.82-.23-.9,1.89-1h1v8.66H46.61Z"/></svg>