<svg id="Layer_1" data-name="Layer 1" xmlns="http://www.w3.org/2000/svg" viewBox="0 0 106.25 110.56"><defs><style>.cls-1,.cls-2{fill:#fff;}.cls-2{stroke:#fff;stroke-miterlimit:10;stroke-width:2px;}.cls-3{fill:#f1f2f2;}</style></defs><path class="cls-1" d="M30.13,53A6.52,6.52,0,0,1,28,57.49a2.62,2.62,0,0,1-1.92.73,3.23,3.23,0,0,1-1.84-1,6.27,6.27,0,0,1-1.76-4.7,3.82,3.82,0,0,1,7.61.47.88.88,0,0,0,1.75,0,5.56,5.56,0,1,0-11.09.6,8.24,8.24,0,0,0,2.56,5.16A4.65,4.65,0,0,0,26.22,60a4.44,4.44,0,0,0,3-1.17A8,8,0,0,0,31.88,53a.88.88,0,0,0-1.75,0Z"/><path class="cls-1" d="M84.48,53a6.52,6.52,0,0,1-2.09,4.52,2.62,2.62,0,0,1-1.92.73,3.21,3.21,0,0,1-1.83-1,6.24,6.24,0,0,1-1.76-4.7,3.81,3.81,0,0,1,7.6.47.88.88,0,0,0,1.75,0,5.56,5.56,0,1,0-11.09.6,8.25,8.25,0,0,0,2.57,5.16A4.63,4.63,0,0,0,80.57,60a4.49,4.49,0,0,0,3-1.17A8,8,0,0,0,86.23,53a.88.88,0,0,0-1.75,0Z"/><path class="cls-1" d="M34.33,65.58v3.75l.88-.87H16.42l.87.87V67.21a13.64,13.64,0,0,1,.06-2.31A4,4,0,0,1,19.6,62a6.09,6.09,0,0,1,2.76-.35l-.76-.44L25.07,66a.89.89,0,0,0,1.51,0L30,61.21l-.76.44a6,6,0,0,1,3.05.5,4,4,0,0,1,2,3.43.88.88,0,0,0,1.75,0,5.79,5.79,0,0,0-2.88-4.95,5.71,5.71,0,0,0-2.82-.74c-.64,0-1.44-.15-1.88.44-1.13,1.57-2.28,3.13-3.42,4.7,0,0,0,0,0,0h1.51l-3.44-4.69c-.43-.59-1-.48-1.69-.48a6.28,6.28,0,0,0-2.53.5A5.73,5.73,0,0,0,15.58,65a16.34,16.34,0,0,0,0,2.21v2.12a.88.88,0,0,0,.88.87H35.21a.87.87,0,0,0,.87-.87V65.58a.88.88,0,0,0-1.75,0Z"/><path class="cls-1" d="M88.69,65.58v3.75l.87-.87H70.77l.88.87V67.21a13.65,13.65,0,0,1,0-2.31A4,4,0,0,1,74,62a6.11,6.11,0,0,1,2.76-.35L76,61.21,79.42,66a.9.9,0,0,0,1.52,0l3.44-4.75-.76.44a6,6,0,0,1,3,.5,4,4,0,0,1,2,3.43.88.88,0,0,0,1.75,0,5.79,5.79,0,0,0-2.88-4.95,5.68,5.68,0,0,0-2.82-.74c-.64,0-1.44-.15-1.87.44L79.45,65l0,0h1.51L77.5,60.37c-.43-.59-1-.48-1.69-.48a6.29,6.29,0,0,0-2.54.5A5.75,5.75,0,0,0,69.93,65a18.14,18.14,0,0,0,0,2.21v2.12a.88.88,0,0,0,.87.87h18.8a.88.88,0,0,0,.87-.87V65.58a.88.88,0,0,0-1.75,0Z"/><path class="cls-1" d="M56.8,14.31a6.46,6.46,0,0,1-2.09,4.52,2.62,2.62,0,0,1-1.92.73,3.15,3.15,0,0,1-1.83-1,6.23,6.23,0,0,1-1.76-4.69,3.81,3.81,0,0,1,7.6.46.88.88,0,0,0,1.75,0,5.56,5.56,0,1,0-11.09.6A8.25,8.25,0,0,0,50,20.07a4.64,4.64,0,0,0,2.86,1.25,4.48,4.48,0,0,0,3-1.18,8,8,0,0,0,2.68-5.83.88.88,0,0,0-1.75,0Z"/><path class="cls-1" d="M61.51,26.93v3.75l.87-.88H43.59l.88.88V28.56a13.65,13.65,0,0,1,.05-2.31,4,4,0,0,1,2.26-2.91A6.18,6.18,0,0,1,49.53,23c-.25-.15-.5-.3-.76-.44l3.48,4.74a.89.89,0,0,0,1.51,0l3.44-4.74-.76.44a6,6,0,0,1,3.05.5,3.94,3.94,0,0,1,2,3.43.88.88,0,0,0,1.75,0A5.78,5.78,0,0,0,60.38,22a5.65,5.65,0,0,0-2.81-.74c-.65,0-1.45-.16-1.88.43l-3.42,4.71s0,0,0,0h1.51c-1.14-1.57-2.29-3.13-3.44-4.7-.43-.59-1-.47-1.69-.47a6.35,6.35,0,0,0-2.54.49,5.78,5.78,0,0,0-3.34,4.62,18,18,0,0,0,0,2.2v2.12a.89.89,0,0,0,.88.88H62.39a.88.88,0,0,0,.87-.88V26.92a.88.88,0,0,0-1.75,0Z"/><path class="cls-1" d="M24.7,42.9A29.23,29.23,0,0,1,38.87,23.69l.54-.3c1-.53.11-2-.88-1.51a31,31,0,0,0-15.2,19.19c-.12.45-.23.9-.33,1.36-.23,1.1,1.46,1.57,1.7.47Z"/><path class="cls-1" d="M66.77,74.38a29.21,29.21,0,0,1-27.53,0c-.21-.11-.41-.23-.61-.35a.88.88,0,0,0-.89,1.51A30.68,30.68,0,0,0,66,76.72c.56-.26,1.1-.54,1.65-.83,1-.53.1-2-.89-1.51Z"/><path class="cls-1" d="M65.83,23a29.21,29.21,0,0,1,15.1,18.4q.13.49.24,1c.26,1.1,2,.64,1.69-.47A30.94,30.94,0,0,0,68.25,22.32c-.5-.29-1-.56-1.53-.82a.9.9,0,0,0-1.2.32.89.89,0,0,0,.31,1.2Z"/><circle class="cls-2" cx="45.57" cy="50.89" r="4.48"/><circle class="cls-2" cx="59.48" cy="42.97" r="3.36"/><circle class="cls-2" cx="59.48" cy="58.21" r="3.36"/><line class="cls-2" x1="49.19" y1="48.48" x2="56.25" y2="44.35"/><line class="cls-2" x1="49.19" y1="53.82" x2="56.08" y2="57.09"/><path class="cls-3" d="M14.66,94.05c0,3.7-2.26,5.68-5,5.68S4.8,97.51,4.8,94.24s2.11-5.66,5-5.66S14.66,90.83,14.66,94.05Zm-8.39.16c0,2.32,1.25,4.39,3.46,4.39s3.46-2,3.46-4.49c0-2.16-1.12-4.4-3.44-4.4S6.27,91.86,6.27,94.21Z"/><path class="cls-3" d="M22.55,97.43c0,.81,0,1.52.06,2.13H21.36l-.08-1.27h0a2.87,2.87,0,0,1-2.56,1.44C17.47,99.73,16,99,16,96.34V91.81h1.4v4.27c0,1.48.47,2.48,1.73,2.48A2,2,0,0,0,21,97.27a1.93,1.93,0,0,0,.13-.72V91.81h1.41Z"/><path class="cls-3" d="M24.48,94.23c0-.92,0-1.7-.06-2.42h1.23l.06,1.54h.05a2.35,2.35,0,0,1,2.16-1.7c.15,0,.26,0,.39,0V93a2.43,2.43,0,0,0-.49,0,2,2,0,0,0-1.88,1.79,3.41,3.41,0,0,0-.05.66v4.13H24.48Z"/><path class="cls-3" d="M33.74,88.77v4.51H39V88.77h1.41V99.56H39V94.5H33.74v5.06h-1.4V88.77Z"/><path class="cls-3" d="M43,91.81l1.68,4.58c.19.51.39,1.12.51,1.58h0c.14-.46.3-1,.49-1.61l1.54-4.55h1.49l-2.12,5.52c-1,2.66-1.69,4-2.65,4.85a4.16,4.16,0,0,1-1.73.9l-.35-1.17a3.79,3.79,0,0,0,1.23-.69,4.39,4.39,0,0,0,1.18-1.57.89.89,0,0,0,.12-.33A1,1,0,0,0,44.3,99l-2.85-7.14Z"/><path class="cls-3" d="M49.61,94.34c0-1,0-1.79-.06-2.53H50.8l.08,1.33h0a3,3,0,0,1,2.75-1.49c1.89,0,3.3,1.58,3.3,3.92,0,2.79-1.71,4.16-3.54,4.16A2.72,2.72,0,0,1,51,98.52h0v4.21h-1.4ZM51,96.4a2.15,2.15,0,0,0,.06.58,2.18,2.18,0,0,0,2.11,1.65c1.49,0,2.36-1.22,2.36-3,0-1.54-.82-2.87-2.31-2.87A2.22,2.22,0,0,0,51.1,94.5a2.62,2.62,0,0,0-.09.56Z"/><path class="cls-3" d="M65.33,95.62a3.79,3.79,0,0,1-3.86,4.11,3.68,3.68,0,0,1-3.71-4,3.79,3.79,0,0,1,3.84-4.1A3.67,3.67,0,0,1,65.33,95.62Zm-6.13.08c0,1.7,1,3,2.34,3s2.35-1.27,2.35-3c0-1.32-.66-3-2.32-3S59.2,94.24,59.2,95.7Z"/><path class="cls-3" d="M68.4,90v1.86h2v1.07h-2v4.18c0,1,.27,1.5,1.06,1.5a2.78,2.78,0,0,0,.81-.09l.07,1.07a3.81,3.81,0,0,1-1.25.19,2,2,0,0,1-1.52-.59,3,3,0,0,1-.55-2V92.88h-1.2V91.81H67V90.37Z"/><path class="cls-3" d="M71.6,88.19H73V93h0a2.58,2.58,0,0,1,1-1,2.86,2.86,0,0,1,1.44-.38c1,0,2.7.64,2.7,3.3v4.61H76.78V95.11c0-1.25-.46-2.29-1.79-2.29a2.06,2.06,0,0,0-1.89,1.39,1.81,1.81,0,0,0-.09.67v4.68H71.6Z"/><path class="cls-3" d="M80.86,95.94a2.48,2.48,0,0,0,2.66,2.69,5.06,5.06,0,0,0,2.14-.4l.26,1a6.41,6.41,0,0,1-2.59.49,3.61,3.61,0,0,1-3.81-3.92c0-2.34,1.37-4.16,3.63-4.16,2.55,0,3.2,2.21,3.2,3.63a2.89,2.89,0,0,1,0,.66Zm4.13-1A2,2,0,0,0,83,92.66a2.3,2.3,0,0,0-2.16,2.27Z"/><path class="cls-3" d="M87.5,98.13a3.93,3.93,0,0,0,1.87.55c1,0,1.49-.5,1.49-1.16s-.4-1-1.42-1.4c-1.41-.52-2.07-1.27-2.07-2.2a2.4,2.4,0,0,1,2.68-2.27,3.64,3.64,0,0,1,1.89.48l-.34,1A3,3,0,0,0,90,92.69c-.83,0-1.28.48-1.28,1.06s.45.92,1.46,1.32c1.33.5,2,1.17,2,2.33,0,1.37-1.07,2.33-2.88,2.33a4.37,4.37,0,0,1-2.17-.54Z"/><path class="cls-3" d="M95.2,89.63a.85.85,0,0,1-.9.87.84.84,0,0,1-.85-.87.86.86,0,0,1,.88-.88A.85.85,0,0,1,95.2,89.63Zm-1.57,9.93V91.81H95v7.75Z"/><path class="cls-3" d="M96.78,98.13a3.93,3.93,0,0,0,1.87.55c1,0,1.49-.5,1.49-1.16s-.4-1-1.42-1.4c-1.41-.52-2.07-1.27-2.07-2.2a2.4,2.4,0,0,1,2.68-2.27,3.64,3.64,0,0,1,1.89.48l-.34,1a3,3,0,0,0-1.59-.46c-.83,0-1.28.48-1.28,1.06s.45.92,1.46,1.32c1.33.5,2,1.17,2,2.33,0,1.37-1.07,2.33-2.88,2.33a4.37,4.37,0,0,1-2.17-.54Z"/></svg>