<svg id="Layer_1" data-name="Layer 1" xmlns="http://www.w3.org/2000/svg" viewBox="0 0 111.1 109.48"><defs><style>.cls-1{fill:#fff;}.cls-2{fill:#f1f2f2;}</style></defs><path class="cls-1" d="M31.73,52.58a6.42,6.42,0,0,1-2.09,4.52,2.56,2.56,0,0,1-1.91.73,3.09,3.09,0,0,1-1.84-1,6.27,6.27,0,0,1-1.76-4.69,3.81,3.81,0,0,1,7.6.46.88.88,0,0,0,1.76,0,5.57,5.57,0,1,0-11.1.6A8.3,8.3,0,0,0,25,58.34a4.66,4.66,0,0,0,2.86,1.25,4.46,4.46,0,0,0,3-1.18,8,8,0,0,0,2.69-5.83.88.88,0,0,0-1.76,0Z"/><path class="cls-1" d="M36.44,65.2V69l.88-.88H18.53l.87.88V66.83a13.64,13.64,0,0,1,.06-2.31,4,4,0,0,1,2.25-2.91,6.2,6.2,0,0,1,2.75-.35l-.76-.43,3.48,4.74a.89.89,0,0,0,1.51,0l3.44-4.74-.75.43a5.93,5.93,0,0,1,3,.5,4,4,0,0,1,2,3.44.88.88,0,0,0,1.76,0,5.79,5.79,0,0,0-2.89-5,5.65,5.65,0,0,0-2.81-.74c-.65,0-1.45-.16-1.88.43L27.2,64.65l0,0h1.51c-1.14-1.57-2.29-3.13-3.44-4.7-.43-.58-1-.47-1.69-.47A6.32,6.32,0,0,0,21,60a5.78,5.78,0,0,0-3.34,4.62,18,18,0,0,0,0,2.2v2.12a.89.89,0,0,0,.87.88h18.8a.89.89,0,0,0,.87-.88V65.19a.88.88,0,0,0-1.75,0Z"/><path class="cls-1" d="M86.09,52.58A6.5,6.5,0,0,1,84,57.1a2.58,2.58,0,0,1-1.92.73,3.12,3.12,0,0,1-1.84-1,6.27,6.27,0,0,1-1.76-4.69,3.82,3.82,0,0,1,7.61.46.88.88,0,0,0,1.75,0A5.57,5.57,0,0,0,79.1,48a5.61,5.61,0,0,0-2.35,5.17,8.24,8.24,0,0,0,2.56,5.16,4.67,4.67,0,0,0,2.87,1.25,4.45,4.45,0,0,0,3-1.18,8,8,0,0,0,2.69-5.83.88.88,0,0,0-1.75,0Z"/><path class="cls-1" d="M90.79,65.2V69l.88-.88H72.88l.87.88V66.83a13.64,13.64,0,0,1,.06-2.31,4,4,0,0,1,2.25-2.91,6.23,6.23,0,0,1,2.76-.35l-.76-.43,3.47,4.74a.89.89,0,0,0,1.51,0l3.45-4.74-.76.43a6,6,0,0,1,3,.5,4,4,0,0,1,2,3.44.88.88,0,0,0,1.76,0,5.8,5.8,0,0,0-2.88-5,5.71,5.71,0,0,0-2.82-.74c-.64,0-1.45-.16-1.87.43l-3.42,4.71,0,0h1.52c-1.15-1.57-2.3-3.13-3.44-4.7-.43-.58-1-.47-1.69-.47a6.28,6.28,0,0,0-2.54.49A5.76,5.76,0,0,0,72,64.62a18,18,0,0,0,0,2.2v2.12a.88.88,0,0,0,.87.88H91.67a.89.89,0,0,0,.88-.88V65.19a.88.88,0,0,0-1.76,0Z"/><path class="cls-1" d="M58.91,13.93a6.52,6.52,0,0,1-2.09,4.52,2.67,2.67,0,0,1-1.92.73,3.17,3.17,0,0,1-1.83-1,6.2,6.2,0,0,1-1.76-4.69,3.81,3.81,0,0,1,7.6.47.88.88,0,0,0,1.75,0A5.67,5.67,0,0,0,57.71,9a5.56,5.56,0,0,0-8.14,5.52,8.24,8.24,0,0,0,2.56,5.15A4.63,4.63,0,0,0,55,20.93a4.45,4.45,0,0,0,3-1.18,8,8,0,0,0,2.68-5.83.88.88,0,0,0-1.75,0Z"/><path class="cls-1" d="M63.62,26.54v3.75l.87-.87H45.7l.87.87V28.17a13.64,13.64,0,0,1,.06-2.31A4,4,0,0,1,48.88,23a6.11,6.11,0,0,1,2.76-.35l-.76-.43,3.47,4.74a.9.9,0,0,0,1.52,0l3.44-4.74-.76.43a6,6,0,0,1,3.05.5,4,4,0,0,1,2,3.43.88.88,0,0,0,1.75,0,5.78,5.78,0,0,0-2.88-4.95,5.71,5.71,0,0,0-2.82-.74c-.64,0-1.44-.15-1.87.43L54.38,26l0,0h1.51l-3.44-4.69c-.43-.59-1-.48-1.69-.48a6.13,6.13,0,0,0-2.54.5A5.73,5.73,0,0,0,44.86,26a18.11,18.11,0,0,0,0,2.21v2.12a.88.88,0,0,0,.87.87H64.49a.89.89,0,0,0,.88-.87V26.54a.88.88,0,0,0-1.75,0Z"/><path class="cls-1" d="M26.8,42.51A29.24,29.24,0,0,1,41,23.31l.55-.3c1-.54.11-2.05-.89-1.52A31,31,0,0,0,25.44,40.68c-.12.45-.23.91-.33,1.37-.23,1.1,1.46,1.57,1.69.46Z"/><path class="cls-1" d="M68.87,74a29.14,29.14,0,0,1-27.52,0l-.62-.34a.87.87,0,0,0-.88,1.51,30.71,30.71,0,0,0,28.27,1.15c.55-.25,1.1-.53,1.64-.82,1-.54.11-2.05-.89-1.52Z"/><path class="cls-1" d="M67.94,22.63A29.22,29.22,0,0,1,83,41c.09.32.17.66.25,1,.26,1.1,2,.63,1.69-.47A31,31,0,0,0,70.36,21.94c-.51-.29-1-.56-1.53-.82a.89.89,0,0,0-1.2.31.88.88,0,0,0,.31,1.2Z"/><path class="cls-1" d="M68.29,43.07a4.93,4.93,0,0,0-3.39-4.63,6.58,6.58,0,0,0-2.21-.23H46.84a5,5,0,0,0-4.07,2.1,5.37,5.37,0,0,0-.86,3.32v9.54a4.93,4.93,0,0,0,3.5,4.71,7.37,7.37,0,0,0,2.2.19h1.8l-.88-.87v5.43a.89.89,0,0,0,1.5.62l6-5.43-.62.26h6.2A16,16,0,0,0,64.24,58a4.87,4.87,0,0,0,4-4,13.62,13.62,0,0,0,.08-2.12V48.43c0-1.79,0-3.58,0-5.36a.88.88,0,0,0-1.75,0v9.27a4.55,4.55,0,0,1-.45,2.47,3.24,3.24,0,0,1-3,1.51H55.45a1.45,1.45,0,0,0-.93.53L48.79,62l1.49.62V57.19a.88.88,0,0,0-.87-.87c-1,0-1.92,0-2.87,0a3.12,3.12,0,0,1-2.87-3.1V43.84a4.24,4.24,0,0,1,.56-2.56A3.17,3.17,0,0,1,47,40h16a5,5,0,0,1,1.39.13,3.14,3.14,0,0,1,2.22,3,.87.87,0,0,0,1.74,0Z"/><path class="cls-1" d="M55.43,48.35a.33.33,0,0,1-.66,0c0-.43.64-.43.66,0,0,1.13,1.8,1.13,1.75,0a2.09,2.09,0,1,0-2.08,2.09,2.12,2.12,0,0,0,2.08-2.09C57.23,47.22,55.48,47.23,55.43,48.35Z"/><path class="cls-1" d="M49.39,48.35a.33.33,0,0,1-.66,0c0-.43.64-.43.66,0,.06,1.13,1.81,1.13,1.76,0a2.13,2.13,0,0,0-2.09-2.08,2.09,2.09,0,0,0,0,4.17,2.12,2.12,0,0,0,2.09-2.09C51.2,47.22,49.45,47.23,49.39,48.35Z"/><path class="cls-1" d="M61.47,48.35a.34.34,0,0,1-.67,0c0-.43.65-.43.67,0,.05,1.13,1.8,1.13,1.75,0a2.09,2.09,0,1,0-2.08,2.09,2.12,2.12,0,0,0,2.08-2.09C63.27,47.22,61.52,47.23,61.47,48.35Z"/><path class="cls-2" d="M21.63,93.66c0,3.7-2.25,5.69-5,5.69s-4.85-2.23-4.85-5.49c0-3.43,2.12-5.67,5-5.67S21.63,90.45,21.63,93.66Zm-8.38.16c0,2.32,1.24,4.39,3.45,4.39s3.46-2,3.46-4.48c0-2.16-1.12-4.4-3.44-4.4S13.25,91.47,13.25,93.82Z"/><path class="cls-2" d="M29.92,97c0,.82,0,1.52.06,2.13H28.74l-.08-1.26h0a2.89,2.89,0,0,1-2.56,1.44c-1.21,0-2.67-.69-2.67-3.4V91.42H24.8V95.7c0,1.47.46,2.48,1.73,2.48a2,2,0,0,0,1.85-1.3,1.93,1.93,0,0,0,.13-.72V91.42h1.41Z"/><path class="cls-2" d="M32.25,93.84c0-.91,0-1.7-.06-2.42h1.23L33.49,93h0a2.19,2.19,0,0,1,2.55-1.66v1.32a2.37,2.37,0,0,0-.48,0,2,2,0,0,0-1.89,1.79,4.65,4.65,0,0,0-.05.66v4.13H32.25Z"/><path class="cls-2" d="M49.82,100.75c-1.45-.38-2.88-.81-4.13-1.24a2.13,2.13,0,0,0-.65-.16c-2.58-.1-4.76-2-4.76-5.48s2.1-5.68,5-5.68,4.85,2.27,4.85,5.46c0,2.78-1.28,4.54-3.07,5.18v.07c1.07.27,2.24.53,3.15.69Zm-1.15-7c0-2.18-1.12-4.4-3.41-4.4s-3.5,2.17-3.5,4.51,1.25,4.37,3.45,4.37S48.67,96.18,48.67,93.73Z"/><path class="cls-2" d="M58.43,97c0,.82,0,1.52.07,2.13H57.25l-.08-1.26h0a2.89,2.89,0,0,1-2.56,1.44c-1.21,0-2.67-.69-2.67-3.4V91.42h1.41V95.7c0,1.47.46,2.48,1.73,2.48a2,2,0,0,0,1.85-1.3,1.93,1.93,0,0,0,.13-.72V91.42h1.41Z"/><path class="cls-2" d="M61.55,95.55a2.47,2.47,0,0,0,2.66,2.69,5,5,0,0,0,2.14-.4l.26,1a6.39,6.39,0,0,1-2.6.5,3.62,3.62,0,0,1-3.81-3.93c0-2.33,1.38-4.16,3.64-4.16,2.54,0,3.2,2.21,3.2,3.64a3.56,3.56,0,0,1-.05.65Zm4.13-1a2,2,0,0,0-2-2.27,2.32,2.32,0,0,0-2.17,2.27Z"/><path class="cls-2" d="M68.59,97.75a4,4,0,0,0,1.87.54c1,0,1.49-.5,1.49-1.15s-.4-1-1.43-1.41c-1.4-.51-2.06-1.27-2.06-2.19a2.4,2.4,0,0,1,2.67-2.28,3.59,3.59,0,0,1,1.89.48l-.33,1a3.06,3.06,0,0,0-1.59-.47c-.83,0-1.28.48-1.28,1.06s.45.93,1.46,1.33c1.33.49,2,1.17,2,2.32,0,1.38-1.07,2.34-2.88,2.34a4.44,4.44,0,0,1-2.18-.55Z"/><path class="cls-2" d="M76.81,89.57v1.85h2V92.5h-2v4.17c0,1,.28,1.51,1.06,1.51a2.49,2.49,0,0,0,.82-.1l.06,1.07a3.67,3.67,0,0,1-1.25.2,2,2,0,0,1-1.52-.6,3,3,0,0,1-.54-2V92.5h-1.2V91.42h1.2V90Z"/><path class="cls-2" d="M82,89.25a.84.84,0,0,1-.9.86.82.82,0,0,1-.84-.86.86.86,0,0,1,.88-.88A.84.84,0,0,1,82,89.25Zm-1.57,9.92V91.42h1.41v7.75Z"/><path class="cls-2" d="M91.17,95.23a3.8,3.8,0,0,1-3.86,4.12,3.69,3.69,0,0,1-3.71-4,3.79,3.79,0,0,1,3.84-4.1A3.67,3.67,0,0,1,91.17,95.23ZM85,95.31c0,1.7,1,3,2.33,3s2.36-1.26,2.36-3c0-1.31-.66-3-2.32-3S85,93.86,85,95.31Z"/><path class="cls-2" d="M92.94,93.52c0-.82,0-1.46-.06-2.1h1.24l.08,1.28h0a2.86,2.86,0,0,1,2.56-1.44c1.07,0,2.73.64,2.73,3.3v4.61h-1.4V94.7c0-1.24-.47-2.28-1.8-2.28a2,2,0,0,0-1.89,1.44,2.08,2.08,0,0,0-.09.65v4.66H92.94Z"/></svg>