<svg id="Layer_1" data-name="Layer 1" xmlns="http://www.w3.org/2000/svg" viewBox="0 0 105.78 107.93"><defs><style>.cls-1{fill:#fff;}.cls-2{fill:#f1f2f2;}</style></defs><path class="cls-1" d="M83.32,10.34,63.68,7.81a1.36,1.36,0,0,0-1.08.5L50.55,23.58l-19-2.43a1.36,1.36,0,0,0-1.08.5L18.12,37.28A1.32,1.32,0,0,0,18,38.5l7.16,18.38a1.13,1.13,0,0,0,1,.73l19,2.42,7,17.79a1.14,1.14,0,0,0,1,.72L72.7,81.07a1.08,1.08,0,0,0,.86-.2l.29-.21L86.23,64.87a1.38,1.38,0,0,0,.2-1.13L79.42,46l12-15.27a1.39,1.39,0,0,0,.2-1.12L84.27,11.06a1.07,1.07,0,0,0-1-.72Zm-56.24,45L20.37,38.2,31.91,23.44l18.25,2.39L56.87,43,45.33,57.75Zm56.75,8.56L72.29,78.69,54,76.29l-6.7-17.15L58.87,44.37l18.25,2.39Zm5.22-34.18L77.51,44.51,59.1,42.09,52.39,24.93,63.93,10.17l18.25,2.39Z"/><path class="cls-2" d="M22.29,93.11c0,3.7-2.26,5.68-5,5.68s-4.85-2.22-4.85-5.49c0-3.42,2.11-5.66,5-5.66S22.29,89.89,22.29,93.11Zm-8.39.16c0,2.32,1.25,4.39,3.46,4.39s3.45-2,3.45-4.48c0-2.16-1.12-4.41-3.44-4.41S13.9,90.92,13.9,93.27Z"/><path class="cls-2" d="M30.57,96.49c0,.82,0,1.52.07,2.13H29.39l-.08-1.27h0a2.9,2.9,0,0,1-2.57,1.44c-1.21,0-2.67-.68-2.67-3.39V90.87h1.41v4.27c0,1.48.46,2.49,1.73,2.49A2,2,0,0,0,29,96.33a1.94,1.94,0,0,0,.12-.72V90.87h1.41Z"/><path class="cls-2" d="M32.91,93.29c0-.91,0-1.7-.07-2.42h1.23l.07,1.54h0a2.34,2.34,0,0,1,2.16-1.7c.14,0,.25,0,.38,0v1.33a2.33,2.33,0,0,0-.48,0,2,2,0,0,0-1.89,1.79,4.54,4.54,0,0,0,0,.66v4.13h-1.4Z"/><path class="cls-2" d="M41.58,88a18.27,18.27,0,0,1,3-.24,6.29,6.29,0,0,1,4.37,1.34A4.92,4.92,0,0,1,50.45,93a5.73,5.73,0,0,1-1.56,4.19,6.7,6.7,0,0,1-4.78,1.55,22.44,22.44,0,0,1-2.53-.12ZM43,97.53a11.34,11.34,0,0,0,1.41.06c3,0,4.59-1.66,4.59-4.57,0-2.55-1.42-4.17-4.37-4.17A7.82,7.82,0,0,0,43,89Z"/><path class="cls-2" d="M53,95a2.48,2.48,0,0,0,2.66,2.69,5.15,5.15,0,0,0,2.15-.4l.25,1a6.37,6.37,0,0,1-2.59.49,3.61,3.61,0,0,1-3.81-3.92c0-2.33,1.38-4.16,3.63-4.16,2.55,0,3.2,2.21,3.2,3.63a3.78,3.78,0,0,1,0,.66Zm4.13-1a2,2,0,0,0-1.95-2.27A2.31,2.31,0,0,0,53.05,94Z"/><path class="cls-2" d="M65.79,98.35a5.62,5.62,0,0,1-2.23.44,3.68,3.68,0,0,1-3.85-4,4,4,0,0,1,4.16-4.13,4.38,4.38,0,0,1,1.95.42L65.5,92.2a3.43,3.43,0,0,0-1.63-.37,2.69,2.69,0,0,0-2.74,2.93,2.66,2.66,0,0,0,2.69,2.9,4,4,0,0,0,1.73-.37Z"/><path class="cls-2" d="M69,88.69a.84.84,0,0,1-.89.87.83.83,0,0,1-.85-.87.86.86,0,0,1,.88-.88A.85.85,0,0,1,69,88.69Zm-1.57,9.93V90.87h1.41v7.75Z"/><path class="cls-2" d="M71,97.19a3.9,3.9,0,0,0,1.87.55c1,0,1.49-.5,1.49-1.15s-.4-1-1.43-1.41c-1.41-.52-2.06-1.27-2.06-2.2a2.4,2.4,0,0,1,2.67-2.27,3.64,3.64,0,0,1,1.89.48l-.34,1a2.9,2.9,0,0,0-1.58-.47c-.83,0-1.28.48-1.28,1.06s.45.93,1.45,1.33c1.33.49,2,1.17,2,2.32,0,1.37-1.08,2.33-2.88,2.33a4.41,4.41,0,0,1-2.18-.54Z"/><path class="cls-2" d="M79.08,88.69a.84.84,0,0,1-.89.87.83.83,0,0,1-.85-.87.86.86,0,0,1,.88-.88A.85.85,0,0,1,79.08,88.69Zm-1.57,9.93V90.87h1.41v7.75Z"/><path class="cls-2" d="M88.27,94.68a3.79,3.79,0,0,1-3.86,4.11,3.68,3.68,0,0,1-3.71-4,3.79,3.79,0,0,1,3.84-4.1A3.67,3.67,0,0,1,88.27,94.68Zm-6.13.08c0,1.7,1,3,2.33,3s2.36-1.27,2.36-3c0-1.31-.66-3-2.32-3S82.14,93.3,82.14,94.76Z"/><path class="cls-2" d="M90,93c0-.82,0-1.46-.06-2.1h1.25l.08,1.28h0a2.86,2.86,0,0,1,2.56-1.44c1.07,0,2.74.64,2.74,3.3v4.61H95.23V94.15c0-1.25-.47-2.29-1.8-2.29a2,2,0,0,0-1.88,1.44,1.91,1.91,0,0,0-.1.66v4.66H90Z"/><path class="cls-2" d="M98.73,97.19a3.93,3.93,0,0,0,1.87.55c1,0,1.49-.5,1.49-1.15s-.4-1-1.42-1.41c-1.41-.52-2.07-1.27-2.07-2.2a2.4,2.4,0,0,1,2.67-2.27,3.59,3.59,0,0,1,1.89.48l-.33,1a3,3,0,0,0-1.59-.47c-.83,0-1.28.48-1.28,1.06s.45.93,1.46,1.33c1.33.49,2,1.17,2,2.32,0,1.37-1.07,2.33-2.88,2.33a4.44,4.44,0,0,1-2.18-.54Z"/></svg>