<svg id="Layer_1" data-name="Layer 1" xmlns="http://www.w3.org/2000/svg" viewBox="0 0 141.25 148.58"><defs><style>.cls-1{fill:none;stroke:#fff;stroke-miterlimit:10;stroke-width:6.95px;}.cls-2{fill:#fff;}</style></defs><path class="cls-1" d="M42.07,90.36C49.62,62,70.26,37.53,98.62,21.41"/><polygon class="cls-2" points="92.05 38.38 96.83 22.42 80.86 17.64 89.67 12.9 105.63 17.68 100.85 33.64 92.05 38.38"/><path class="cls-2" d="M75.27,14.34v5.05h4.84v2.18H75.27v5.1H73v-5.1H68.16V19.39H73V14.34Z"/><path class="cls-2" d="M39.79,102.23a20.17,20.17,0,0,1,3.34-.26,5.59,5.59,0,0,1,3.78,1.12,3.71,3.71,0,0,1,1.18,2.83,4,4,0,0,1-1,2.88,5.62,5.62,0,0,1-4.12,1.48,6,6,0,0,1-1.4-.12v5.4H39.79Zm1.74,6.51a5.84,5.84,0,0,0,1.44.14c2.1,0,3.38-1,3.38-2.86s-1.28-2.66-3.18-2.66a7.3,7.3,0,0,0-1.64.14Z"/><path class="cls-2" d="M58.63,110.64a4.74,4.74,0,0,1-4.82,5.14c-2.6,0-4.64-1.92-4.64-5,0-3.22,2.14-5.12,4.8-5.12S58.63,107.7,58.63,110.64Zm-7.66.1c0,2.12,1.2,3.72,2.92,3.72s2.94-1.58,2.94-3.76c0-1.64-.82-3.7-2.9-3.7S51,108.92,51,110.74Z"/><path class="cls-2" d="M60.61,113.78a5,5,0,0,0,2.34.68c1.26,0,1.86-.62,1.86-1.44s-.5-1.28-1.78-1.76c-1.76-.64-2.58-1.58-2.58-2.74,0-1.56,1.28-2.84,3.34-2.84a4.49,4.49,0,0,1,2.36.6l-.42,1.28a3.75,3.75,0,0,0-2-.58c-1,0-1.6.6-1.6,1.32s.56,1.16,1.82,1.66c1.66.62,2.54,1.46,2.54,2.9,0,1.72-1.34,2.92-3.6,2.92a5.52,5.52,0,0,1-2.72-.68Z"/><path class="cls-2" d="M70.73,103.16a1.06,1.06,0,0,1-1.12,1.08,1,1,0,0,1-1.06-1.08,1.09,1.09,0,1,1,2.18,0Zm-2,12.4v-9.68h1.76v9.68Z"/><path class="cls-2" d="M75.57,103.55v2.33h2.52v1.34H75.57v5.22c0,1.2.34,1.88,1.32,1.88a3.29,3.29,0,0,0,1-.12l.08,1.34a4.8,4.8,0,0,1-1.56.24,2.51,2.51,0,0,1-1.9-.74,3.78,3.78,0,0,1-.68-2.54v-5.28h-1.5v-1.34h1.5v-1.8Z"/><path class="cls-2" d="M82,103.16a1.06,1.06,0,0,1-1.12,1.08,1,1,0,0,1-1.06-1.08,1.09,1.09,0,1,1,2.18,0Zm-2,12.4v-9.68h1.76v9.68Z"/><path class="cls-2" d="M85.43,105.88l1.9,5.42c.32.9.58,1.7.78,2.5h.06c.22-.8.5-1.6.82-2.5l1.88-5.42h1.84l-3.8,9.68H87.23l-3.68-9.68Z"/><path class="cls-2" d="M95.15,111a3.09,3.09,0,0,0,3.32,3.36,6.3,6.3,0,0,0,2.68-.5l.32,1.26a7.89,7.89,0,0,1-3.24.62c-3,0-4.76-2-4.76-4.9s1.72-5.2,4.54-5.2c3.18,0,4,2.76,4,4.54a4.29,4.29,0,0,1-.06.82Zm5.16-1.26c0-1.1-.46-2.84-2.44-2.84a2.88,2.88,0,0,0-2.7,2.84Z"/><path class="cls-2" d="M26.75,135.14a8.56,8.56,0,0,1-3.56.64c-3.8,0-6.64-2.4-6.64-6.84a6.71,6.71,0,0,1,7-7.09,7.11,7.11,0,0,1,3.2.61l-.44,1.42a6,6,0,0,0-2.7-.56c-3.16,0-5.26,2-5.26,5.56,0,3.32,1.9,5.42,5.16,5.42a7,7,0,0,0,2.86-.56Z"/><path class="cls-2" d="M35.55,133.24a16.24,16.24,0,0,0,.14,2.32H34.11L34,134.34h-.06a3.61,3.61,0,0,1-3,1.44A2.76,2.76,0,0,1,28,133c0-2.34,2.08-3.62,5.82-3.6v-.2a2,2,0,0,0-2.2-2.22,4.66,4.66,0,0,0-2.54.72l-.4-1.18a6.27,6.27,0,0,1,3.2-.84c3,0,3.68,2,3.68,3.94Zm-1.7-2.62c-1.92,0-4.1.3-4.1,2.18a1.54,1.54,0,0,0,1.64,1.68,2.44,2.44,0,0,0,2.38-1.62,2,2,0,0,0,.08-.56Z"/><path class="cls-2" d="M46.49,132.9c0,1,0,1.9.08,2.66H45l-.1-1.58h0a3.62,3.62,0,0,1-3.2,1.8c-1.52,0-3.34-.86-3.34-4.24v-5.66h1.76v5.34c0,1.84.58,3.1,2.16,3.1a2.53,2.53,0,0,0,2.32-1.62,2.41,2.41,0,0,0,.16-.9v-5.92h1.76Z"/><path class="cls-2" d="M49.17,133.78a5,5,0,0,0,2.34.68c1.26,0,1.86-.62,1.86-1.44s-.5-1.28-1.78-1.76c-1.76-.64-2.58-1.58-2.58-2.74,0-1.56,1.28-2.84,3.34-2.84a4.49,4.49,0,0,1,2.36.6l-.42,1.28a3.75,3.75,0,0,0-2-.58c-1,0-1.6.6-1.6,1.32s.56,1.16,1.82,1.66c1.66.62,2.54,1.46,2.54,2.9,0,1.72-1.34,2.92-3.6,2.92a5.52,5.52,0,0,1-2.72-.68Z"/><path class="cls-2" d="M64.13,133.24a16.24,16.24,0,0,0,.14,2.32H62.69l-.14-1.22h-.06a3.61,3.61,0,0,1-3,1.44,2.76,2.76,0,0,1-3-2.78c0-2.34,2.08-3.62,5.82-3.6v-.2a2,2,0,0,0-2.2-2.22,4.66,4.66,0,0,0-2.54.72l-.4-1.18a6.27,6.27,0,0,1,3.2-.84c3,0,3.68,2,3.68,3.94Zm-1.7-2.62c-1.92,0-4.1.3-4.1,2.18A1.54,1.54,0,0,0,60,134.48a2.44,2.44,0,0,0,2.38-1.62,2,2,0,0,0,.08-.56Z"/><path class="cls-2" d="M67,121.35h1.76v14.21H67Z"/><path class="cls-2" d="M78.17,131.32l-1.4,4.24H75l4.6-13.48h2.08l4.6,13.48H84.39L83,131.32ZM82.61,130l-1.34-3.88c-.3-.88-.5-1.68-.7-2.46h0c-.2.78-.4,1.62-.68,2.44L78.53,130Z"/><path class="cls-2" d="M88.11,128.9c0-1.14,0-2.12-.08-3h1.54l.08,1.92h.06a2.93,2.93,0,0,1,2.7-2.12,3.58,3.58,0,0,1,.48,0v1.66a2.74,2.74,0,0,0-.6,0,2.45,2.45,0,0,0-2.36,2.24,5.27,5.27,0,0,0-.06.82v5.16H88.11Z"/><path class="cls-2" d="M94.73,128.9c0-1.14,0-2.12-.08-3h1.54l.08,1.92h.06a2.93,2.93,0,0,1,2.7-2.12,3.58,3.58,0,0,1,.48,0v1.66a2.74,2.74,0,0,0-.6,0,2.45,2.45,0,0,0-2.36,2.24,5.27,5.27,0,0,0-.06.82v5.16H94.73Z"/><path class="cls-2" d="M109.83,130.64a4.74,4.74,0,0,1-4.82,5.14c-2.6,0-4.64-1.92-4.64-5,0-3.22,2.14-5.12,4.8-5.12S109.83,127.7,109.83,130.64Zm-7.66.1c0,2.12,1.2,3.72,2.92,3.72s2.94-1.58,2.94-3.76c0-1.64-.82-3.7-2.9-3.7S102.17,128.92,102.17,130.74Z"/><path class="cls-2" d="M112.61,125.88l1.3,4.92c.26,1.08.52,2.08.7,3.08h.06c.22-1,.54-2,.86-3.06l1.58-4.94h1.48l1.5,4.84c.36,1.16.64,2.18.86,3.16H121a29.11,29.11,0,0,1,.74-3.14l1.38-4.86h1.74l-3.12,9.68h-1.6l-1.48-4.62a32.26,32.26,0,0,1-.86-3.18h0a28.64,28.64,0,0,1-.88,3.2l-1.56,4.6h-1.6l-2.92-9.68Z"/></svg>