<svg id="Layer_1" data-name="Layer 1" xmlns="http://www.w3.org/2000/svg" viewBox="0 0 96.73 105.48"><defs><style>.cls-1{fill:#fff;}.cls-2{fill:none;stroke:#fff;stroke-miterlimit:10;stroke-width:2.5px;}.cls-3{isolation:isolate;}</style></defs><path class="cls-1" d="M42.35,18.8a30.37,30.37,0,0,1,5-.42c2.79,0,4.62.54,5.85,1.65A5.16,5.16,0,0,1,54.8,23.9,5.32,5.32,0,0,1,51,29v.09c1.53.54,2.46,2,2.94,4.08a31.54,31.54,0,0,0,1.55,5.55H52.82a25.35,25.35,0,0,1-1.32-4.83c-.6-2.79-1.71-3.84-4.08-3.93H45v8.76H42.35ZM45,28h2.67c2.79,0,4.56-1.53,4.56-3.84,0-2.61-1.89-3.75-4.65-3.75a11.45,11.45,0,0,0-2.58.21Z"/><path class="cls-2" d="M26.94,31.2c1,10.83,9.51,19.31,19.93,19.31,11.05,0,20-9.56,20-21.34A21.38,21.38,0,0,0,54.35,9.38"/><polygon class="cls-1" points="20.53 38.49 22.08 39.55 27.27 31.89 34.52 37.63 35.68 36.15 26.84 29.17 20.53 38.49"/><g id="Community-2" class="cls-3"><g class="cls-3"><path class="cls-1" d="M4.58,62.93a20.25,20.25,0,0,1,3.34-.28,5.58,5.58,0,0,1,3.9,1.1,3.44,3.44,0,0,1,1.06,2.58,3.54,3.54,0,0,1-2.52,3.42v.06a3.38,3.38,0,0,1,2,2.72,21.45,21.45,0,0,0,1,3.7h-1.8A16.9,16.9,0,0,1,10.68,73c-.4-1.86-1.14-2.56-2.72-2.62H6.32v5.84H4.58Zm1.74,6.14H8.1c1.86,0,3-1,3-2.56,0-1.74-1.26-2.5-3.1-2.5a7.63,7.63,0,0,0-1.72.14Z"/><path class="cls-1" d="M16,71.71a3.09,3.09,0,0,0,3.32,3.36,6.3,6.3,0,0,0,2.68-.5l.32,1.26a7.89,7.89,0,0,1-3.24.62c-3,0-4.76-2-4.76-4.9s1.72-5.2,4.54-5.2c3.18,0,4,2.76,4,4.54a4.29,4.29,0,0,1-.06.82Zm5.16-1.26c0-1.1-.46-2.84-2.44-2.84A2.88,2.88,0,0,0,16,70.45Z"/><path class="cls-1" d="M26.62,63.83a1.05,1.05,0,0,1-1.12,1.08,1,1,0,0,1-1.06-1.08,1.07,1.07,0,0,1,1.1-1.1A1.06,1.06,0,0,1,26.62,63.83Zm-2,12.4V66.55h1.76v9.68Z"/><path class="cls-1" d="M29,69.17c0-1,0-1.82-.08-2.62h1.56l.1,1.6h0a3.58,3.58,0,0,1,3.2-1.8c1.34,0,3.42.8,3.42,4.12v5.76H35.46V70.65c0-1.56-.58-2.86-2.24-2.86a2.58,2.58,0,0,0-2.48,2.62v5.82H29Z"/><path class="cls-1" d="M39.9,76.23V67.89H38.56V66.55H39.9v-.46A4.65,4.65,0,0,1,41,62.71a3.37,3.37,0,0,1,2.36-.9,4,4,0,0,1,1.5.28l-.24,1.36a2.56,2.56,0,0,0-1.12-.22c-1.5,0-1.88,1.3-1.88,2.8v.52H44v1.34H41.64v8.34Z"/><path class="cls-1" d="M53.7,71.31a4.74,4.74,0,0,1-4.82,5.14c-2.6,0-4.64-1.92-4.64-5,0-3.22,2.14-5.12,4.8-5.12S53.7,68.37,53.7,71.31Zm-7.66.1c0,2.12,1.2,3.72,2.92,3.72s2.94-1.58,2.94-3.76c0-1.64-.82-3.7-2.9-3.7S46,69.59,46,71.41Z"/><path class="cls-1" d="M55.56,69.57c0-1.14,0-2.12-.08-3H57l.08,1.92h.06a2.93,2.93,0,0,1,2.7-2.12,3.58,3.58,0,0,1,.48,0v1.66a2.74,2.74,0,0,0-.6,0,2.45,2.45,0,0,0-2.36,2.24,5.27,5.27,0,0,0-.06.82v5.16H55.56Z"/><path class="cls-1" d="M68.44,75.89a6.8,6.8,0,0,1-2.78.56,4.6,4.6,0,0,1-4.82-4.94A4.93,4.93,0,0,1,66,66.35a5.54,5.54,0,0,1,2.44.52l-.4,1.34a4.31,4.31,0,0,0-2-.46,3.36,3.36,0,0,0-3.42,3.66A3.32,3.32,0,0,0,66,75a5,5,0,0,0,2.16-.46Z"/><path class="cls-1" d="M72.1,63.83A1.05,1.05,0,0,1,71,64.91a1,1,0,0,1-1.06-1.08,1.07,1.07,0,0,1,1.1-1.1A1.06,1.06,0,0,1,72.1,63.83Zm-2,12.4V66.55H71.9v9.68Z"/><path class="cls-1" d="M74.46,69.17c0-1,0-1.82-.08-2.62h1.56l.1,1.6h0a3.58,3.58,0,0,1,3.2-1.8c1.34,0,3.42.8,3.42,4.12v5.76H80.94V70.65c0-1.56-.58-2.86-2.24-2.86a2.58,2.58,0,0,0-2.48,2.62v5.82H74.46Z"/><path class="cls-1" d="M93.48,74.81c0,2.24-.46,3.58-1.38,4.44a5.32,5.32,0,0,1-3.54,1.16,6.25,6.25,0,0,1-3.22-.8l.44-1.36a5.27,5.27,0,0,0,2.84.78c1.8,0,3.12-.94,3.12-3.4V74.57h0a3.43,3.43,0,0,1-3.08,1.62c-2.4,0-4.12-2-4.12-4.72,0-3.28,2.14-5.12,4.38-5.12a3.23,3.23,0,0,1,3,1.66h0L92,66.55h1.56c-.06.68-.08,1.48-.08,2.64Zm-1.76-4.44a2.31,2.31,0,0,0-.1-.78,2.51,2.51,0,0,0-2.46-1.88c-1.68,0-2.88,1.42-2.88,3.66,0,1.9,1,3.48,2.86,3.48a2.54,2.54,0,0,0,2.44-1.8,3.06,3.06,0,0,0,.14-.94Z"/><path class="cls-1" d="M29.78,80.25h1.76v12H37.3v1.46H29.78Z"/><path class="cls-1" d="M47.3,88.81A4.74,4.74,0,0,1,42.48,94c-2.6,0-4.64-1.92-4.64-5,0-3.22,2.14-5.12,4.8-5.12S47.3,85.87,47.3,88.81Zm-7.66.1c0,2.12,1.2,3.72,2.92,3.72s2.94-1.58,2.94-3.76c0-1.64-.82-3.7-2.9-3.7S39.64,87.09,39.64,88.91Z"/><path class="cls-1" d="M57.92,88.81A4.74,4.74,0,0,1,53.1,94c-2.6,0-4.64-1.92-4.64-5,0-3.22,2.14-5.12,4.8-5.12S57.92,85.87,57.92,88.81Zm-7.66.1c0,2.12,1.2,3.72,2.92,3.72s2.94-1.58,2.94-3.76c0-1.64-.82-3.7-2.9-3.7S50.26,87.09,50.26,88.91Z"/><path class="cls-1" d="M59.78,87.21c0-1.24,0-2.24-.08-3.16h1.56l.1,1.66h0a3.77,3.77,0,0,1,3.44-1.86c2.36,0,4.12,2,4.12,4.9,0,3.48-2.14,5.2-4.42,5.2a3.39,3.39,0,0,1-3-1.52h0v5.26H59.78Zm1.74,2.58a2.72,2.72,0,0,0,2.72,2.78c1.86,0,2.94-1.52,2.94-3.74,0-1.92-1-3.58-2.88-3.58a2.77,2.77,0,0,0-2.66,2.16,2.85,2.85,0,0,0-.12.7Z"/></g></g></svg>