<svg id="Layer_1" data-name="Layer 1" xmlns="http://www.w3.org/2000/svg" viewBox="0 0 113.29 100.11"><defs><style>.cls-1{fill:none;stroke:#fff;stroke-miterlimit:10;stroke-width:5px;}.cls-2{fill:#fff;}</style></defs><rect class="cls-1" x="29.8" y="9.6" width="53.26" height="53.26" rx="8.88"/><path class="cls-2" d="M45.84,51.12A10.12,10.12,0,0,1,47.51,51a2.79,2.79,0,0,1,2,.55A1.72,1.72,0,0,1,50,52.82a1.77,1.77,0,0,1-1.26,1.71v0a1.69,1.69,0,0,1,1,1.36,10.73,10.73,0,0,0,.52,1.85h-.9a8.45,8.45,0,0,1-.44-1.61c-.2-.93-.57-1.28-1.36-1.31h-.82v2.92h-.87Zm.87,3.07h.89c.93,0,1.52-.51,1.52-1.28s-.63-1.25-1.55-1.25a3.82,3.82,0,0,0-.86.07Z"/><path class="cls-2" d="M51.72,55.51a1.55,1.55,0,0,0,1.66,1.68,3.15,3.15,0,0,0,1.34-.25l.16.63a3.94,3.94,0,0,1-1.62.31,2.26,2.26,0,0,1-2.38-2.45,2.34,2.34,0,0,1,2.27-2.6,2,2,0,0,1,2,2.27,2.15,2.15,0,0,1,0,.41Zm2.58-.63a1.25,1.25,0,0,0-1.22-1.42,1.44,1.44,0,0,0-1.35,1.42Z"/><path class="cls-2" d="M56.12,56.88a2.49,2.49,0,0,0,1.17.34c.63,0,.93-.31.93-.72s-.25-.64-.89-.88c-.88-.32-1.29-.79-1.29-1.37a1.5,1.5,0,0,1,1.67-1.42,2.25,2.25,0,0,1,1.18.3l-.21.64a1.88,1.88,0,0,0-1-.29c-.52,0-.8.3-.8.66s.28.58.91.83c.83.31,1.27.73,1.27,1.45s-.67,1.46-1.8,1.46a2.76,2.76,0,0,1-1.36-.34Z"/><path class="cls-2" d="M60.69,55.51a1.55,1.55,0,0,0,1.66,1.68,3.15,3.15,0,0,0,1.34-.25l.16.63a3.94,3.94,0,0,1-1.62.31,2.26,2.26,0,0,1-2.38-2.45,2.34,2.34,0,0,1,2.27-2.6,2,2,0,0,1,2,2.27,2.15,2.15,0,0,1,0,.41Zm2.58-.63a1.25,1.25,0,0,0-1.22-1.42,1.44,1.44,0,0,0-1.35,1.42Z"/><path class="cls-2" d="M66.27,51.77v1.16h1.26v.67H66.27v2.61c0,.6.17.94.66.94a1.64,1.64,0,0,0,.51-.06l0,.67a2.4,2.4,0,0,1-.78.12,1.26,1.26,0,0,1-1-.37,1.89,1.89,0,0,1-.34-1.27V53.6h-.75v-.67h.75V52Z"/><path class="cls-1" d="M42.42,31a14.12,14.12,0,0,1,23.26-8.41"/><polygon class="cls-2" points="59.08 24.75 70.2 30.39 69.52 17.94 59.08 24.75"/><path class="cls-1" d="M70.44,34.31a14.11,14.11,0,0,1-23.81,9.14"/><polygon class="cls-2" points="53.32 41.59 42.44 35.51 42.62 47.98 53.32 41.59"/><path class="cls-2" d="M7.38,77.24A20.25,20.25,0,0,1,10.72,77a5.58,5.58,0,0,1,3.9,1.1,3.44,3.44,0,0,1,1.06,2.58,3.54,3.54,0,0,1-2.52,3.42v.07a3.35,3.35,0,0,1,2,2.71,21.37,21.37,0,0,0,1,3.71h-1.8a16.9,16.9,0,0,1-.88-3.22c-.4-1.87-1.14-2.57-2.72-2.62H9.12v5.84H7.38Zm1.74,6.14H10.9c1.86,0,3-1,3-2.56,0-1.74-1.26-2.5-3.1-2.5a7.63,7.63,0,0,0-1.72.14Z"/><path class="cls-2" d="M18.64,86A3.09,3.09,0,0,0,22,89.39a6.3,6.3,0,0,0,2.68-.5L25,90.15a7.89,7.89,0,0,1-3.24.62c-3,0-4.76-2-4.76-4.9s1.72-5.21,4.54-5.21c3.18,0,4,2.76,4,4.55a4.36,4.36,0,0,1-.06.82Zm5.16-1.27c0-1.1-.46-2.84-2.44-2.84a2.88,2.88,0,0,0-2.7,2.84Z"/><path class="cls-2" d="M26.94,88.77a5,5,0,0,0,2.34.68c1.26,0,1.86-.62,1.86-1.44s-.5-1.29-1.78-1.76c-1.76-.65-2.58-1.58-2.58-2.75,0-1.56,1.28-2.84,3.34-2.84a4.49,4.49,0,0,1,2.36.6l-.42,1.28a3.75,3.75,0,0,0-2-.58c-1,0-1.6.6-1.6,1.32s.56,1.16,1.82,1.66c1.66.62,2.54,1.47,2.54,2.91,0,1.72-1.34,2.92-3.6,2.92a5.52,5.52,0,0,1-2.72-.68Z"/><path class="cls-2" d="M35.58,86a3.09,3.09,0,0,0,3.32,3.36,6.3,6.3,0,0,0,2.68-.5l.32,1.26a7.89,7.89,0,0,1-3.24.62c-3,0-4.76-2-4.76-4.9s1.72-5.21,4.54-5.21c3.18,0,4,2.76,4,4.55a4.36,4.36,0,0,1-.06.82Zm5.16-1.27c0-1.1-.46-2.84-2.44-2.84a2.88,2.88,0,0,0-2.7,2.84Z"/><path class="cls-2" d="M46.24,78.54v2.32h2.52V82.2H46.24v5.22c0,1.21.34,1.89,1.32,1.89a3.29,3.29,0,0,0,1-.12l.08,1.34a4.8,4.8,0,0,1-1.56.24A2.51,2.51,0,0,1,45.2,90a3.78,3.78,0,0,1-.68-2.54V82.2H43V80.86h1.5v-1.8Z"/><path class="cls-2" d="M54,77.26a15.31,15.31,0,0,1,3.18-.3,5.48,5.48,0,0,1,3.68,1A2.84,2.84,0,0,1,62,80.32a3.19,3.19,0,0,1-2.28,3v.06a3.45,3.45,0,0,1,2.78,3.37,3.54,3.54,0,0,1-1.16,2.7c-.92.86-2.44,1.26-4.64,1.26a20.34,20.34,0,0,1-2.7-.16Zm1.74,5.52h1.58c1.82,0,2.9-1,2.9-2.28,0-1.56-1.18-2.2-2.94-2.2a7.46,7.46,0,0,0-1.54.12Zm0,6.45a9.46,9.46,0,0,0,1.46.08c1.8,0,3.46-.66,3.46-2.62s-1.58-2.6-3.48-2.6H55.78Z"/><path class="cls-2" d="M72.42,87.89c0,1,0,1.9.08,2.66H70.94L70.84,89h0a3.62,3.62,0,0,1-3.2,1.8c-1.52,0-3.34-.86-3.34-4.24V80.86H66v5.35c0,1.84.58,3.1,2.16,3.1a2.53,2.53,0,0,0,2.32-1.62,2.41,2.41,0,0,0,.16-.9V80.86h1.76Z"/><path class="cls-2" d="M77,78.54v2.32h2.52V82.2H77v5.22c0,1.21.34,1.89,1.32,1.89a3.29,3.29,0,0,0,1-.12l.08,1.34a4.8,4.8,0,0,1-1.56.24,2.51,2.51,0,0,1-1.9-.74,3.78,3.78,0,0,1-.68-2.54V82.2h-1.5V80.86h1.5v-1.8Z"/><path class="cls-2" d="M83.08,78.54v2.32H85.6V82.2H83.08v5.22c0,1.21.34,1.89,1.32,1.89a3.29,3.29,0,0,0,1-.12l.08,1.34a4.8,4.8,0,0,1-1.56.24A2.51,2.51,0,0,1,82,90a3.78,3.78,0,0,1-.68-2.54V82.2h-1.5V80.86h1.5v-1.8Z"/><path class="cls-2" d="M95.72,85.63a4.74,4.74,0,0,1-4.82,5.14c-2.6,0-4.64-1.92-4.64-5,0-3.23,2.14-5.13,4.8-5.13S95.72,82.68,95.72,85.63Zm-7.66.09c0,2.13,1.2,3.73,2.92,3.73s2.94-1.58,2.94-3.77c0-1.63-.82-3.7-2.9-3.7S88.06,83.9,88.06,85.72Z"/><path class="cls-2" d="M97.44,83.48c0-1,0-1.82-.08-2.62h1.56l.1,1.6h0a3.58,3.58,0,0,1,3.2-1.8c1.34,0,3.42.8,3.42,4.13v5.76h-1.76V85c0-1.56-.58-2.86-2.24-2.86a2.54,2.54,0,0,0-2.36,1.8,2.57,2.57,0,0,0-.12.82v5.83H97.44Z"/></svg>