<svg id="Layer_1" data-name="Layer 1" xmlns="http://www.w3.org/2000/svg" viewBox="0 0 104.39 98.49"><defs><style>.cls-1{fill:none;stroke:#fff;stroke-miterlimit:10;stroke-width:5px;}.cls-2{fill:#fff;}</style></defs><rect class="cls-1" x="24.75" y="7.2" width="53.26" height="53.26" rx="8.88"/><path class="cls-2" d="M56.4,19.32H45.83a1.75,1.75,0,0,0-1.1.51c-.47.39-.4.52-.4.52L44.2,28s.63,1.79,2,1.74S48,27.88,48,27.88V23.43l6.34-.13-11.63,18H35.92a2.4,2.4,0,0,0-2.11,2.41,2.84,2.84,0,0,0,2,2.77H45.1l5.31-7.45L57,43.13l.25,10.57s.1,1.78,2.46,1.66,2.47-1.71,2.47-1.71V41.27a2.8,2.8,0,0,0-.4-1c-.35-.58-6.14-3.93-6.14-3.93l1.91-3,4.18,2.46a1.94,1.94,0,0,0,2.31-.75,1.67,1.67,0,0,0,0-2.27l-4.43-2.92,2.82-4.63s.35-.32-.1-1.66l-.45-1.33Z"/><circle class="cls-2" cx="62.74" cy="16.45" r="5.04"/><path class="cls-2" d="M34.57,48.72a10.12,10.12,0,0,1,1.67-.14,2.78,2.78,0,0,1,1.94.55,1.72,1.72,0,0,1,.53,1.29,1.77,1.77,0,0,1-1.26,1.71v0a1.69,1.69,0,0,1,1,1.36A10.73,10.73,0,0,0,39,55.37h-.9a8.45,8.45,0,0,1-.44-1.61c-.2-.93-.57-1.28-1.35-1.31h-.82v2.92h-.87Zm.87,3.07h.88c.93,0,1.52-.51,1.52-1.28s-.63-1.25-1.54-1.25a3.82,3.82,0,0,0-.86.07Z"/><path class="cls-2" d="M44,54c0,.51,0,1,0,1.33h-.78l0-.79h0a1.81,1.81,0,0,1-1.6.9c-.75,0-1.66-.43-1.66-2.12V50.53h.88V53.2c0,.92.29,1.55,1.07,1.55A1.27,1.27,0,0,0,43,53.94a1.21,1.21,0,0,0,.08-.45v-3H44Z"/><path class="cls-2" d="M45.43,51.84c0-.51,0-.91,0-1.31h.78l0,.8h0a1.76,1.76,0,0,1,1.59-.9c.67,0,1.71.4,1.71,2.06v2.88h-.88V52.58c0-.78-.29-1.43-1.12-1.43a1.28,1.28,0,0,0-1.18.9,1.27,1.27,0,0,0-.06.41v2.91h-.87Z"/><path class="cls-2" d="M9.9,77a20.25,20.25,0,0,1,3.34-.28,5.58,5.58,0,0,1,3.9,1.1,3.44,3.44,0,0,1,1.06,2.58,3.54,3.54,0,0,1-2.52,3.42v.06a3.38,3.38,0,0,1,2,2.72,21.45,21.45,0,0,0,1,3.7h-1.8A16.9,16.9,0,0,1,16,87.06c-.4-1.86-1.14-2.56-2.72-2.62H11.64v5.84H9.9Zm1.74,6.14h1.78c1.86,0,3-1,3-2.56,0-1.74-1.26-2.5-3.1-2.5a7.63,7.63,0,0,0-1.72.14Z"/><path class="cls-2" d="M28.2,87.62c0,1,0,1.9.08,2.66H26.72l-.1-1.58h0a3.62,3.62,0,0,1-3.2,1.8c-1.52,0-3.34-.86-3.34-4.24V80.6H21.8v5.34c0,1.84.58,3.1,2.16,3.1a2.53,2.53,0,0,0,2.32-1.62,2.41,2.41,0,0,0,.16-.9V80.6H28.2Z"/><path class="cls-2" d="M30.62,83.22c0-1,0-1.82-.08-2.62H32.1l.1,1.6h0a3.58,3.58,0,0,1,3.2-1.8c1.34,0,3.42.8,3.42,4.12v5.76H37.1V84.7c0-1.56-.58-2.86-2.24-2.86a2.58,2.58,0,0,0-2.48,2.62v5.82H30.62Z"/><path class="cls-2" d="M45,77a15.31,15.31,0,0,1,3.18-.3,5.48,5.48,0,0,1,3.68,1A2.84,2.84,0,0,1,53,80.06a3.19,3.19,0,0,1-2.28,3v.06a3.43,3.43,0,0,1,2.78,3.36,3.54,3.54,0,0,1-1.16,2.7c-.92.86-2.44,1.26-4.64,1.26a20.34,20.34,0,0,1-2.7-.16Zm1.74,5.52h1.58c1.82,0,2.9-1,2.9-2.28,0-1.56-1.18-2.2-2.94-2.2a7.46,7.46,0,0,0-1.54.12Zm0,6.44a9.46,9.46,0,0,0,1.46.08c1.8,0,3.46-.66,3.46-2.62s-1.58-2.6-3.48-2.6H46.76Z"/><path class="cls-2" d="M63.4,87.62c0,1,0,1.9.08,2.66H61.92l-.1-1.58h0a3.62,3.62,0,0,1-3.2,1.8c-1.52,0-3.34-.86-3.34-4.24V80.6H57v5.34c0,1.84.58,3.1,2.16,3.1a2.53,2.53,0,0,0,2.32-1.62,2.41,2.41,0,0,0,.16-.9V80.6H63.4Z"/><path class="cls-2" d="M67.94,78.28V80.6h2.52v1.34H67.94v5.22c0,1.2.34,1.88,1.32,1.88a3.29,3.29,0,0,0,1-.12l.08,1.34a4.8,4.8,0,0,1-1.56.24,2.51,2.51,0,0,1-1.9-.74,3.78,3.78,0,0,1-.68-2.54V81.94h-1.5V80.6h1.5V78.8Z"/><path class="cls-2" d="M74.06,78.28V80.6h2.52v1.34H74.06v5.22c0,1.2.34,1.88,1.32,1.88a3.29,3.29,0,0,0,1-.12l.08,1.34a4.8,4.8,0,0,1-1.56.24,2.51,2.51,0,0,1-1.9-.74,3.78,3.78,0,0,1-.68-2.54V81.94h-1.5V80.6h1.5V78.8Z"/><path class="cls-2" d="M86.7,85.36a4.74,4.74,0,0,1-4.82,5.14c-2.6,0-4.64-1.92-4.64-5,0-3.22,2.14-5.12,4.8-5.12S86.7,82.42,86.7,85.36Zm-7.66.1c0,2.12,1.2,3.72,2.92,3.72s2.94-1.58,2.94-3.76c0-1.64-.82-3.7-2.9-3.7S79,83.64,79,85.46Z"/><path class="cls-2" d="M88.42,83.22c0-1,0-1.82-.08-2.62H89.9l.1,1.6h0a3.58,3.58,0,0,1,3.2-1.8c1.34,0,3.42.8,3.42,4.12v5.76H94.9V84.7c0-1.56-.58-2.86-2.24-2.86a2.58,2.58,0,0,0-2.48,2.62v5.82H88.42Z"/></svg>