<svg id="Layer_1" data-name="Layer 1" xmlns="http://www.w3.org/2000/svg" viewBox="0 0 137.81 122.97"><defs><style>.cls-1,.cls-2{fill:none;stroke:#fff;stroke-miterlimit:10;}.cls-1{stroke-width:1.65px;}.cls-2{stroke-width:2.2px;}.cls-3{fill:#fff;}</style></defs><rect class="cls-1" x="44.31" y="32.53" width="2.95" height="31.22"/><rect class="cls-1" x="58.84" y="45.8" width="2.95" height="17.95"/><rect class="cls-1" x="90.41" y="31.3" width="2.95" height="17.95"/><rect class="cls-1" x="90.41" y="52.69" width="2.95" height="11.06"/><path class="cls-2" d="M47.22,34.08S54,33,61.83,37.63,67.48,43.34,77,51.46a16.33,16.33,0,0,0,8.18,3.38"/><polygon class="cls-3" points="83.94 57.96 89.85 55.08 84.41 51.4 83.94 57.96"/><path class="cls-2" d="M47.14,43.84s12.4.25,19.3-3.82c9.1-5.35,15.12-6.88,18.78-7.12"/><polygon class="cls-3" points="83.92 36.22 89.92 33.51 84.57 29.67 83.92 36.22"/><line class="cls-2" x1="62.52" y1="61.05" x2="85.33" y2="61.36"/><polygon class="cls-3" points="84.33 64.64 90.07 61.43 84.42 58.06 84.33 64.64"/><path class="cls-2" d="M62.59,53.67s6.56-.32,13-6.64C78,44.58,82,43.81,85.12,43.61"/><polygon class="cls-3" points="84.13 46.96 89.85 43.71 84.19 40.38 84.13 46.96"/><path class="cls-3" d="M10.77,86a5.9,5.9,0,0,0,3.1.88c1.78,0,2.82-.94,2.82-2.31s-.72-2-2.54-2.66c-2.2-.8-3.56-2-3.56-3.84,0-2.1,1.74-3.66,4.36-3.66a6,6,0,0,1,3,.66l-.48,1.42a5,5,0,0,0-2.54-.64c-1.84,0-2.54,1.1-2.54,2,0,1.26.82,1.88,2.68,2.6,2.28.88,3.42,2,3.42,4s-1.52,3.9-4.7,3.9a7,7,0,0,1-3.44-.88Z"/><path class="cls-3" d="M27.45,85.84a16.24,16.24,0,0,0,.14,2.32H26l-.14-1.22h-.06a3.61,3.61,0,0,1-3,1.44,2.76,2.76,0,0,1-3-2.78C19.89,83.25,22,82,25.71,82v-.2a2,2,0,0,0-2.2-2.22,4.66,4.66,0,0,0-2.54.72l-.4-1.18a6.27,6.27,0,0,1,3.2-.84c3,0,3.68,2,3.68,3.94Zm-1.7-2.63c-1.92,0-4.1.31-4.1,2.19a1.54,1.54,0,0,0,1.64,1.68,2.44,2.44,0,0,0,2.38-1.62,2,2,0,0,0,.08-.56Z"/><path class="cls-3" d="M30.09,81.09c0-1,0-1.82-.08-2.62h1.56l.1,1.6h0a3.58,3.58,0,0,1,3.2-1.8c1.34,0,3.42.8,3.42,4.13v5.76H36.57V82.57c0-1.56-.58-2.86-2.24-2.86A2.54,2.54,0,0,0,32,81.51a2.57,2.57,0,0,0-.12.82v5.83H30.09Z"/><path class="cls-3" d="M42.73,82.91h0c.24-.34.56-.76.84-1.1l2.86-3.34h2.1l-3.72,4,4.26,5.71H47l-3.32-4.64-.9,1v3.64H41V74h1.74Z"/><path class="cls-3" d="M51.15,83.64A3.09,3.09,0,0,0,54.47,87a6.3,6.3,0,0,0,2.68-.5l.32,1.26a7.89,7.89,0,0,1-3.24.62c-3,0-4.76-2-4.76-4.9s1.72-5.21,4.54-5.21c3.18,0,4,2.76,4,4.55a4.36,4.36,0,0,1-.06.82Zm5.16-1.27c0-1.1-.46-2.84-2.44-2.84a2.88,2.88,0,0,0-2.7,2.84Z"/><path class="cls-3" d="M60.63,78.47l2.1,5.72c.24.65.48,1.41.64,2h0c.18-.58.38-1.32.62-2L66,78.47h1.86l-2.64,6.91c-1.26,3.32-2.12,5-3.32,6.06a5,5,0,0,1-2.16,1.12l-.44-1.46a4.66,4.66,0,0,0,1.54-.86,5.56,5.56,0,0,0,1.48-2,1.26,1.26,0,0,0,.14-.42,1.22,1.22,0,0,0-.14-.46l-3.56-8.93Z"/><path class="cls-3" d="M82.71,87.74a8.56,8.56,0,0,1-3.56.64c-3.8,0-6.64-2.4-6.64-6.85a6.7,6.7,0,0,1,7-7.08,7.3,7.3,0,0,1,3.2.6l-.44,1.42a6.17,6.17,0,0,0-2.7-.56c-3.16,0-5.26,2-5.26,5.56,0,3.33,1.9,5.43,5.16,5.43a7,7,0,0,0,2.86-.56Z"/><path class="cls-3" d="M84.65,74h1.76V80h0a3.31,3.31,0,0,1,1.26-1.26,3.61,3.61,0,0,1,1.8-.48c1.3,0,3.38.8,3.38,4.13v5.76H91.13V82.59c0-1.56-.58-2.86-2.24-2.86a2.56,2.56,0,0,0-2.36,1.74,2.3,2.3,0,0,0-.12.85v5.84H84.65Z"/><path class="cls-3" d="M102.35,85.84a16.24,16.24,0,0,0,.14,2.32h-1.58l-.14-1.22h-.06a3.61,3.61,0,0,1-3,1.44,2.76,2.76,0,0,1-3-2.78c0-2.35,2.08-3.63,5.82-3.61v-.2a2,2,0,0,0-2.2-2.22,4.66,4.66,0,0,0-2.54.72l-.4-1.18a6.27,6.27,0,0,1,3.2-.84c3,0,3.68,2,3.68,3.94Zm-1.7-2.63c-1.92,0-4.1.31-4.1,2.19a1.54,1.54,0,0,0,1.64,1.68,2.44,2.44,0,0,0,2.38-1.62,2,2,0,0,0,.08-.56Z"/><path class="cls-3" d="M105,81.49c0-1.14,0-2.12-.08-3h1.54l.08,1.92h.06a2.93,2.93,0,0,1,2.7-2.12,3.58,3.58,0,0,1,.48,0V80a2.74,2.74,0,0,0-.6,0,2.45,2.45,0,0,0-2.36,2.24,5.27,5.27,0,0,0-.06.82v5.17H105Z"/><path class="cls-3" d="M113.93,76.15v2.32h2.52v1.34h-2.52V85c0,1.21.34,1.89,1.32,1.89a3.29,3.29,0,0,0,1-.12l.08,1.34a4.8,4.8,0,0,1-1.56.24,2.51,2.51,0,0,1-1.9-.74,3.78,3.78,0,0,1-.68-2.54V79.81h-1.5V78.47h1.5v-1.8Z"/><path class="cls-3" d="M118,86.38a5,5,0,0,0,2.34.68c1.26,0,1.86-.62,1.86-1.45s-.5-1.28-1.78-1.75c-1.76-.65-2.58-1.58-2.58-2.75,0-1.56,1.28-2.84,3.34-2.84a4.49,4.49,0,0,1,2.36.6l-.42,1.28a3.75,3.75,0,0,0-2-.58c-1,0-1.6.6-1.6,1.32s.56,1.16,1.82,1.66c1.66.62,2.54,1.47,2.54,2.91,0,1.72-1.34,2.92-3.6,2.92a5.52,5.52,0,0,1-2.72-.68Z"/></svg>