<svg id="Layer_1" data-name="Layer 1" xmlns="http://www.w3.org/2000/svg" viewBox="0 0 102.85 88.15"><defs><style>.cls-1{fill:#fff;}.cls-2{fill:none;}</style></defs><path class="cls-1" d="M52.09,31.22H28.45a6.16,6.16,0,0,1-1-.06,1.62,1.62,0,0,1,0-3.19,2.71,2.71,0,0,1,.56,0H49.13v-18H28.21a3.8,3.8,0,0,1-.82-.08A1.57,1.57,0,0,1,26.16,8.1a1.51,1.51,0,0,1,1.43-1.43c1.56,0,3.12,0,4.69,0q18.9,0,37.81,0A1.86,1.86,0,0,1,72.15,8.7c0,6.86,0,13.72,0,20.58a1.69,1.69,0,0,1-1.91,1.94c-2.06,0-4.12,0-6.18,0a1.37,1.37,0,0,1-.81-.32C61.15,29,59.1,27.16,57,25.32a3.24,3.24,0,0,0-5.39,1.8,8.84,8.84,0,0,0,.17,2.44C51.86,30.08,52,30.6,52.09,31.22Zm8.56-15.06c-1.28,0-2.57,0-3.85,0a1,1,0,0,0-.75.38,1,1,0,0,0,.18.81C57.45,18.91,58.7,20.44,60,22c.51.63.84.64,1.34,0,1.23-1.52,2.47-3,3.68-4.57a1.19,1.19,0,0,0,.24-.86c-.08-.4-.5-.39-.85-.39Z"/><path class="cls-1" d="M62.38,37.64,64.93,41c.45.6.43.71-.18,1.13l-2,1.34c-.51.34-.67.31-1-.22l-2-3.57-.33-.56c-.6.6-1.15,1.18-1.73,1.72a3,3,0,0,1-.68.38,3.28,3.28,0,0,1-.37-.72Q55.51,34.27,54.44,28a.76.76,0,0,1,.17-.61.69.69,0,0,1,.62.14q4.88,4.35,9.71,8.72a.72.72,0,0,1,.25.56.79.79,0,0,1-.5.35C64,37.35,63.22,37.48,62.38,37.64Z"/><path class="cls-2" d="M60.65,16.16h3.71c.35,0,.77,0,.85.39a1.19,1.19,0,0,1-.24.86C63.76,19,62.52,20.46,61.29,22c-.5.63-.83.62-1.34,0-1.25-1.53-2.5-3.06-3.72-4.61a1,1,0,0,1-.18-.81,1,1,0,0,1,.75-.38C58.08,16.14,59.37,16.16,60.65,16.16Z"/><path class="cls-1" d="M8.34,65.3a5.9,5.9,0,0,0,3.1.88c1.78,0,2.82-.94,2.82-2.3s-.72-2-2.54-2.67c-2.2-.8-3.56-2-3.56-3.84,0-2.1,1.74-3.66,4.36-3.66a6,6,0,0,1,3,.66L15,55.79a5,5,0,0,0-2.54-.64c-1.84,0-2.54,1.1-2.54,2,0,1.26.82,1.88,2.68,2.6,2.28.88,3.42,2,3.42,4s-1.52,3.9-4.7,3.9a7,7,0,0,1-3.44-.88Z"/><path class="cls-1" d="M19,62.89a3.09,3.09,0,0,0,3.32,3.37,6.3,6.3,0,0,0,2.68-.5L25.28,67a7.89,7.89,0,0,1-3.24.62c-3,0-4.76-2-4.76-4.91s1.72-5.2,4.54-5.2c3.18,0,4,2.76,4,4.54a4.29,4.29,0,0,1-.06.82Zm5.16-1.26c0-1.1-.46-2.84-2.44-2.84A2.88,2.88,0,0,0,19,61.63Z"/><path class="cls-1" d="M27.5,53.21h1.76V67.42H27.5Z"/><path class="cls-1" d="M32.7,62.89A3.09,3.09,0,0,0,36,66.26a6.3,6.3,0,0,0,2.68-.5L39,67a7.89,7.89,0,0,1-3.24.62c-3,0-4.76-2-4.76-4.91s1.72-5.2,4.54-5.2c3.18,0,4,2.76,4,4.54a4.29,4.29,0,0,1-.06.82Zm5.16-1.26c0-1.1-.46-2.84-2.44-2.84a2.88,2.88,0,0,0-2.7,2.84Z"/><path class="cls-1" d="M48.14,67.08a6.8,6.8,0,0,1-2.78.56,4.6,4.6,0,0,1-4.82-5,4.93,4.93,0,0,1,5.2-5.16,5.54,5.54,0,0,1,2.44.52l-.4,1.34a4.31,4.31,0,0,0-2-.46,3.36,3.36,0,0,0-3.42,3.66,3.32,3.32,0,0,0,3.36,3.63,5,5,0,0,0,2.16-.46Z"/><path class="cls-1" d="M52.08,55.41v2.32H54.6v1.34H52.08V64.3c0,1.2.34,1.88,1.32,1.88a3.29,3.29,0,0,0,1-.12l.08,1.34a4.8,4.8,0,0,1-1.56.24A2.51,2.51,0,0,1,51,66.9a3.78,3.78,0,0,1-.68-2.54V59.07h-1.5V57.73h1.5v-1.8Z"/><path class="cls-1" d="M61.62,55.41h-4.1V53.93h10v1.48H63.38v12H61.62Z"/><path class="cls-1" d="M68,62.89a3.09,3.09,0,0,0,3.32,3.37,6.3,6.3,0,0,0,2.68-.5L74.32,67a7.89,7.89,0,0,1-3.24.62c-3,0-4.76-2-4.76-4.91s1.72-5.2,4.54-5.2c3.18,0,4,2.76,4,4.54a4.29,4.29,0,0,1-.06.82Zm5.16-1.26c0-1.1-.46-2.84-2.44-2.84A2.88,2.88,0,0,0,68,61.63Z"/><path class="cls-1" d="M83.34,65.1a16.24,16.24,0,0,0,.14,2.32H81.9l-.14-1.22H81.7a3.61,3.61,0,0,1-3,1.44,2.76,2.76,0,0,1-3-2.78c0-2.35,2.08-3.63,5.82-3.61v-.2a2,2,0,0,0-2.2-2.22,4.66,4.66,0,0,0-2.54.72l-.4-1.18a6.27,6.27,0,0,1,3.2-.84c3,0,3.68,2,3.68,3.94Zm-1.7-2.63c-1.92,0-4.1.3-4.1,2.19a1.54,1.54,0,0,0,1.64,1.68,2.44,2.44,0,0,0,2.38-1.62,2,2,0,0,0,.08-.56Z"/><path class="cls-1" d="M85.68,60.35c0-1,0-1.82-.08-2.62h1.54l.08,1.58h.06a3.35,3.35,0,0,1,3.06-1.78,2.85,2.85,0,0,1,2.72,1.94h0a3.82,3.82,0,0,1,1.1-1.26,3.25,3.25,0,0,1,2.12-.68c1.3,0,3.2.84,3.2,4.2v5.69H97.8V62c0-1.88-.7-3-2.1-3a2.31,2.31,0,0,0-2.1,1.58,3,3,0,0,0-.14.88v6H91.74V61.61c0-1.54-.68-2.64-2-2.64a2.43,2.43,0,0,0-2.18,1.76,2.35,2.35,0,0,0-.14.86v5.83H85.68Z"/><path class="cls-1" d="M36.67,71.63a22.33,22.33,0,0,1,3.7-.3A7.81,7.81,0,0,1,45.83,73a6.15,6.15,0,0,1,1.92,4.84,7.24,7.24,0,0,1-1.94,5.25c-1.28,1.26-3.36,1.94-6,1.94a27.82,27.82,0,0,1-3.16-.16Zm1.74,11.93a14.47,14.47,0,0,0,1.76.08c3.74,0,5.74-2.09,5.74-5.73,0-3.18-1.78-5.2-5.46-5.2a9.89,9.89,0,0,0-2,.18Z"/><path class="cls-1" d="M56.23,82.6a16.24,16.24,0,0,0,.14,2.32H54.79l-.14-1.22h-.06a3.61,3.61,0,0,1-3,1.44,2.76,2.76,0,0,1-3-2.78c0-2.35,2.08-3.63,5.82-3.61v-.2a2,2,0,0,0-2.2-2.22,4.66,4.66,0,0,0-2.54.72l-.4-1.18a6.27,6.27,0,0,1,3.2-.84c3,0,3.68,2,3.68,3.94ZM54.53,80c-1.92,0-4.1.3-4.1,2.19a1.54,1.54,0,0,0,1.64,1.68,2.44,2.44,0,0,0,2.38-1.62,2,2,0,0,0,.08-.56Z"/><path class="cls-1" d="M60.61,72.91v2.32h2.52v1.34H60.61V81.8c0,1.2.34,1.88,1.32,1.88a3.29,3.29,0,0,0,1-.12L63,84.9a4.8,4.8,0,0,1-1.56.24,2.51,2.51,0,0,1-1.9-.74,3.78,3.78,0,0,1-.68-2.54V76.57h-1.5V75.23h1.5v-1.8Z"/><path class="cls-1" d="M71.41,82.6a16.24,16.24,0,0,0,.14,2.32H70l-.14-1.22h-.06a3.61,3.61,0,0,1-3,1.44,2.76,2.76,0,0,1-3-2.78c0-2.35,2.08-3.63,5.82-3.61v-.2a2,2,0,0,0-2.2-2.22,4.66,4.66,0,0,0-2.54.72l-.4-1.18a6.27,6.27,0,0,1,3.2-.84c3,0,3.68,2,3.68,3.94ZM69.71,80c-1.92,0-4.1.3-4.1,2.19a1.54,1.54,0,0,0,1.64,1.68,2.44,2.44,0,0,0,2.38-1.62,2,2,0,0,0,.08-.56Z"/></svg>