<svg id="Layer_1" data-name="Layer 1" xmlns="http://www.w3.org/2000/svg" viewBox="0 0 103.32 136.25"><defs><style>.cls-1,.cls-4{fill:#fff;}.cls-1,.cls-3{stroke:#9aa5af;stroke-miterlimit:10;}.cls-1{stroke-width:1.25px;}.cls-2{fill:#9aa5af;}.cls-3{fill:none;stroke-width:2.25px;}</style></defs><path class="cls-1" d="M92.6,109.2h-77V7.44h77Z"/><polygon class="cls-2" points="24.84 21.53 24.84 32.94 37.1 27.24 24.84 21.53"/><path class="cls-2" d="M51.89,59.19,52,58.5l1.22-1c2.17-1.84,3.45-3.1,3.45-4.44a1.17,1.17,0,0,0-1.27-1.24,2.93,2.93,0,0,0-1.67.59l-.28-.75a3.94,3.94,0,0,1,2.17-.72,1.91,1.91,0,0,1,2.12,2c0,1.73-1.57,3.23-3.51,4.83l-.69.53v0H57l-.17.89Z"/><path class="cls-2" d="M58,59.19l.12-.69,1.22-1c2.17-1.84,3.45-3.1,3.45-4.44a1.17,1.17,0,0,0-1.27-1.24,2.93,2.93,0,0,0-1.67.59l-.28-.75a3.94,3.94,0,0,1,2.17-.72,1.91,1.91,0,0,1,2.12,2c0,1.73-1.57,3.23-3.51,4.83l-.69.53v0h3.41l-.17.89Z"/><path class="cls-2" d="M70.17,52.76a2.35,2.35,0,0,1-1.59,2.11v0a2.16,2.16,0,0,1,1.2,1.93,2.64,2.64,0,0,1-2.85,2.48c-1.53,0-2.44-.86-2.44-2a2.68,2.68,0,0,1,1.9-2.44v0a1.9,1.9,0,0,1-.89-1.6,2.44,2.44,0,0,1,2.6-2.3A1.85,1.85,0,0,1,70.17,52.76ZM68.7,56.92c0-.81-.46-1.31-1.42-1.64a2.06,2.06,0,0,0-1.72,1.91A1.32,1.32,0,0,0,67,58.54,1.61,1.61,0,0,0,68.7,56.92Zm-2.19-3.77c0,.64.39,1.09,1.19,1.38a1.87,1.87,0,0,0,1.45-1.64A1.08,1.08,0,0,0,68,51.71,1.46,1.46,0,0,0,66.51,53.15Z"/><path class="cls-2" d="M70.6,58.59a.8.8,0,0,1,.79-.84.69.69,0,0,1,.7.75.79.79,0,0,1-.8.82A.69.69,0,0,1,70.6,58.59Z"/><path class="cls-2" d="M78.7,51.83a4.47,4.47,0,0,0-.75.06,4.26,4.26,0,0,0-3.21,3h0a2.63,2.63,0,0,1,2-1,2,2,0,0,1,2,2.2,3.21,3.21,0,0,1-3,3.28c-1.55,0-2.3-1.12-2.3-2.66a6.17,6.17,0,0,1,2-4.48A5.15,5.15,0,0,1,78.15,51a3.12,3.12,0,0,1,.7-.05Zm-1.06,4.28c0-1-.48-1.46-1.29-1.46a2.13,2.13,0,0,0-1.71,1.11.88.88,0,0,0-.14.4,3,3,0,0,0-.06.64c0,1,.46,1.69,1.35,1.69C76.88,58.49,77.64,57.26,77.64,56.11Z"/><path class="cls-2" d="M85.66,51.06l-.14.73q-2.33,3.69-4.71,7.4H79.66Q82,55.59,84.35,52v0H80.63l.17-.89Z"/><polyline class="cls-3" points="48.73 14.5 38.23 14.5 38.23 101.42 48.73 101.42"/><line class="cls-3" x1="37.69" y1="39.09" x2="42.94" y2="39.09"/><line class="cls-3" x1="37.69" y1="26.84" x2="42.94" y2="26.84"/><line class="cls-3" x1="37.69" y1="70.46" x2="42.94" y2="70.46"/><line class="cls-3" x1="37.69" y1="54.78" x2="42.94" y2="54.78"/><line class="cls-3" x1="37.69" y1="86.15" x2="42.94" y2="86.15"/><path class="cls-4" d="M33.88,127.31a5.9,5.9,0,0,0,3.1.88c1.78,0,2.82-.94,2.82-2.3s-.72-2-2.54-2.66c-2.2-.8-3.56-2-3.56-3.84,0-2.1,1.74-3.66,4.36-3.66a6,6,0,0,1,3,.66l-.48,1.42a5,5,0,0,0-2.54-.64c-1.84,0-2.54,1.1-2.54,2,0,1.26.82,1.88,2.68,2.6,2.28.88,3.42,2,3.42,4s-1.52,3.9-4.7,3.9a7,7,0,0,1-3.44-.88Z"/><path class="cls-4" d="M46,117.43v2.32h2.52v1.34H46v5.22c0,1.2.34,1.88,1.32,1.88a3.29,3.29,0,0,0,1-.12l.08,1.34a4.8,4.8,0,0,1-1.56.24,2.51,2.51,0,0,1-1.9-.74,3.78,3.78,0,0,1-.68-2.54v-5.28h-1.5v-1.34h1.5V118Z"/><path class="cls-4" d="M59.1,124.51a4.74,4.74,0,0,1-4.82,5.14c-2.6,0-4.64-1.92-4.64-5,0-3.22,2.14-5.12,4.8-5.12S59.1,121.57,59.1,124.51Zm-7.66.1c0,2.12,1.2,3.72,2.92,3.72s2.94-1.58,2.94-3.76c0-1.64-.82-3.7-2.9-3.7S51.44,122.79,51.44,124.61Z"/><path class="cls-4" d="M68.22,129.09a6.8,6.8,0,0,1-2.78.56,4.6,4.6,0,0,1-4.82-4.94,4.93,4.93,0,0,1,5.2-5.16,5.54,5.54,0,0,1,2.44.52l-.4,1.34a4.31,4.31,0,0,0-2-.46,3.36,3.36,0,0,0-3.42,3.66,3.32,3.32,0,0,0,3.36,3.62,5,5,0,0,0,2.16-.46Z"/><path class="cls-4" d="M72,124.19h0c.24-.34.56-.76.84-1.1l2.86-3.34h2.1l-3.72,4,4.26,5.7H76.24l-3.32-4.64-.9,1v3.64H70.28v-14.2H72Z"/></svg>