<svg id="Layer_1" data-name="Layer 1" xmlns="http://www.w3.org/2000/svg" viewBox="0 0 102.85 88.15"><defs><style>.cls-1{fill:#fff;}.cls-2{fill:none;stroke:#fff;stroke-miterlimit:10;stroke-width:1.94px;}</style></defs><path class="cls-1" d="M15.12,58.39H11V56.91H21v1.48H16.88v12H15.12Z"/><path class="cls-1" d="M27.46,68.08a16.24,16.24,0,0,0,.14,2.32H26l-.14-1.22h-.06a3.61,3.61,0,0,1-3,1.44,2.76,2.76,0,0,1-3-2.78c0-2.34,2.08-3.62,5.82-3.6V64a2,2,0,0,0-2.2-2.22,4.66,4.66,0,0,0-2.54.72l-.4-1.18a6.27,6.27,0,0,1,3.2-.84c3,0,3.68,2,3.68,3.94Zm-1.7-2.62c-1.92,0-4.1.3-4.1,2.18a1.54,1.54,0,0,0,1.64,1.68,2.44,2.44,0,0,0,2.38-1.62,2,2,0,0,0,.08-.56Z"/><path class="cls-1" d="M29.8,56.19h1.74v6.08h0a3.59,3.59,0,0,1,3.3-1.76c2.42,0,4.1,2,4.1,4.93,0,3.46-2.2,5.18-4.36,5.18a3.52,3.52,0,0,1-3.26-1.8h0l-.1,1.58h-1.5c0-.66.08-1.64.08-2.5Zm1.74,10.33a2.25,2.25,0,0,0,.08.64,2.7,2.7,0,0,0,2.64,2.06c1.86,0,2.94-1.5,2.94-3.72,0-2-1-3.61-2.9-3.61a2.92,2.92,0,0,0-2.76,2.91Z"/><path class="cls-1" d="M40.68,56.19h1.76V70.4H40.68Z"/><path class="cls-1" d="M45.88,65.88a3.09,3.09,0,0,0,3.32,3.36,6.3,6.3,0,0,0,2.68-.5L52.2,70a7.89,7.89,0,0,1-3.24.62c-3,0-4.76-2-4.76-4.9s1.72-5.21,4.54-5.21c3.18,0,4,2.76,4,4.54a4.34,4.34,0,0,1-.06.83ZM51,64.61c0-1.1-.46-2.84-2.44-2.84a2.88,2.88,0,0,0-2.7,2.84Z"/><path class="cls-1" d="M60.46,70.4,56,56.91h1.9L60,63.55c.56,1.83,1.06,3.47,1.44,5h0c.38-1.56.92-3.26,1.54-5l2.28-6.66H67.2L62.38,70.4Z"/><path class="cls-1" d="M69.74,58a1.05,1.05,0,0,1-1.12,1.08A1,1,0,0,1,67.56,58a1.07,1.07,0,0,1,1.1-1.1A1.06,1.06,0,0,1,69.74,58Zm-2,12.41V60.71h1.76V70.4Z"/><path class="cls-1" d="M72.94,65.88a3.09,3.09,0,0,0,3.32,3.36,6.3,6.3,0,0,0,2.68-.5L79.26,70a7.89,7.89,0,0,1-3.24.62c-3,0-4.76-2-4.76-4.9S73,60.51,75.8,60.51c3.18,0,4,2.76,4,4.54a4.34,4.34,0,0,1-.06.83Zm5.16-1.27c0-1.1-.46-2.84-2.44-2.84A2.88,2.88,0,0,0,73,64.61Z"/><path class="cls-1" d="M82.18,60.71l1.3,4.92c.26,1.09.52,2.09.7,3.09h.06c.22-1,.54-2,.86-3.06l1.58-4.95h1.48l1.5,4.85c.36,1.16.64,2.18.86,3.16h.06a29.11,29.11,0,0,1,.74-3.14l1.38-4.87h1.74L91.32,70.4h-1.6l-1.48-4.62a32.46,32.46,0,0,1-.86-3.19h0a28.82,28.82,0,0,1-.88,3.21L84.9,70.4H83.3l-2.92-9.69Z"/><polygon class="cls-2" points="82.83 46.43 22.05 46.43 22.05 21.83 22.05 11.7 82.83 11.7 82.83 46.43"/><line class="cls-2" x1="82.35" y1="21.83" x2="22.05" y2="21.83"/><line class="cls-2" x1="36.53" y1="22.8" x2="36.53" y2="46.92"/><line class="cls-2" x1="52.93" y1="22.8" x2="52.93" y2="47.4"/><line class="cls-2" x1="68.36" y1="22.8" x2="68.36" y2="47.4"/></svg>