<svg id="Layer_1" data-name="Layer 1" xmlns="http://www.w3.org/2000/svg" viewBox="0 0 127.13 85.25"><defs><style>.cls-1,.cls-2{fill:#fff;}.cls-1{stroke:#9aa5af;stroke-width:2.5px;}.cls-1,.cls-4{stroke-miterlimit:10;}.cls-3{fill:#c6262e;}.cls-4{fill:#231f20;stroke:#fff;stroke-width:1.64px;}</style></defs><path class="cls-1" d="M21.56,59.26l-9-.23A4.44,4.44,0,0,1,8,54.7l.55-15.51a4.54,4.54,0,0,1,4.88-4.08l30,.78A4.46,4.46,0,0,1,48,40.22l-.55,15.51a4.54,4.54,0,0,1-4.88,4.08l-6.78-.18L17.34,63.85Z"/><path class="cls-1" d="M49.73,51.06h8.21a4.13,4.13,0,0,0,4.33-3.89V32.84A4.13,4.13,0,0,0,57.94,29H30.49a4.13,4.13,0,0,0-4.34,3.89V47.17a4.13,4.13,0,0,0,4.34,3.89h6.2L53.45,55.4Z"/><path class="cls-2" d="M74.15,40.61h-4.1V39.13H80v1.48H75.91v12H74.15Z"/><path class="cls-2" d="M88.49,46.29H83.26v4.87h5.85v1.46H81.5V39.13h7.31v1.46H83.26v4.26h5.23Z"/><path class="cls-2" d="M93.55,48.38l-1.41,4.24h-1.8L95,39.13H97l4.6,13.49H99.77l-1.44-4.24ZM98,47l-1.34-3.88c-.31-.88-.5-1.68-.7-2.46h0c-.2.78-.41,1.62-.69,2.44L93.9,47Z"/><path class="cls-2" d="M114.89,46.69c-.1-1.88-.22-4.16-.22-5.82h0c-.48,1.56-1,3.26-1.7,5.12l-2.38,6.55h-1.32L107,46.11c-.65-1.92-1.17-3.64-1.55-5.24h0c0,1.68-.14,3.92-.26,6l-.36,5.79h-1.66l.94-13.49h2.23l2.3,6.52c.56,1.66,1,3.14,1.36,4.55h0c.36-1.37.84-2.85,1.44-4.55l2.4-6.52h2.22l.84,13.49h-1.72Z"/><circle class="cls-3" cx="62.61" cy="24.38" r="10.07"/><path class="cls-4" d="M62.35,20.77h0l-1.49.8-.22-.88,1.87-1h1v8.55H62.35Z"/></svg>