<svg id="Layer_1" data-name="Layer 1" xmlns="http://www.w3.org/2000/svg" viewBox="0 0 114.47 139.51"><defs><style>.cls-1{fill:#184171;}.cls-2,.cls-4{fill:none;stroke:#fff;stroke-miterlimit:10;}.cls-2{stroke-width:7.71px;}.cls-3{fill:#fff;}.cls-4{stroke-width:5px;}</style></defs><line class="cls-1" x1="84.84" y1="23.02" x2="105.36" y2="0.91"/><line class="cls-2" x1="84.84" y1="23.02" x2="99.37" y2="7.37"/><polygon class="cls-3" points="98.5 27.52 97.82 9.04 79.33 9.74 86.89 1.6 105.36 0.91 106.05 19.39 98.5 27.52"/><rect class="cls-4" x="23.66" y="22.73" width="62.11" height="62.11"/><path class="cls-3" d="M74.2,30.78v11.4H73.08a17.88,17.88,0,0,0-2.21-5.67,8.38,8.38,0,0,0-3.32-2.75,10.68,10.68,0,0,0-4.13-.56H60.29V65.68a13.56,13.56,0,0,0,.35,4A3.27,3.27,0,0,0,62,71.13a5.68,5.68,0,0,0,2.84.6h1.4v1.15h-22V71.73h1.39a5.86,5.86,0,0,0,2.95-.65,3,3,0,0,0,1.28-1.49,13.08,13.08,0,0,0,.34-3.91V33.2H47.15Q42.91,33.2,41,35a12,12,0,0,0-3.42,7.18H36.38V30.78Z"/><path class="cls-3" d="M27.4,98.75c0,4.62-2.82,7.1-6.26,7.1s-6.06-2.78-6.06-6.86c0-4.28,2.64-7.09,6.24-7.09S27.4,94.72,27.4,98.75ZM16.92,99c0,2.9,1.56,5.48,4.32,5.48s4.32-2.54,4.32-5.6c0-2.7-1.4-5.51-4.3-5.51S16.92,96,16.92,99Z"/><path class="cls-3" d="M29.6,99.11c0-1.24,0-2.24-.08-3.16h1.56l.1,1.66h0a3.75,3.75,0,0,1,3.44-1.86c2.36,0,4.12,2,4.12,4.9,0,3.48-2.14,5.2-4.42,5.2a3.39,3.39,0,0,1-3-1.52h0v5.26H29.6Zm1.74,2.58a2.72,2.72,0,0,0,2.72,2.78c1.86,0,2.94-1.52,2.94-3.74,0-1.92-1-3.58-2.88-3.58a2.77,2.77,0,0,0-2.66,2.16,2.85,2.85,0,0,0-.12.7Z"/><path class="cls-3" d="M42,101.11a3.09,3.09,0,0,0,3.32,3.36A6.3,6.3,0,0,0,48,104l.32,1.26a7.89,7.89,0,0,1-3.24.62c-3,0-4.76-2-4.76-4.9s1.72-5.2,4.54-5.2c3.18,0,4,2.76,4,4.54a4.29,4.29,0,0,1-.06.82Zm5.16-1.26c0-1.1-.46-2.85-2.44-2.85A2.89,2.89,0,0,0,42,99.85Z"/><path class="cls-3" d="M51,98.57c0-1,0-1.82-.08-2.62h1.56l.1,1.59h0a3.6,3.6,0,0,1,3.2-1.79c1.34,0,3.42.79,3.42,4.12v5.76H57.48v-5.58c0-1.56-.58-2.86-2.24-2.86a2.58,2.58,0,0,0-2.48,2.62v5.82H51Z"/><path class="cls-3" d="M68.14,93.62H64V92.14H74v1.48H69.9v12H68.14Z"/><path class="cls-3" d="M75,101.11a3.09,3.09,0,0,0,3.32,3.36A6.3,6.3,0,0,0,81,104l.32,1.26a7.89,7.89,0,0,1-3.24.62c-3,0-4.76-2-4.76-4.9s1.72-5.2,4.54-5.2c3.18,0,4,2.76,4,4.54a4.29,4.29,0,0,1-.06.82Zm5.16-1.26c0-1.1-.46-2.85-2.44-2.85A2.89,2.89,0,0,0,75,99.85Z"/><path class="cls-3" d="M84.82,96,86.2,98c.38.54.68,1,1,1.56h0c.32-.56.64-1.06,1-1.59l1.34-2h1.92l-3.3,4.68,3.38,5h-2l-1.44-2.18c-.38-.56-.7-1.1-1-1.68h0c-.32.58-.64,1.1-1,1.68l-1.4,2.18H82.7l3.44-4.94L82.86,96Z"/><path class="cls-3" d="M95.64,93.62V96h2.52v1.34H95.64v5.22c0,1.2.34,1.88,1.32,1.88a3.29,3.29,0,0,0,1-.12l.08,1.34a4.8,4.8,0,0,1-1.56.24,2.51,2.51,0,0,1-1.9-.74,3.78,3.78,0,0,1-.68-2.54V97.29h-1.5V96h1.5V94.14Z"/><path class="cls-3" d="M28.47,112.3a20.17,20.17,0,0,1,3.34-.26,5.54,5.54,0,0,1,3.78,1.12A3.7,3.7,0,0,1,36.77,116a4,4,0,0,1-1,2.88,5.62,5.62,0,0,1-4.12,1.48,6,6,0,0,1-1.4-.12v5.4H28.47Zm1.74,6.51a5.84,5.84,0,0,0,1.44.14c2.1,0,3.38-1,3.38-2.87s-1.28-2.66-3.18-2.66a7.3,7.3,0,0,0-1.64.14Z"/><path class="cls-3" d="M47.31,120.71a4.74,4.74,0,0,1-4.82,5.14c-2.6,0-4.64-1.92-4.64-5,0-3.22,2.14-5.12,4.8-5.12S47.31,117.77,47.31,120.71Zm-7.66.1c0,2.12,1.2,3.72,2.92,3.72s2.94-1.58,2.94-3.76c0-1.64-.82-3.7-2.9-3.7S39.65,119,39.65,120.81Z"/><path class="cls-3" d="M49.53,119.11c0-1.24,0-2.24-.08-3.16H51l.1,1.66h0a3.75,3.75,0,0,1,3.44-1.86c2.36,0,4.12,2,4.12,4.9,0,3.48-2.14,5.2-4.42,5.2a3.39,3.39,0,0,1-3-1.52h0v5.26H49.53Zm1.74,2.58A2.72,2.72,0,0,0,54,124.47c1.86,0,2.94-1.52,2.94-3.74,0-1.92-1-3.58-2.88-3.58a2.77,2.77,0,0,0-2.66,2.16,2.85,2.85,0,0,0-.12.7Z"/><path class="cls-3" d="M73.25,123c0,1,0,1.9.08,2.66H71.77l-.1-1.58h0a3.62,3.62,0,0,1-3.2,1.8c-1.52,0-3.34-.86-3.34-4.24V116h1.76v5.34c0,1.84.58,3.1,2.16,3.1a2.53,2.53,0,0,0,2.32-1.62,2.41,2.41,0,0,0,.16-.9V116h1.76Z"/><path class="cls-3" d="M76.17,119.11c0-1.24,0-2.24-.08-3.16h1.56l.1,1.66h0a3.75,3.75,0,0,1,3.44-1.86c2.36,0,4.12,2,4.12,4.9,0,3.48-2.14,5.2-4.42,5.2a3.39,3.39,0,0,1-3-1.52h0v5.26H76.17Zm1.74,2.58a2.72,2.72,0,0,0,2.72,2.78c1.86,0,2.94-1.52,2.94-3.74,0-1.92-1-3.58-2.88-3.58A2.77,2.77,0,0,0,78,119.31a2.85,2.85,0,0,0-.12.7Z"/></svg>