<svg id="Layer_1" data-name="Layer 1" xmlns="http://www.w3.org/2000/svg" viewBox="0 0 100.92 93.91"><defs><style>.cls-1,.cls-2,.cls-5{fill:#fff;}.cls-1,.cls-3,.cls-4,.cls-5{stroke:#fff;stroke-width:2.5px;}.cls-1{stroke-linecap:square;}.cls-1,.cls-3,.cls-5{stroke-miterlimit:10;}.cls-3,.cls-4{fill:none;}.cls-4{stroke-linejoin:round;}.cls-6{opacity:0.25;}.cls-7{fill:#231f20;}</style></defs><line class="cls-1" x1="37.1" y1="30" x2="55.06" y2="30"/><line class="cls-1" x1="37.1" y1="37.78" x2="55.06" y2="37.78"/><line class="cls-1" x1="37.1" y1="45.57" x2="55.06" y2="45.57"/><path class="cls-2" d="M33.55,76.62l-1.4,4.24h-1.8L35,67.38H37l4.6,13.48H39.77l-1.44-4.24ZM38,75.26l-1.34-3.88c-.3-.88-.5-1.68-.7-2.46h0c-.2.78-.4,1.62-.68,2.44l-1.32,3.9Z"/><path class="cls-2" d="M51.65,66.66v11.7c0,.86,0,1.84.08,2.5H50.17l-.08-1.68H50a3.5,3.5,0,0,1-3.26,1.9c-2.34,0-4.16-2-4.16-4.92,0-3.22,2-5.18,4.34-5.18a3.24,3.24,0,0,1,2.92,1.46h0V66.66Zm-1.74,8.46a3.11,3.11,0,0,0-.08-.74,2.59,2.59,0,0,0-2.54-2c-1.82,0-2.9,1.6-2.9,3.72,0,2,1,3.58,2.86,3.58a2.67,2.67,0,0,0,2.58-2.1,3.06,3.06,0,0,0,.08-.76Z"/><path class="cls-2" d="M62.93,66.66v11.7c0,.86,0,1.84.08,2.5H61.45l-.08-1.68h-.06a3.5,3.5,0,0,1-3.26,1.9c-2.34,0-4.16-2-4.16-4.92,0-3.22,2-5.18,4.34-5.18a3.24,3.24,0,0,1,2.92,1.46h0V66.66Zm-1.74,8.46a3.11,3.11,0,0,0-.08-.74,2.59,2.59,0,0,0-2.54-2c-1.82,0-2.9,1.6-2.9,3.72,0,2,1,3.58,2.86,3.58a2.67,2.67,0,0,0,2.58-2.1,3.06,3.06,0,0,0,.08-.76Z"/><polyline class="cls-3" points="58.64 23.7 58.64 53.51 33.52 53.51 33.52 17.98 52.28 17.98"/><polygon class="cls-4" points="58.64 24.05 52.28 24.06 52.28 18.16 58.64 24.05"/><ellipse class="cls-5" cx="57.23" cy="45.57" rx="9.47" ry="9.8"/><g class="cls-6"><path class="cls-7" d="M58.45,39.63v4.92h4.72v2.12H58.45v5H56.24v-5H51.53V44.55h4.71V39.63Z"/></g></svg>