<svg id="Layer_1" data-name="Layer 1" xmlns="http://www.w3.org/2000/svg" viewBox="0 0 54 54"><defs><style>.cls-1{fill:none;stroke:#fff;stroke-miterlimit:10;}.cls-2{fill:#fff;}</style></defs><path class="cls-1" d="M31.29,26.88a5.13,5.13,0,1,1-5.13-5.12A5.13,5.13,0,0,1,31.29,26.88Z"/><line class="cls-1" x1="29.79" y1="30.26" x2="22.23" y2="23.32"/><line class="cls-1" x1="29.54" y1="23.26" x2="22.73" y2="30.45"/><path class="cls-2" d="M15.2,41.07a3.44,3.44,0,0,1-1.43.25,2.51,2.51,0,0,1-2.65-2.73,2.67,2.67,0,0,1,2.81-2.83,2.83,2.83,0,0,1,1.28.24l-.17.57A2.44,2.44,0,0,0,14,36.34a2,2,0,0,0-2.1,2.23,2,2,0,0,0,2.06,2.16,2.89,2.89,0,0,0,1.14-.22Z"/><path class="cls-2" d="M15.86,35.56h.7v5.68h-.7Z"/><path class="cls-2" d="M21.05,39.27a1.89,1.89,0,0,1-1.93,2,1.84,1.84,0,0,1-1.86-2,1.89,1.89,0,0,1,1.92-2A1.83,1.83,0,0,1,21.05,39.27Zm-3.07,0c0,.85.48,1.49,1.17,1.49s1.18-.63,1.18-1.51c0-.65-.33-1.48-1.16-1.48S18,38.58,18,39.31Z"/><path class="cls-2" d="M21.64,40.53a2.09,2.09,0,0,0,.94.27c.5,0,.74-.25.74-.58s-.2-.51-.71-.7c-.71-.26-1-.63-1-1.1a1.19,1.19,0,0,1,1.33-1.13,1.73,1.73,0,0,1,.94.24l-.16.51a1.51,1.51,0,0,0-.79-.23c-.42,0-.64.24-.64.52s.22.47.72.67c.67.25,1,.58,1,1.16s-.54,1.16-1.44,1.16a2.22,2.22,0,0,1-1.09-.27Z"/><path class="cls-2" d="M25.1,39.43a1.23,1.23,0,0,0,1.32,1.34,2.5,2.5,0,0,0,1.07-.2l.13.51a3.21,3.21,0,0,1-1.29.24,1.81,1.81,0,0,1-1.91-2,1.87,1.87,0,0,1,1.82-2.08,1.63,1.63,0,0,1,1.6,1.81,1.37,1.37,0,0,1,0,.33Zm2.06-.5a1,1,0,0,0-1-1.14,1.16,1.16,0,0,0-1.08,1.14Z"/><path class="cls-2" d="M30.73,36.44H29.09v-.59h4v.59H31.43v4.8h-.7Z"/><path class="cls-2" d="M34.14,36.28a.44.44,0,0,1-.87,0,.43.43,0,0,1,.44-.44A.42.42,0,0,1,34.14,36.28Zm-.78,5V37.37h.7v3.87Z"/><path class="cls-2" d="M35,35.56h.7v5.68H35Z"/><path class="cls-2" d="M37.11,39.43a1.24,1.24,0,0,0,1.33,1.34,2.57,2.57,0,0,0,1.07-.2l.13.51a3.23,3.23,0,0,1-1.3.24,1.8,1.8,0,0,1-1.9-2,1.87,1.87,0,0,1,1.81-2.08,1.62,1.62,0,0,1,1.6,1.81,1.47,1.47,0,0,1,0,.33Zm2.06-.5a1,1,0,0,0-1-1.14,1.16,1.16,0,0,0-1.08,1.14Z"/></svg>