<svg id="Layer_1" data-name="Layer 1" xmlns="http://www.w3.org/2000/svg" viewBox="0 0 108.47 109.01"><defs><style>.cls-1{fill:#fff;}.cls-2{fill:#f1f2f2;}</style></defs><path class="cls-1" d="M29.43,54.29a6.58,6.58,0,0,1-2.13,4.59,2.66,2.66,0,0,1-1.95.74,3.18,3.18,0,0,1-1.87-1,6.38,6.38,0,0,1-1.79-4.77,3.88,3.88,0,0,1,7.74.47.89.89,0,0,0,1.78,0,5.76,5.76,0,0,0-3-5,5.66,5.66,0,0,0-8.29,5.61,8.42,8.42,0,0,0,2.61,5.24,4.77,4.77,0,0,0,2.92,1.27,4.57,4.57,0,0,0,3-1.2,8.14,8.14,0,0,0,2.73-5.93.89.89,0,0,0-1.78,0Z"/><path class="cls-1" d="M34.22,67.11v3.81l.89-.89H16l.89.89V68.77a13.12,13.12,0,0,1,.06-2.35,4.06,4.06,0,0,1,2.29-3,6.13,6.13,0,0,1,2.8-.36l-.77-.44,3.53,4.82a.91.91,0,0,0,1.54,0q1.76-2.4,3.5-4.82l-.77.44a6,6,0,0,1,3.1.51,4,4,0,0,1,2.06,3.49.89.89,0,0,0,1.78,0,5.88,5.88,0,0,0-2.93-5,5.77,5.77,0,0,0-2.87-.75c-.65,0-1.47-.16-1.91.44l-3.47,4.78,0,0h1.54l-3.5-4.77c-.44-.6-1.06-.48-1.72-.48a6.31,6.31,0,0,0-2.58.5,5.86,5.86,0,0,0-3.4,4.69,18.63,18.63,0,0,0,0,2.24v2.16a.89.89,0,0,0,.89.89H35.11a.9.9,0,0,0,.89-.89V67.11a.89.89,0,0,0-1.78,0Z"/><path class="cls-1" d="M84.73,54.29a6.58,6.58,0,0,1-2.13,4.59,2.66,2.66,0,0,1-1.95.74,3.18,3.18,0,0,1-1.86-1A6.35,6.35,0,0,1,77,53.82a3.88,3.88,0,0,1,7.74.47.89.89,0,0,0,1.78,0,5.66,5.66,0,1,0-11.29.61,8.39,8.39,0,0,0,2.62,5.24,4.74,4.74,0,0,0,2.91,1.27,4.57,4.57,0,0,0,3-1.2,8.14,8.14,0,0,0,2.73-5.93.89.89,0,0,0-1.78,0Z"/><path class="cls-1" d="M89.52,67.11v3.81l.89-.89H71.29l.89.89V68.77a13.12,13.12,0,0,1,.06-2.35,4.08,4.08,0,0,1,2.29-3,6.13,6.13,0,0,1,2.8-.36l-.77-.44,3.53,4.82a.91.91,0,0,0,1.54,0l3.51-4.82-.78.44a6.1,6.1,0,0,1,3.11.51,4,4,0,0,1,2,3.49.89.89,0,0,0,1.78,0,5.86,5.86,0,0,0-2.93-5,5.74,5.74,0,0,0-2.86-.75c-.66,0-1.47-.16-1.91.44l-3.48,4.78,0,0h1.54l-3.5-4.77c-.44-.6-1.07-.48-1.72-.48a6.39,6.39,0,0,0-2.59.5,5.83,5.83,0,0,0-3.39,4.69,16.78,16.78,0,0,0,0,2.24v2.16a.9.9,0,0,0,.89.89H90.41a.89.89,0,0,0,.89-.89V67.11a.89.89,0,0,0-1.78,0Z"/><path class="cls-1" d="M57.08,15A6.58,6.58,0,0,1,55,19.58a2.66,2.66,0,0,1-2,.74,3.14,3.14,0,0,1-1.87-1,6.37,6.37,0,0,1-1.79-4.77,3.88,3.88,0,0,1,7.74.48.89.89,0,0,0,1.78,0,5.66,5.66,0,1,0-11.29.61,8.42,8.42,0,0,0,2.61,5.24,4.77,4.77,0,0,0,2.92,1.27,4.57,4.57,0,0,0,3-1.2A8.14,8.14,0,0,0,58.86,15a.89.89,0,0,0-1.78,0Z"/><path class="cls-1" d="M61.87,27.81v3.81l.89-.89H43.64l.89.89V29.47a14.12,14.12,0,0,1,0-2.35,4.09,4.09,0,0,1,2.29-2.95,6.19,6.19,0,0,1,2.81-.36l-.77-.44,3.53,4.82a.91.91,0,0,0,1.54,0q1.76-2.4,3.5-4.82l-.77.44a6,6,0,0,1,3.1.51,4,4,0,0,1,2.06,3.49.89.89,0,0,0,1.78,0,5.87,5.87,0,0,0-2.93-5A5.78,5.78,0,0,0,57.85,22c-.65,0-1.47-.15-1.9.45l-3.48,4.78,0,0H54l-3.5-4.77c-.43-.6-1.06-.49-1.72-.49a6.36,6.36,0,0,0-2.58.51,5.86,5.86,0,0,0-3.4,4.69,18.63,18.63,0,0,0,0,2.24v2.16a.89.89,0,0,0,.89.89H62.76a.89.89,0,0,0,.89-.89V27.81a.89.89,0,0,0-1.78,0Z"/><path class="cls-1" d="M24.41,44.05A29.73,29.73,0,0,1,38.83,24.52l.55-.3c1-.55.11-2.08-.9-1.54A31.48,31.48,0,0,0,23,42.19c-.12.45-.23.92-.33,1.38-.24,1.13,1.48,1.6,1.72.48Z"/><path class="cls-1" d="M67.22,76.05a29.7,29.7,0,0,1-28,0l-.63-.35a.89.89,0,0,0-.9,1.54,31.69,31.69,0,0,0,14.14,4.09,31.24,31.24,0,0,0,14.62-2.92q.86-.39,1.68-.84c1-.54.11-2.08-.9-1.54Z"/><path class="cls-1" d="M66.27,23.83A29.77,29.77,0,0,1,81.62,42.55c.09.33.18.67.25,1,.27,1.12,2,.65,1.72-.47A31.47,31.47,0,0,0,68.73,23.13c-.52-.29-1-.57-1.56-.83a.9.9,0,0,0-1.22.32.87.87,0,0,0,.32,1.21Z"/><path class="cls-1" d="M51.51,59.56V58.43a.86.86,0,0,0-.44-.77,6,6,0,0,1-3.53-4.11,5.88,5.88,0,0,1,1.12-5,5.9,5.9,0,1,1,6.84,9.14.86.86,0,0,0-.44.77v1.14a.89.89,0,0,0,1.78,0V58.42l-.44.77a7.78,7.78,0,0,0,4.12-4.47A7.68,7.68,0,1,0,50.17,59.2c-.15-.25-.3-.51-.44-.77v1.14a.89.89,0,0,0,1.78,0Z"/><path class="cls-1" d="M52.38,40.25V42.6a.9.9,0,0,0,1.79,0V40.25A.9.9,0,0,0,52.38,40.25Z"/><path class="cls-1" d="M50.73,63.08h5.1a.89.89,0,0,0,0-1.78h-5.1A.89.89,0,0,0,50.73,63.08Z"/><path class="cls-1" d="M41.33,53.08h2.35a.89.89,0,0,0,0-1.78H41.33A.89.89,0,0,0,41.33,53.08Z"/><path class="cls-1" d="M62.87,53.08h2.35a.89.89,0,0,0,0-1.78H62.87A.89.89,0,0,0,62.87,53.08Z"/><path class="cls-1" d="M44.19,44.38,45.86,46a.89.89,0,0,0,1.26-1.26l-1.67-1.66A.89.89,0,0,0,44.19,44.38Z"/><path class="cls-1" d="M59.43,59.6l1.66,1.66A.89.89,0,0,0,62.35,60l-1.66-1.66C59.88,57.53,58.61,58.79,59.43,59.6Z"/><path class="cls-1" d="M61.09,43.12l-1.66,1.66c-.82.81.45,2.07,1.26,1.26l1.66-1.66A.89.89,0,0,0,61.09,43.12Z"/><path class="cls-1" d="M45.86,58.34,44.19,60a.89.89,0,0,0,1.26,1.26l1.67-1.66A.89.89,0,0,0,45.86,58.34Z"/><path class="cls-1" d="M51.82,65.75h2.91a.89.89,0,0,0,0-1.78H51.82A.89.89,0,0,0,51.82,65.75Z"/><path class="cls-2" d="M20.91,94.63c0,3.7-2.26,5.68-5,5.68s-4.85-2.22-4.85-5.49,2.11-5.66,5-5.66S20.91,91.41,20.91,94.63Zm-8.39.16c0,2.32,1.25,4.39,3.46,4.39s3.45-2,3.45-4.48c0-2.17-1.12-4.41-3.44-4.41S12.52,92.44,12.52,94.79Z"/><path class="cls-2" d="M29.19,98c0,.82,0,1.52.07,2.13H28l-.08-1.27h0a2.89,2.89,0,0,1-2.56,1.44c-1.22,0-2.68-.68-2.68-3.39V92.39h1.41v4.27c0,1.48.47,2.49,1.73,2.49a2,2,0,0,0,1.86-1.3,1.93,1.93,0,0,0,.13-.72V92.39h1.4Z"/><path class="cls-2" d="M31.53,94.81c0-.92,0-1.7-.07-2.42H32.7l.06,1.54h.05A2.34,2.34,0,0,1,35,92.23c.14,0,.25,0,.38,0v1.33a2.33,2.33,0,0,0-.48,0A2,2,0,0,0,33,95.35a4.5,4.5,0,0,0,0,.66v4.13H31.53Z"/><path class="cls-2" d="M40.18,89.35H46v1.17h-4.4V94.1h4.07v1.16H41.59v4.88H40.18Z"/><path class="cls-2" d="M49.1,90.21a.85.85,0,0,1-.9.87.84.84,0,0,1-.85-.87.88.88,0,1,1,1.75,0Zm-1.57,9.93V92.39h1.41v7.75Z"/><path class="cls-2" d="M51.27,94.49c0-.82,0-1.46-.06-2.1h1.25l.08,1.28h0a2.86,2.86,0,0,1,2.56-1.44c1.07,0,2.74.64,2.74,3.3v4.61H56.46V95.67c0-1.25-.47-2.29-1.8-2.29a2,2,0,0,0-1.88,1.44,1.91,1.91,0,0,0-.1.66v4.66H51.27Z"/><path class="cls-2" d="M66.83,88.77v9.37c0,.69,0,1.47.06,2H65.64l-.06-1.35h0a2.8,2.8,0,0,1-2.61,1.52c-1.87,0-3.33-1.58-3.33-3.93,0-2.58,1.6-4.15,3.47-4.15A2.6,2.6,0,0,1,65.4,93.4h0V88.77Zm-1.4,6.77a2.41,2.41,0,0,0-.06-.59,2.08,2.08,0,0,0-2-1.62c-1.46,0-2.32,1.29-2.32,3s.78,2.87,2.28,2.87a2.14,2.14,0,0,0,2.07-1.68,2.43,2.43,0,0,0,.06-.61Z"/><path class="cls-2" d="M70.74,90.21a.84.84,0,0,1-.89.87.83.83,0,0,1-.85-.87.86.86,0,0,1,.88-.88A.85.85,0,0,1,70.74,90.21Zm-1.57,9.93V92.39h1.41v7.75Z"/><path class="cls-2" d="M72.92,94.49c0-.82,0-1.46-.07-2.1H74.1l.08,1.28h0a2.86,2.86,0,0,1,2.56-1.44c1.07,0,2.73.64,2.73,3.3v4.61H78.1V95.67c0-1.25-.46-2.29-1.79-2.29a2,2,0,0,0-1.89,1.44,2.19,2.19,0,0,0-.09.66v4.66H72.92Z"/><path class="cls-2" d="M88.43,99c0,1.79-.37,2.87-1.11,3.55a4.25,4.25,0,0,1-2.83.93,5,5,0,0,1-2.58-.64l.35-1.09a4.23,4.23,0,0,0,2.28.63c1.44,0,2.49-.75,2.49-2.72v-.85h0a2.75,2.75,0,0,1-2.46,1.3c-1.93,0-3.3-1.64-3.3-3.78,0-2.63,1.71-4.1,3.5-4.1a2.58,2.58,0,0,1,2.42,1.33h0l0-1.17h1.25c0,.54-.06,1.19-.06,2.11ZM87,95.45a2.07,2.07,0,0,0-2-2.13c-1.35,0-2.31,1.14-2.31,2.93,0,1.52.79,2.78,2.29,2.78a2,2,0,0,0,2-1.44,2.45,2.45,0,0,0,.12-.75Z"/><path class="cls-2" d="M90.55,98.71a3.93,3.93,0,0,0,1.87.55c1,0,1.49-.5,1.49-1.16s-.4-1-1.42-1.4c-1.41-.52-2.07-1.27-2.07-2.2a2.4,2.4,0,0,1,2.68-2.27,3.58,3.58,0,0,1,1.88.48l-.33,1a3,3,0,0,0-1.59-.47c-.83,0-1.28.48-1.28,1.06s.45.93,1.46,1.33c1.33.49,2,1.16,2,2.32,0,1.37-1.07,2.33-2.88,2.33a4.44,4.44,0,0,1-2.18-.54Z"/></svg>