<svg id="Layer_1" data-name="Layer 1" xmlns="http://www.w3.org/2000/svg" viewBox="0 0 96.39 85.25"><defs><style>.cls-1{fill:#fff;}</style></defs><path class="cls-1" d="M50.56,36.24A20.17,20.17,0,0,1,53.9,36a5.54,5.54,0,0,1,3.78,1.12,3.69,3.69,0,0,1,1.18,2.82,4,4,0,0,1-1,2.88,5.62,5.62,0,0,1-4.12,1.48,6,6,0,0,1-1.4-.12v5.4H50.56Zm1.74,6.5a5.84,5.84,0,0,0,1.44.14c2.1,0,3.38-1,3.38-2.86s-1.28-2.66-3.18-2.66a7.3,7.3,0,0,0-1.64.14Z"/><path class="cls-1" d="M61.18,36.08h1.76v12H68.7v1.46H61.18Z"/><path class="cls-1" d="M72.82,45.32l-1.4,4.24h-1.8l4.6-13.48H76.3l4.6,13.48H79L77.6,45.32ZM77.26,44l-1.34-3.88c-.3-.88-.5-1.68-.7-2.46h0c-.2.78-.4,1.62-.68,2.44L73.18,44Z"/><path class="cls-1" d="M84.3,49.56V43.84L80,36.08h2l1.9,3.72c.5,1,.92,1.84,1.34,2.78h0c.36-.88.84-1.76,1.36-2.78l1.94-3.72h2l-4.5,7.74v5.74Z"/><path class="cls-1" d="M23.49,31.83h4.44l11-11a2.27,2.27,0,0,1,2.45.34,2.4,2.4,0,0,1,.48,2.32L31.27,36.05l-.62,11.39L36,56.58a.7.7,0,0,1,.28.82L33.79,68.18a2.56,2.56,0,0,1-2.66,1.5,2.81,2.81,0,0,1-2.25-2.25l1.43-8.94-4.16-6.2-3.82,7.36a3.37,3.37,0,0,1-.68.75,2.13,2.13,0,0,1-.75.48L10.2,61s-2.19-.75-2-2.66a3.2,3.2,0,0,1,2-2.59L18,55.42l2.59-7.7-.34-11.53L9.58,23.71s-.43-1.9.32-2.64a3.24,3.24,0,0,1,2.61-.52Z"/><circle class="cls-1" cx="26.18" cy="23.78" r="4.94"/></svg>