<svg id="Layer_1" data-name="Layer 1" xmlns="http://www.w3.org/2000/svg" viewBox="0 0 149.46 116.19"><defs><style>.cls-1,.cls-2,.cls-7{fill:#fff;}.cls-2,.cls-3,.cls-4,.cls-5,.cls-6,.cls-7{stroke:#fff;stroke-miterlimit:10;}.cls-2{stroke-width:2.5px;}.cls-3{fill:#9aa5af;stroke-width:1.25px;}.cls-4,.cls-5{fill:none;stroke-width:3.4px;}.cls-5{stroke-dasharray:0.86 0.86;}.cls-6{fill:#008ccc;stroke-linecap:round;}.cls-6,.cls-7{stroke-width:1.18px;}</style></defs><polygon class="cls-1" points="120.26 65.36 120.26 60.36 38.47 60.36 38.47 49.11 120.26 49.11 120.26 44.11 138.66 54.73 120.26 65.36"/><path class="cls-2" d="M17.15,63.49H50.71s2-.07,2.15-3.82-4.93-5.77-4.93-5.77,3.26-7.71-2.57-10.49-9.73,2.71-9.73,2.71a5.38,5.38,0,0,0-6.93-2.49c-3.61,1.39-4,5.9-4,5.9a7.75,7.75,0,0,0-9.38,4.4C12.15,60.4,17.15,63.49,17.15,63.49Z"/><circle class="cls-3" cx="83.33" cy="55.02" r="23.19"/><path class="cls-4" d="M102.77,55.71c0-.14,0-.28,0-.42"/><path class="cls-5" d="M102.73,54.43a19.42,19.42,0,0,0-38.82.43"/><path class="cls-4" d="M63.89,55.29v.42"/><line class="cls-6" x1="83.73" y1="55.43" x2="76.26" y2="40.13"/><circle class="cls-7" cx="83.79" cy="55.44" r="2.29"/><path class="cls-1" d="M42.7,88.47A20.25,20.25,0,0,1,46,88.19a5.58,5.58,0,0,1,3.9,1.1A3.46,3.46,0,0,1,51,91.87a3.54,3.54,0,0,1-2.52,3.43v.06a3.38,3.38,0,0,1,2,2.72,21.45,21.45,0,0,0,1,3.7h-1.8a16.9,16.9,0,0,1-.88-3.22c-.4-1.86-1.14-2.56-2.72-2.62H44.44v5.84H42.7Zm1.74,6.15h1.78c1.86,0,3-1,3-2.56,0-1.75-1.26-2.51-3.1-2.51a7.63,7.63,0,0,0-1.72.14Z"/><path class="cls-1" d="M60.44,99.46a16.24,16.24,0,0,0,.14,2.32H59l-.14-1.22H58.8a3.61,3.61,0,0,1-3,1.44,2.76,2.76,0,0,1-3-2.78c0-2.34,2.08-3.62,5.82-3.6v-.2a2,2,0,0,0-2.2-2.22,4.66,4.66,0,0,0-2.54.72l-.4-1.18a6.27,6.27,0,0,1,3.2-.84c3,0,3.68,2,3.68,3.94Zm-1.7-2.62c-1.92,0-4.1.3-4.1,2.18a1.54,1.54,0,0,0,1.64,1.68,2.44,2.44,0,0,0,2.38-1.62,2,2,0,0,0,.08-.56Z"/><path class="cls-1" d="M65.32,89.77V92.1h2.52v1.34H65.32v5.22c0,1.2.34,1.88,1.32,1.88a3.29,3.29,0,0,0,1-.12l.08,1.34a4.8,4.8,0,0,1-1.56.24,2.51,2.51,0,0,1-1.9-.74,3.78,3.78,0,0,1-.68-2.54V93.44H62.1V92.1h1.5V90.29Z"/><path class="cls-1" d="M70.68,97.26A3.09,3.09,0,0,0,74,100.62a6.3,6.3,0,0,0,2.68-.5l.32,1.26a7.89,7.89,0,0,1-3.24.62c-3,0-4.76-2-4.76-4.9s1.72-5.2,4.54-5.2c3.18,0,4,2.76,4,4.54a4.29,4.29,0,0,1-.06.82ZM75.84,96c0-1.1-.46-2.84-2.44-2.84A2.88,2.88,0,0,0,70.7,96Z"/><path class="cls-1" d="M84,88.49a22.33,22.33,0,0,1,3.7-.3,7.81,7.81,0,0,1,5.46,1.68,6.17,6.17,0,0,1,1.92,4.85A7.21,7.21,0,0,1,93.16,100c-1.28,1.26-3.36,1.94-6,1.94a27.82,27.82,0,0,1-3.16-.16Zm1.74,11.93a14.47,14.47,0,0,0,1.76.08c3.74,0,5.74-2.08,5.74-5.72,0-3.19-1.78-5.2-5.46-5.2a10,10,0,0,0-2,.17Z"/><path class="cls-1" d="M99.24,89.37a1.06,1.06,0,0,1-1.12,1.09,1,1,0,0,1-1.06-1.09,1.07,1.07,0,0,1,1.1-1.1A1.06,1.06,0,0,1,99.24,89.37Zm-2,12.41V92.1H99v9.68Z"/><path class="cls-1" d="M108.76,99.46a16.24,16.24,0,0,0,.14,2.32h-1.58l-.14-1.22h-.06a3.61,3.61,0,0,1-3,1.44,2.76,2.76,0,0,1-3-2.78c0-2.34,2.09-3.62,5.83-3.6v-.2a2,2,0,0,0-2.2-2.22,4.66,4.66,0,0,0-2.54.72l-.4-1.18a6.27,6.27,0,0,1,3.2-.84c3,0,3.68,2,3.68,3.94Zm-1.7-2.62c-1.92,0-4.1.3-4.1,2.18a1.54,1.54,0,0,0,1.64,1.68A2.44,2.44,0,0,0,107,99.08a2,2,0,0,0,.08-.56Z"/><path class="cls-1" d="M111.6,87.57h1.76v14.21H111.6Z"/></svg>