<svg id="Layer_1" data-name="Layer 1" xmlns="http://www.w3.org/2000/svg" viewBox="0 0 88.23 84.14"><defs><style>.cls-1{fill:#fff;}</style></defs><path class="cls-1" d="M44.45,52.35c-.06-1-.11-1.93-.16-2.89v-.34a19.05,19.05,0,0,0,2.1-.4A6.22,6.22,0,0,0,50,45.92a5.49,5.49,0,0,0,.85-2.45c0-.51.07-1,.08-1.52q0-9.6,0-19.21a6.17,6.17,0,0,0-1.35-3.86,6.45,6.45,0,0,0-4.12-2.42,9.31,9.31,0,0,0-1.14-.1l.18-3.29H45.6l.75.16a9.43,9.43,0,0,1,4.75,2.41c.54.51,1,1.08,1.45,1.55.67-.66,1.32-1.38,2.05-2a8.23,8.23,0,0,1,3.3-1.72c.55-.15,1.1-.26,1.66-.39h1.15l.17,3.29a6.41,6.41,0,0,0-6.56,6.53h8.07V42.53H54.26a6.36,6.36,0,0,0,1.52,4.22,6.58,6.58,0,0,0,5.08,2.3c0,.16,0,.29,0,.41l-.15,2.89H59.56l-.76-.16a9.43,9.43,0,0,1-4.75-2.41c-.54-.51-1-1.08-1.45-1.55-.66.66-1.32,1.38-2,2A8.34,8.34,0,0,1,47.25,52c-.54.15-1.1.26-1.65.39ZM59.07,39.21v-13H54.28v13Z"/><path class="cls-1" d="M23.12,22.89H47.64v3.29H26.45v13h21.2v3.31H23.12Z"/><path class="cls-1" d="M44.43,29.44V36H29.67V29.44Z"/><path class="cls-1" d="M10.94,58.85a20.25,20.25,0,0,1,3.34-.28,5.58,5.58,0,0,1,3.9,1.1,3.44,3.44,0,0,1,1.06,2.58,3.54,3.54,0,0,1-2.52,3.42v.06a3.38,3.38,0,0,1,2,2.72,21.45,21.45,0,0,0,1,3.7h-1.8A16.9,16.9,0,0,1,17,68.93c-.4-1.86-1.14-2.56-2.72-2.62H12.68v5.84H10.94ZM12.68,65h1.78c1.86,0,3-1,3-2.56,0-1.74-1.26-2.5-3.1-2.5a7.63,7.63,0,0,0-1.72.14Z"/><path class="cls-1" d="M22.7,67.63A3.09,3.09,0,0,0,26,71a6.3,6.3,0,0,0,2.68-.5L29,71.75a7.89,7.89,0,0,1-3.24.62c-3,0-4.76-2-4.76-4.9s1.72-5.2,4.54-5.2c3.18,0,4,2.76,4,4.54a4.29,4.29,0,0,1-.06.82Zm5.16-1.26c0-1.1-.46-2.84-2.44-2.84a2.88,2.88,0,0,0-2.7,2.84Z"/><path class="cls-1" d="M31.74,65.09c0-1,0-1.82-.08-2.62h1.56l.1,1.6h0a3.58,3.58,0,0,1,3.2-1.8c1.34,0,3.42.8,3.42,4.12v5.76H38.22V66.57c0-1.56-.58-2.86-2.24-2.86a2.58,2.58,0,0,0-2.48,2.62v5.82H31.74Z"/><path class="cls-1" d="M49.64,69.83a16.24,16.24,0,0,0,.14,2.32H48.2l-.14-1.22H48a3.61,3.61,0,0,1-3,1.44,2.76,2.76,0,0,1-3-2.78c0-2.34,2.08-3.62,5.82-3.6v-.2a2,2,0,0,0-2.2-2.22,4.66,4.66,0,0,0-2.54.72l-.4-1.18a6.27,6.27,0,0,1,3.2-.84c3,0,3.68,2,3.68,3.94Zm-1.7-2.62c-1.92,0-4.1.3-4.1,2.18a1.54,1.54,0,0,0,1.64,1.68,2.44,2.44,0,0,0,2.38-1.62,2,2,0,0,0,.08-.56Z"/><path class="cls-1" d="M52.48,65.09c0-1,0-1.82-.08-2.62h1.54L54,64.05h.06a3.35,3.35,0,0,1,3.06-1.78,2.85,2.85,0,0,1,2.72,1.94h0A3.82,3.82,0,0,1,61,63a3.25,3.25,0,0,1,2.12-.68c1.3,0,3.2.84,3.2,4.2v5.68H64.6V66.69c0-1.88-.7-3-2.1-3a2.31,2.31,0,0,0-2.1,1.58,3,3,0,0,0-.14.88v6H58.54v-5.8c0-1.54-.68-2.64-2-2.64a2.43,2.43,0,0,0-2.18,1.76,2.35,2.35,0,0,0-.14.86v5.82H52.48Z"/><path class="cls-1" d="M70.14,67.63A3.09,3.09,0,0,0,73.46,71a6.3,6.3,0,0,0,2.68-.5l.32,1.26a7.89,7.89,0,0,1-3.24.62c-3,0-4.76-2-4.76-4.9s1.72-5.2,4.54-5.2c3.18,0,4,2.76,4,4.54a4.29,4.29,0,0,1-.06.82Zm5.16-1.26c0-1.1-.46-2.84-2.44-2.84a2.88,2.88,0,0,0-2.7,2.84Z"/></svg>