<svg id="Layer_1" data-name="Layer 1" xmlns="http://www.w3.org/2000/svg" viewBox="0 0 142.09 101.06"><defs><style>.cls-1{fill:#fff;}.cls-2,.cls-3,.cls-4{fill:none;stroke:#fff;stroke-width:1.28px;}.cls-2,.cls-4{stroke-linejoin:round;}.cls-3,.cls-4{stroke-linecap:round;}.cls-3{stroke-miterlimit:10;}</style></defs><path class="cls-1" d="M65.17,40.22a20.25,20.25,0,0,1,3.34-.28,5.58,5.58,0,0,1,3.9,1.1,3.44,3.44,0,0,1,1.06,2.58A3.54,3.54,0,0,1,71,47v.06a3.38,3.38,0,0,1,2,2.72,21.45,21.45,0,0,0,1,3.7h-1.8a16.9,16.9,0,0,1-.88-3.22c-.4-1.86-1.14-2.56-2.72-2.62H66.91v5.84H65.17Zm1.74,6.14h1.78c1.86,0,3-1,3-2.56,0-1.74-1.26-2.5-3.1-2.5a7.63,7.63,0,0,0-1.72.14Z"/><path class="cls-1" d="M82.89,47.2H77.67v4.86h5.84v1.46h-7.6V40h7.3V41.5H77.67v4.26h5.22Z"/><path class="cls-1" d="M85.77,40.2a20.17,20.17,0,0,1,3.34-.26,5.54,5.54,0,0,1,3.78,1.12,3.69,3.69,0,0,1,1.18,2.82,4,4,0,0,1-1,2.88,5.62,5.62,0,0,1-4.12,1.48,6,6,0,0,1-1.4-.12v5.4H85.77Zm1.74,6.5a5.84,5.84,0,0,0,1.44.14c2.1,0,3.38-1,3.38-2.86s-1.28-2.66-3.18-2.66a7.3,7.3,0,0,0-1.64.14Z"/><path class="cls-1" d="M107.93,46.64c0,4.62-2.82,7.1-6.26,7.1S95.61,51,95.61,46.88c0-4.28,2.64-7.08,6.24-7.08S107.93,42.62,107.93,46.64Zm-10.48.2c0,2.9,1.56,5.48,4.32,5.48s4.32-2.54,4.32-5.6c0-2.7-1.4-5.5-4.3-5.5S97.45,43.9,97.45,46.84Z"/><path class="cls-1" d="M110.19,40.22a20.25,20.25,0,0,1,3.34-.28,5.58,5.58,0,0,1,3.9,1.1,3.44,3.44,0,0,1,1.06,2.58A3.54,3.54,0,0,1,116,47v.06a3.38,3.38,0,0,1,2,2.72,21.45,21.45,0,0,0,1,3.7h-1.8a16.9,16.9,0,0,1-.88-3.22c-.4-1.86-1.14-2.56-2.72-2.62h-1.64v5.84h-1.74Zm1.74,6.14h1.78c1.86,0,3-1,3-2.56,0-1.74-1.26-2.5-3.1-2.5a7.63,7.63,0,0,0-1.72.14Z"/><path class="cls-1" d="M123.69,41.52h-4.1V40h10v1.48h-4.12v12h-1.76Z"/><path class="cls-1" d="M65.17,57.74a15.31,15.31,0,0,1,3.18-.3,5.48,5.48,0,0,1,3.68,1,2.84,2.84,0,0,1,1.14,2.38,3.19,3.19,0,0,1-2.28,3v.06a3.43,3.43,0,0,1,2.78,3.36,3.54,3.54,0,0,1-1.16,2.7c-.92.86-2.44,1.26-4.64,1.26a20.34,20.34,0,0,1-2.7-.16Zm1.74,5.52h1.58c1.82,0,2.9-1,2.9-2.28,0-1.56-1.18-2.2-2.94-2.2a7.46,7.46,0,0,0-1.54.12Zm0,6.44a9.46,9.46,0,0,0,1.46.08c1.8,0,3.46-.66,3.46-2.62s-1.58-2.6-3.48-2.6H66.91Z"/><path class="cls-1" d="M77.75,57.54v8c0,3,1.34,4.28,3.14,4.28,2,0,3.28-1.32,3.28-4.28v-8h1.76v7.88c0,4.14-2.18,5.82-5.1,5.82-2.76,0-4.84-1.56-4.84-5.76V57.54Z"/><path class="cls-1" d="M99.23,70.42a12.19,12.19,0,0,1-4.16.74,6.33,6.33,0,0,1-6.92-6.8c0-4,2.78-7,7.3-7a8.45,8.45,0,0,1,3.38.62l-.44,1.42a6.7,6.7,0,0,0-3-.58A5,5,0,0,0,90,64.28c0,3.42,2,5.44,5.2,5.44a5.67,5.67,0,0,0,2.32-.36v-4H94.79v-1.4h4.44Z"/><path class="cls-2" d="M46.38,52.35v17.3c-.63,4.36-4.68,7.7-9.61,7.7s-9-3.34-9.58-7.7a.77.77,0,0,1,0-.26v-17Z"/><path class="cls-2" d="M29.94,48.17V46.28c.45-4.21,3.37-7.44,6.92-7.44s6.45,3.23,6.9,7.44a1.06,1.06,0,0,1,0,.25v1.64Z"/><path class="cls-3" d="M39.08,38.2s-.61-3.94,1.37-6.23a23.81,23.81,0,0,1,4.34-3.86"/><path class="cls-3" d="M34.73,38.32s.57-3.94-1.3-6.23a22.76,22.76,0,0,0-4.11-3.86"/><polyline class="cls-4" points="46.53 56.38 52.77 56.38 52.77 44.18"/><polyline class="cls-4" points="46.55 67.4 52.77 67.4 52.77 78.66"/><polyline class="cls-4" points="26.97 56.38 18.91 56.38 18.91 44.18"/><polyline class="cls-4" points="26.94 67.4 18.91 67.4 18.91 78.66"/></svg>