<svg id="Layer_1" data-name="Layer 1" xmlns="http://www.w3.org/2000/svg" viewBox="0 0 102.85 88.15"><defs><style>.cls-1,.cls-2{fill:none;}.cls-1,.cls-2,.cls-4{stroke:#fff;}.cls-1,.cls-4{stroke-linejoin:round;}.cls-1{stroke-width:1.88px;}.cls-2{stroke-miterlimit:10;stroke-width:1.25px;}.cls-3,.cls-4{fill:#fff;}.cls-4{stroke-linecap:round;stroke-width:1.21px;}</style></defs><polygon class="cls-1" points="75.03 58.7 30.45 58.7 30.45 10.91 38.25 10.91 63.89 10.91 75.03 20.09 75.03 58.7"/><rect class="cls-2" x="34.33" y="14.82" width="28.85" height="13.07" rx="2.47"/><path class="cls-3" d="M34.9,78.4a5.83,5.83,0,0,0,3.08.88c1.77,0,2.8-.94,2.8-2.3s-.71-2-2.52-2.66c-2.19-.8-3.54-2-3.54-3.84,0-2.1,1.73-3.66,4.33-3.66a6,6,0,0,1,3,.66l-.48,1.42A4.94,4.94,0,0,0,39,68.26c-1.83,0-2.52,1.1-2.52,2,0,1.26.81,1.88,2.66,2.6,2.27.88,3.4,2,3.4,4s-1.51,3.9-4.67,3.9a6.91,6.91,0,0,1-3.42-.88Z"/><path class="cls-3" d="M51.68,78.2a16.24,16.24,0,0,0,.14,2.32H50.25l-.14-1.22h-.06a3.58,3.58,0,0,1-2.94,1.44,2.75,2.75,0,0,1-3-2.78c0-2.34,2.07-3.62,5.79-3.6v-.2a2,2,0,0,0-2.19-2.22,4.6,4.6,0,0,0-2.52.72l-.4-1.18A6.19,6.19,0,0,1,48,70.64c2.94,0,3.66,2,3.66,3.94ZM50,75.58c-1.91,0-4.08.3-4.08,2.18a1.54,1.54,0,0,0,1.63,1.68,2.43,2.43,0,0,0,2.37-1.62,2,2,0,0,0,.08-.56Z"/><path class="cls-3" d="M55,70.84l1.89,5.42a24,24,0,0,1,.77,2.5h.06c.22-.8.5-1.6.82-2.5l1.87-5.42h1.83l-3.78,9.68H56.81l-3.66-9.68Z"/><path class="cls-3" d="M64.68,76A3.08,3.08,0,0,0,68,79.36a6.24,6.24,0,0,0,2.67-.5L71,80.12a7.83,7.83,0,0,1-3.23.62c-3,0-4.73-2-4.73-4.9s1.71-5.2,4.52-5.2c3.16,0,4,2.76,4,4.54a4.29,4.29,0,0,1-.06.82Zm5.13-1.26c0-1.1-.45-2.84-2.42-2.84a2.88,2.88,0,0,0-2.69,2.84Z"/><rect class="cls-3" x="55.52" y="16.04" width="6.35" height="10.68" rx="1.16"/><rect class="cls-2" x="34.45" y="41.34" width="36.54" height="13.97" rx="3.24"/><line class="cls-4" x1="38.11" y1="45.38" x2="66.99" y2="45.38"/><line class="cls-4" x1="38.11" y1="51.05" x2="66.99" y2="51.05"/></svg>