<svg id="Layer_1" data-name="Layer 1" xmlns="http://www.w3.org/2000/svg" viewBox="0 0 143.72 90.5"><defs><style>.cls-1,.cls-4{fill:#fff;}.cls-2,.cls-3,.cls-5{fill:none;}.cls-2{stroke:#fff;}.cls-2,.cls-3,.cls-4{stroke-width:2.5px;}.cls-3{stroke:#f6f9fd;}.cls-3,.cls-4{stroke-miterlimit:10;}.cls-4,.cls-5{stroke:#9aa5af;}.cls-4{fill-rule:evenodd;}.cls-5{stroke-linecap:round;stroke-width:0.9px;}</style></defs><path class="cls-1" d="M81,48.16h-4.1V46.68h10v1.48H82.74v12H81Z"/><path class="cls-1" d="M90.09,46.68v8c0,3,1.34,4.28,3.15,4.28,2,0,3.28-1.32,3.28-4.28v-8h1.76v7.88c0,4.14-2.18,5.82-5.1,5.82s-4.85-1.56-4.85-5.76V46.68Z"/><path class="cls-1" d="M103.85,48.16h-4.1V46.68h10v1.48h-4.12v12h-1.77Z"/><path class="cls-1" d="M122.22,53.28c0,4.62-2.82,7.1-6.27,7.1s-6.06-2.78-6.06-6.86c0-4.28,2.64-7.08,6.25-7.08S122.22,49.26,122.22,53.28Zm-10.49.2c0,2.9,1.56,5.48,4.33,5.48s4.32-2.54,4.32-5.6c0-2.7-1.4-5.5-4.3-5.5S111.73,50.54,111.73,53.48Z"/><path class="cls-1" d="M124.47,46.86a20.25,20.25,0,0,1,3.34-.28,5.59,5.59,0,0,1,3.91,1.1,3.44,3.44,0,0,1,1.06,2.58,3.54,3.54,0,0,1-2.52,3.42v.06a3.38,3.38,0,0,1,2,2.72,21.45,21.45,0,0,0,1,3.7h-1.8a16.9,16.9,0,0,1-.88-3.22c-.4-1.86-1.15-2.56-2.73-2.62h-1.64v5.84h-1.74ZM126.21,53H128c1.86,0,3-1,3-2.56,0-1.74-1.27-2.5-3.11-2.5a7.63,7.63,0,0,0-1.72.14Z"/><path id="Path_1" data-name="Path 1" class="cls-2" d="M47.51,30.35a12.9,12.9,0,1,0-25.8-.26,14.88,14.88,0,0,0,.09,1.64,19.14,19.14,0,0,0,6,12,10.78,10.78,0,0,0,6.64,2.89,10.27,10.27,0,0,0,6.88-2.73,18.55,18.55,0,0,0,6.23-13.51C47.53,27.73,47.53,33,47.51,30.35Z"/><path id="Path_2" data-name="Path 2" class="cls-3" d="M58.81,61.44A13.4,13.4,0,0,0,52.14,50a13.23,13.23,0,0,0-6.52-1.8c-1.49,0-3.35-.34-4.36,1L35,57.85l-6.21-8.48c-1-1.37-2.42-1.11-3.91-1.11A14.29,14.29,0,0,0,19,49.42,13.32,13.32,0,0,0,11.3,60.19a43.22,43.22,0,0,0,0,5.09v4.77a2.05,2.05,0,0,0,2,2H56.78a2,2,0,0,0,2-2V61.44C58.81,58.75,58.84,64,58.81,61.44Z"/><path id="Path_4" data-name="Path 4" class="cls-4" d="M45.73,55.58V76.91H56.62a1.22,1.22,0,0,0,1.21,1.23H62a1.23,1.23,0,0,0,1.25-1.22H74.15V55.58Z"/><path id="Path_6" data-name="Path 6" class="cls-5" d="M49.37,63.86H57"/><path id="Path_9" data-name="Path 9" class="cls-5" d="M49.37,68.05H57"/><path id="Path_10" data-name="Path 10" class="cls-5" d="M49.37,59.68H57"/><path id="Path_13" data-name="Path 13" class="cls-5" d="M49.37,72.23H57"/><path id="Path_6-2" data-name="Path 6" class="cls-5" d="M63,63.85h7.58"/><path id="Path_9-2" data-name="Path 9" class="cls-5" d="M63,68h7.58"/><path id="Path_10-2" data-name="Path 10" class="cls-5" d="M63,59.66h7.58"/><path id="Path_13-2" data-name="Path 13" class="cls-5" d="M63,72.22h7.58"/></svg>